<?xml version="1.0" standalone="no"?>
<!DOCTYPE svg PUBLIC "-//W3C//DTD SVG 20010904//EN"
 "http://www.w3.org/TR/2001/REC-SVG-20010904/DTD/svg10.dtd">
<svg version="1.0" xmlns="http://www.w3.org/2000/svg"
 width="224.000000pt" height="224.000000pt" viewBox="0 0 224.000000 224.000000"
 preserveAspectRatio="xMidYMid meet">
<metadata>
Created by potrace 1.14, written by Peter Selinger 2001-2017
</metadata>
<g transform="translate(0.000000,224.000000) scale(0.100000,-0.100000)"
fill="#000000" stroke="none">
<path d="M985 2199 c-90 -12 -119 -18 -180 -38 -299 -94 -522 -284 -662 -566
-36 -73 -83 -217 -99 -305 -12 -70 -11 -266 3 -340 8 -41 16 -88 19 -105 15
-78 117 -297 168 -358 l23 -29 13 79 c7 43 14 86 16 97 2 10 -9 46 -25 80 -35
76 -56 140 -75 231 -21 99 -15 305 12 407 75 279 256 501 507 622 142 68 235
89 395 90 160 1 210 -5 316 -39 172 -57 349 -178 448 -308 37 -48 42 -40 50
87 7 93 11 136 22 216 l5 35 -54 -53 -54 -53 -75 54 c-89 63 -215 126 -313
157 -137 42 -327 58 -460 39z"/>
<path d="M1035 1969 c-422 -41 -756 -399 -763 -820 -2 -79 -1 -82 12 -54 14
33 83 98 135 128 l31 18 -3 -78 c-2 -43 0 -87 4 -98 9 -23 9 -24 13 80 8 178
76 328 207 455 277 268 728 238 976 -65 43 -52 106 -169 119 -219 7 -28 6 -28
-17 -12 -25 16 -119 48 -174 59 -28 6 -29 6 -5 -4 141 -60 182 -87 206 -131
76 -145 -171 -308 -574 -380 -193 -34 -504 -33 -672 3 -73 15 -188 69 -224
105 l-29 29 7 -35 c4 -19 9 -42 11 -50 2 -8 15 -46 29 -85 78 -205 264 -399
462 -479 128 -52 206 -67 344 -67 269 -1 526 133 686 357 164 227 203 535 103
795 -141 365 -495 585 -884 548z m741 -1009 c-60 -244 -251 -431 -502 -491
-210 -50 -438 12 -598 162 l-60 56 121 1 c66 0 139 3 162 6 23 3 60 9 84 12
182 24 398 89 556 166 89 44 193 116 226 155 27 33 30 14 11 -67z"/>
<path d="M1979 1768 c0 -21 -11 -100 -18 -143 -6 -33 -1 -52 25 -111 34 -72
69 -195 80 -274 13 -102 0 -286 -25 -352 -5 -13 -9 -26 -10 -31 -7 -53 -65
-184 -115 -259 -125 -189 -338 -343 -551 -398 -163 -43 -389 -36 -544 17 -108
36 -239 109 -311 173 -14 12 -36 32 -50 44 -14 12 -47 47 -72 78 l-47 57 -5
-52 c-7 -64 -14 -139 -22 -237 -4 -41 -9 -79 -12 -85 -2 -5 20 14 50 43 l55
53 104 -69 c260 -172 518 -223 841 -167 17 3 34 8 38 10 3 2 17 6 31 8 40 8
170 63 235 100 286 162 478 436 540 772 10 53 11 277 2 341 -20 135 -84 302
-162 423 -46 72 -56 81 -57 59z"/>
<path d="M1365 1449 c-27 -13 -54 -18 -83 -15 l-43 4 17 -27 c12 -17 18 -46
18 -82 l0 -57 38 20 c25 13 51 19 78 16 22 -2 40 -3 40 -2 0 1 -7 19 -16 40
-10 24 -14 54 -11 81 2 24 4 43 3 42 0 0 -19 -9 -41 -20z"/>
</g>
</svg>
