<svg width="16" height="16" viewBox="0 0 16 16" fill="none" xmlns="http://www.w3.org/2000/svg">
<path d="M7.99998 9.33333C8.13183 9.33333 8.26073 9.29423 8.37036 9.22097C8.47999 9.14772 8.56544 9.0436 8.6159 8.92178C8.66636 8.79997 8.67956 8.66592 8.65384 8.5366C8.62811 8.40728 8.56462 8.28849 8.47138 8.19526C8.37815 8.10202 8.25936 8.03853 8.13004 8.0128C8.00072 7.98708 7.86667 8.00028 7.74486 8.05074C7.62304 8.1012 7.51892 8.18665 7.44567 8.29628C7.37241 8.40591 7.33331 8.53481 7.33331 8.66666C7.33331 8.84347 7.40355 9.01304 7.52858 9.13807C7.6536 9.26309 7.82317 9.33333 7.99998 9.33333ZM11.3333 9.33333C11.4652 9.33333 11.5941 9.29423 11.7037 9.22097C11.8133 9.14772 11.8988 9.0436 11.9492 8.92178C11.9997 8.79997 12.0129 8.66592 11.9872 8.5366C11.9614 8.40728 11.898 8.28849 11.8047 8.19526C11.7115 8.10202 11.5927 8.03853 11.4634 8.0128C11.3341 7.98708 11.2 8.00028 11.0782 8.05074C10.9564 8.1012 10.8523 8.18665 10.779 8.29628C10.7057 8.40591 10.6666 8.53481 10.6666 8.66666C10.6666 8.84347 10.7369 9.01304 10.8619 9.13807C10.9869 9.26309 11.1565 9.33333 11.3333 9.33333ZM7.99998 12C8.13183 12 8.26073 11.9609 8.37036 11.8876C8.47999 11.8144 8.56544 11.7103 8.6159 11.5885C8.66636 11.4666 8.67956 11.3326 8.65384 11.2033C8.62811 11.0739 8.56462 10.9552 8.47138 10.8619C8.37815 10.7687 8.25936 10.7052 8.13004 10.6795C8.00072 10.6537 7.86667 10.667 7.74486 10.7174C7.62304 10.7679 7.51892 10.8533 7.44567 10.9629C7.37241 11.0726 7.33331 11.2015 7.33331 11.3333C7.33331 11.5101 7.40355 11.6797 7.52858 11.8047C7.6536 11.9298 7.82317 12 7.99998 12ZM11.3333 12C11.4652 12 11.5941 11.9609 11.7037 11.8876C11.8133 11.8144 11.8988 11.7103 11.9492 11.5885C11.9997 11.4666 12.0129 11.3326 11.9872 11.2033C11.9614 11.0739 11.898 10.9552 11.8047 10.8619C11.7115 10.7687 11.5927 10.7052 11.4634 10.6795C11.3341 10.6537 11.2 10.667 11.0782 10.7174C10.9564 10.7679 10.8523 10.8533 10.779 10.9629C10.7057 11.0726 10.6666 11.2015 10.6666 11.3333C10.6666 11.5101 10.7369 11.6797 10.8619 11.8047C10.9869 11.9298 11.1565 12 11.3333 12ZM4.66665 9.33333C4.7985 9.33333 4.92739 9.29423 5.03703 9.22097C5.14666 9.14772 5.23211 9.0436 5.28257 8.92178C5.33302 8.79997 5.34623 8.66592 5.3205 8.5366C5.29478 8.40728 5.23129 8.28849 5.13805 8.19526C5.04482 8.10202 4.92603 8.03853 4.79671 8.0128C4.66739 7.98708 4.53334 8.00028 4.41152 8.05074C4.28971 8.1012 4.18559 8.18665 4.11233 8.29628C4.03908 8.40591 3.99998 8.53481 3.99998 8.66666C3.99998 8.84347 4.07022 9.01304 4.19524 9.13807C4.32027 9.26309 4.48984 9.33333 4.66665 9.33333ZM12.6666 2.66666H12V1.99999C12 1.82318 11.9297 1.65361 11.8047 1.52859C11.6797 1.40357 11.5101 1.33333 11.3333 1.33333C11.1565 1.33333 10.9869 1.40357 10.8619 1.52859C10.7369 1.65361 10.6666 1.82318 10.6666 1.99999V2.66666H5.33331V1.99999C5.33331 1.82318 5.26308 1.65361 5.13805 1.52859C5.01303 1.40357 4.84346 1.33333 4.66665 1.33333C4.48984 1.33333 4.32027 1.40357 4.19524 1.52859C4.07022 1.65361 3.99998 1.82318 3.99998 1.99999V2.66666H3.33331C2.80288 2.66666 2.29417 2.87738 1.9191 3.25245C1.54403 3.62752 1.33331 4.13623 1.33331 4.66666V12.6667C1.33331 13.1971 1.54403 13.7058 1.9191 14.0809C2.29417 14.4559 2.80288 14.6667 3.33331 14.6667H12.6666C13.1971 14.6667 13.7058 14.4559 14.0809 14.0809C14.4559 13.7058 14.6666 13.1971 14.6666 12.6667V4.66666C14.6666 4.13623 14.4559 3.62752 14.0809 3.25245C13.7058 2.87738 13.1971 2.66666 12.6666 2.66666ZM13.3333 12.6667C13.3333 12.8435 13.2631 13.013 13.1381 13.1381C13.013 13.2631 12.8435 13.3333 12.6666 13.3333H3.33331C3.1565 13.3333 2.98693 13.2631 2.86191 13.1381C2.73688 13.013 2.66665 12.8435 2.66665 12.6667V6.66666H13.3333V12.6667ZM13.3333 5.33333H2.66665V4.66666C2.66665 4.48985 2.73688 4.32028 2.86191 4.19526C2.98693 4.07023 3.1565 3.99999 3.33331 3.99999H12.6666C12.8435 3.99999 13.013 4.07023 13.1381 4.19526C13.2631 4.32028 13.3333 4.48985 13.3333 4.66666V5.33333ZM4.66665 12C4.7985 12 4.92739 11.9609 5.03703 11.8876C5.14666 11.8144 5.23211 11.7103 5.28257 11.5885C5.33302 11.4666 5.34623 11.3326 5.3205 11.2033C5.29478 11.0739 5.23129 10.9552 5.13805 10.8619C5.04482 10.7687 4.92603 10.7052 4.79671 10.6795C4.66739 10.6537 4.53334 10.667 4.41152 10.7174C4.28971 10.7679 4.18559 10.8533 4.11233 10.9629C4.03908 11.0726 3.99998 11.2015 3.99998 11.3333C3.99998 11.5101 4.07022 11.6797 4.19524 11.8047C4.32027 11.9298 4.48984 12 4.66665 12Z" fill="#D5D5D8"/>
</svg>
