<svg width="16" height="16" viewBox="0 0 16 16" fill="none" xmlns="http://www.w3.org/2000/svg">
<path d="M10.3339 0H5.66696V1.52381H10.3339V0ZM7.22261 9.90476H8.77827V5.33333H7.22261V9.90476ZM13.4686 4.86857L14.5731 3.78667C14.2386 3.39809 13.873 3.03238 13.4763 2.71238L12.3718 3.79429C11.133 2.81777 9.59058 2.28548 8.00044 2.28571C4.13464 2.28571 1 5.35619 1 9.14286C1 12.9295 4.12686 16 8.00044 16C9.31832 16.0007 10.6096 15.6367 11.7256 14.9501C12.8415 14.2634 13.7368 13.2819 14.3082 12.1187C14.8796 10.9554 15.104 9.65772 14.9554 8.37505C14.8069 7.09237 14.2915 5.87688 13.4686 4.86857ZM8.00044 14.4762C4.99025 14.4762 2.55565 12.0914 2.55565 9.14286C2.55565 6.19429 4.99025 3.80952 8.00044 3.80952C11.0106 3.80952 13.4452 6.19429 13.4452 9.14286C13.4452 12.0914 11.0106 14.4762 8.00044 14.4762Z" fill="#D5D5D8"/>
</svg>
