<svg width="16" height="16" viewBox="0 0 16 16" fill="none" xmlns="http://www.w3.org/2000/svg">
<g clip-path="url(#clip0_1_31)">
<path fill-rule="evenodd" clip-rule="evenodd" d="M10.6664 2.66722C10.6665 3.21884 10.4957 3.75694 10.1773 4.20742C9.85897 4.6579 9.4088 4.99859 8.88879 5.18259V7.11133H11.5552C12.2623 7.11133 12.9405 7.39227 13.4406 7.89233C13.9406 8.39239 14.2215 9.07061 14.2215 9.7778V10.8177C14.8148 11.0274 15.3148 11.4401 15.6332 11.9828C15.9517 12.5255 16.068 13.1634 15.9616 13.7835C15.8552 14.4037 15.5331 14.9663 15.052 15.3719C14.5709 15.7775 13.962 16 13.3327 16C12.7035 16 12.0946 15.7775 11.6135 15.3719C11.1324 14.9663 10.8102 14.4037 10.7039 13.7835C10.5975 13.1634 10.7138 12.5255 11.0322 11.9828C11.3507 11.4401 11.8507 11.0274 12.4439 10.8177V9.7778C12.4439 9.54207 12.3503 9.316 12.1836 9.14931C12.0169 8.98263 11.7909 8.88898 11.5552 8.88898H4.44484C4.20912 8.88898 3.98305 8.98263 3.81637 9.14931C3.64969 9.316 3.55605 9.54207 3.55605 9.7778V10.8177C4.14931 11.0274 4.64935 11.4401 4.96777 11.9828C5.28619 12.5255 5.4025 13.1634 5.29613 13.7835C5.18977 14.4037 4.86758 14.9663 4.38651 15.3719C3.90545 15.7775 3.29648 16 2.66726 16C2.03804 16 1.42908 15.7775 0.948013 15.3719C0.466948 14.9663 0.144757 14.4037 0.0383913 13.7835C-0.0679748 13.1634 0.0483327 12.5255 0.366756 11.9828C0.685179 11.4401 1.18521 11.0274 1.77847 10.8177V9.7778C1.77847 9.07061 2.05939 8.39239 2.55943 7.89233C3.05948 7.39227 3.73768 7.11133 4.44484 7.11133H7.11121V5.18259C6.65006 5.01979 6.24255 4.73333 5.93321 4.35453C5.62388 3.97574 5.42464 3.51918 5.35728 3.03478C5.28991 2.55039 5.35702 2.05679 5.55125 1.60796C5.74548 1.15913 6.05937 0.772338 6.4586 0.489874C6.85782 0.207411 7.32702 0.0401474 7.8149 0.00637025C8.30277 -0.0274069 8.79054 0.0736023 9.22488 0.298355C9.65922 0.523108 10.0234 0.862953 10.2776 1.28074C10.5319 1.69852 10.6663 2.17816 10.6664 2.66722ZM8 1.7784C7.76428 1.7784 7.53821 1.87204 7.37153 2.03873C7.20485 2.20541 7.11121 2.43149 7.11121 2.66722C7.11121 2.90295 7.20485 3.12902 7.37153 3.29571C7.53821 3.4624 7.76428 3.55604 8 3.55604C8.23572 3.55604 8.46179 3.4624 8.62847 3.29571C8.79515 3.12902 8.88879 2.90295 8.88879 2.66722C8.88879 2.43149 8.79515 2.20541 8.62847 2.03873C8.46179 1.87204 8.23572 1.7784 8 1.7784ZM2.66726 12.4443C2.43154 12.4443 2.20547 12.5379 2.03879 12.7046C1.87211 12.8713 1.77847 13.0974 1.77847 13.3331C1.77847 13.5688 1.87211 13.7949 2.03879 13.9616C2.20547 14.1283 2.43154 14.2219 2.66726 14.2219C2.90298 14.2219 3.12905 14.1283 3.29573 13.9616C3.46241 13.7949 3.55605 13.5688 3.55605 13.3331C3.55605 13.0974 3.46241 12.8713 3.29573 12.7046C3.12905 12.5379 2.90298 12.4443 2.66726 12.4443ZM13.3327 12.4443C13.097 12.4443 12.8709 12.5379 12.7043 12.7046C12.5376 12.8713 12.4439 13.0974 12.4439 13.3331C12.4439 13.5688 12.5376 13.7949 12.7043 13.9616C12.8709 14.1283 13.097 14.2219 13.3327 14.2219C13.5685 14.2219 13.7945 14.1283 13.9612 13.9616C14.1279 13.7949 14.2215 13.5688 14.2215 13.3331C14.2215 13.0974 14.1279 12.8713 13.9612 12.7046C13.7945 12.5379 13.5685 12.4443 13.3327 12.4443Z" fill="#D5D5D8"/>
</g>
<defs>
<clipPath id="clip0_1_31">
<rect width="16" height="16" fill="white"/>
</clipPath>
</defs>
</svg>
