<svg width="1184" height="852" viewBox="0 0 1184 852" fill="none" xmlns="http://www.w3.org/2000/svg">
<g clip-path="url(#clip0_825_216)">
<path d="M-246.587 335.229L-252.235 318.533C-252.067 318.475 -233.863 312.171 -214.852 297.349C-189.966 277.946 -175.406 253.741 -171.578 225.403C-167.61 196.023 -154.619 169.935 -134.013 149.958C-114.908 131.437 -89.9978 119.228 -63.8714 115.58C-38.3365 112.015 -13.2233 116.591 8.74731 128.814C32.7112 142.145 52.0171 164.367 64.5778 193.081C84.851 239.425 118.67 268.562 165.094 279.679C200.279 288.105 229.979 282.552 230.276 282.495L233.661 299.793C232.323 300.054 200.465 306.107 161.684 296.985C138.765 291.594 118.167 282.002 100.463 268.476C78.375 251.6 60.8612 228.608 48.4063 200.136C27.125 151.489 -13.9277 126.401 -61.4282 133.036C-101.946 138.693 -146.311 170.176 -154.09 227.759C-158.519 260.556 -175.949 289.558 -204.493 311.63C-225.808 328.113 -245.749 334.947 -246.587 335.229Z" fill="#3B30AD"/>
<path d="M224.426 287.606C224.426 287.606 101.37 308.278 53.0936 189.21C4.81737 70.1427 -136.843 144.04 -165.051 213.017C-193.26 281.992 -253.546 310.081 -253.546 310.081" stroke="#7F73FF" stroke-width="2.38484" stroke-linecap="round" stroke-linejoin="round"/>
<path d="M926.723 555.254C909.985 555.254 898.692 554.471 897.187 554.361L898.76 532.963C899.891 533.047 1005.64 540.31 1062.07 508.218C1055.13 503.139 1048.7 497.414 1042.85 491.119C1023.15 469.832 1014.8 446.836 1020.53 429.607C1025.53 414.541 1036.3 405.884 1050.06 405.856H1050.12C1071.35 405.856 1095.89 427.485 1104.86 454.111C1111.09 472.624 1108.89 490.232 1098.96 504.549C1114.58 510.917 1132.26 513.644 1150.27 509.208C1191.09 499.158 1223.2 454.694 1243.15 380.624L1263.89 386.194C1252.27 429.374 1236.47 463.65 1216.94 488.074C1199.22 510.23 1178.52 524.349 1155.41 530.04C1135.07 535.049 1113.06 533.233 1091.76 524.782C1088.64 523.545 1085.55 522.17 1082.49 520.658C1039.94 550.643 967.323 555.254 926.723 555.254ZM1050.13 427.311H1050.1C1048.25 427.314 1043.92 427.323 1040.92 436.363C1038.36 444.076 1042.84 459.495 1058.63 476.555C1064.94 483.313 1072.03 489.295 1079.76 494.375C1088.89 483.004 1087.65 470.325 1084.5 460.95C1078.11 441.993 1060.79 427.311 1050.13 427.311Z" fill="#3B30AD"/>
<path d="M1092.71 499.21C1122.52 456.653 1051.58 390.763 1036.33 436.684C1019.69 486.764 1185.74 622.105 1248.36 389.502" stroke="#7F73FF" stroke-width="1.98736" stroke-linecap="round" stroke-linejoin="round"/>
<path d="M920.063 638.841C920.063 640.884 919.66 642.908 918.877 644.795C918.094 646.683 916.947 648.398 915.5 649.843C914.053 651.287 912.336 652.433 910.446 653.215C908.556 653.997 906.53 654.4 904.484 654.4H270.54C266.408 654.4 262.446 652.76 259.524 649.843C256.603 646.925 254.961 642.968 254.961 638.841C254.961 636.798 255.364 634.775 256.147 632.887C256.93 630.999 258.077 629.284 259.524 627.839C260.971 626.395 262.688 625.249 264.578 624.467C266.468 623.685 268.494 623.282 270.54 623.282H904.484C906.53 623.282 908.556 623.685 910.446 624.467C912.336 625.248 914.054 626.395 915.5 627.839C916.947 629.284 918.095 630.999 918.877 632.887C919.66 634.775 920.063 636.798 920.063 638.841Z" fill="#6D64C4"/>
<path d="M543.603 234.414L573.232 227.085C573.232 227.085 580.025 231.96 574.201 239.201C573.862 239.621 543.603 234.414 543.603 234.414Z" fill="#7F73FF"/>
<path d="M543.603 234.414L573.232 227.085C573.232 227.085 580.025 231.96 574.201 239.201C573.862 239.621 543.603 234.414 543.603 234.414Z" stroke="#7F73FF" stroke-width="1.19242" stroke-miterlimit="10"/>
<path d="M539.915 217.939L559.496 194.553C559.496 194.553 567.862 194.481 567.441 203.76C567.415 204.297 539.915 217.939 539.915 217.939Z" fill="#7F73FF"/>
<path d="M539.915 217.939L559.496 194.553C559.496 194.553 567.862 194.481 567.441 203.76C567.415 204.297 539.915 217.939 539.915 217.939Z" stroke="#7F73FF" stroke-width="1.19242" stroke-miterlimit="10"/>
<path d="M527.913 219.385L518.967 190.239C518.967 190.239 523.47 183.198 531.028 188.611C531.466 188.926 527.913 219.385 527.913 219.385Z" fill="#7F73FF"/>
<path d="M527.913 219.385L518.967 190.239C518.967 190.239 523.47 183.198 531.028 188.611C531.466 188.926 527.913 219.385 527.913 219.385Z" stroke="#7F73FF" stroke-width="1.19242" stroke-miterlimit="10"/>
<path d="M583.894 609.748L557.121 611.842C557.121 611.842 551.929 606.633 558.03 601.188C558.383 600.872 583.894 609.748 583.894 609.748Z" fill="#7F73FF"/>
<path d="M583.894 609.748L557.121 611.842C557.121 611.842 551.929 606.633 558.03 601.188C558.383 600.872 583.894 609.748 583.894 609.748Z" stroke="#7F73FF" stroke-width="1.19242" stroke-miterlimit="10"/>
<path d="M584.716 624.577L564.346 642.056C564.346 642.056 557.075 640.913 558.779 632.92C558.879 632.457 584.716 624.577 584.716 624.577Z" fill="#7F73FF"/>
<path d="M584.716 624.577L564.346 642.056C564.346 642.056 557.075 640.913 558.779 632.92C558.879 632.457 584.716 624.577 584.716 624.577Z" stroke="#7F73FF" stroke-width="1.19242" stroke-miterlimit="10"/>
<path d="M595.341 625.051L598.897 651.635C598.897 651.635 593.973 657.097 588.194 651.311C587.86 650.975 595.341 625.051 595.341 625.051Z" fill="#7F73FF"/>
<path d="M595.341 625.051L598.897 651.635C598.897 651.635 593.973 657.097 588.194 651.311C587.86 650.975 595.341 625.051 595.341 625.051Z" stroke="#7F73FF" stroke-width="1.19242" stroke-miterlimit="10"/>
<path d="M463.581 486.249H459.558L457.885 496.479H452.913L454.587 486.249H449.04V481.683H455.336L456.435 475.096H450.914V470.53H457.185L458.909 460.15H463.856L462.157 470.53H466.179L467.903 460.15H472.875L471.151 470.53H476.922V475.096H470.401L469.302 481.683H475.024V486.249H468.553L466.879 496.479H461.907L463.581 486.249ZM460.308 481.683H464.33L465.429 475.096H461.407L460.308 481.683Z" fill="#6D64C4"/>
<path d="M379.992 631.259C377.887 631.235 375.875 630.389 374.387 628.902C372.898 627.416 372.051 625.407 372.027 623.304V593.254H279.104C276.999 593.23 274.988 592.384 273.499 590.898C272.011 589.411 271.164 587.403 271.14 585.301V554.072C271.14 548.966 272.418 544.744 274.975 541.404L363.177 430.337C364.946 428.177 366.569 426.753 368.044 426.065C369.519 425.379 371.534 425.035 374.092 425.033H418.635C420.74 425.058 422.751 425.904 424.24 427.391C425.728 428.877 426.575 430.886 426.599 432.988V546.117H451.969C454.074 546.142 456.085 546.988 457.573 548.475C459.062 549.961 459.909 551.97 459.934 554.072V585.301C459.909 587.403 459.062 589.411 457.574 590.898C456.085 592.384 454.074 593.23 451.969 593.254H426.599V623.304C426.575 625.406 425.728 627.415 424.24 628.902C422.751 630.388 420.74 631.234 418.635 631.259H379.992ZM373.501 546.117V491.91L330.433 546.117H373.501Z" fill="#6D64C4"/>
<path d="M604.999 332.33C619.747 332.33 632.432 334.491 643.052 338.812C653.671 343.135 662.472 348.928 669.454 356.193C676.437 363.468 681.77 372.16 685.089 381.677C688.549 391.501 690.585 401.769 691.135 412.169C691.528 420.616 691.724 429.455 691.726 438.684C691.726 447.918 691.529 456.56 691.135 464.609C690.585 475.009 688.549 485.277 685.089 495.101C681.771 504.619 676.438 513.311 669.454 520.585C662.47 527.854 653.67 533.648 643.052 537.967C632.432 542.285 619.748 544.445 604.999 544.448C590.249 544.448 577.564 542.287 566.944 537.967C556.325 533.649 547.525 527.855 540.543 520.585C533.555 513.314 528.222 504.621 524.908 495.101C521.446 485.278 519.409 475.01 518.861 464.609C518.465 456.558 518.268 447.916 518.271 438.684C518.271 429.454 518.468 420.616 518.861 412.169C519.409 401.769 521.446 391.501 524.908 381.677C528.224 372.158 533.557 363.466 540.543 356.193C547.521 348.93 556.322 343.136 566.944 338.812C577.564 334.494 590.249 332.333 604.999 332.33ZM636.563 463.136C637.346 446.445 637.346 429.947 636.563 413.642C636.221 409.069 635.481 404.535 634.35 400.09C633.377 396.193 631.62 392.535 629.187 389.337C626.688 386.187 623.445 383.706 619.747 382.119C615.812 380.351 610.896 379.467 604.999 379.468C599.099 379.468 594.182 380.352 590.249 382.119C586.551 383.705 583.307 386.186 580.809 389.337C578.366 392.549 576.564 396.199 575.499 400.09C574.273 404.509 573.579 409.059 573.434 413.642C572.448 430.126 572.448 446.653 573.434 463.136C573.58 467.709 574.223 472.253 575.352 476.688C576.33 480.611 578.141 484.278 580.661 487.442C583.235 490.576 586.523 493.051 590.249 494.66C594.181 496.427 599.097 497.311 604.999 497.31C610.898 497.31 615.815 496.427 619.747 494.66C623.472 493.05 626.759 490.575 629.335 487.442C631.852 484.276 633.662 480.61 634.645 476.688C635.769 472.253 636.412 467.709 636.563 463.136Z" fill="#6D64C4"/>
<path d="M834.354 402.378C832.249 402.353 830.238 401.507 828.75 400.021C827.261 398.534 826.414 396.525 826.389 394.423V364.373H733.467C731.363 364.349 729.351 363.503 727.862 362.017C726.374 360.53 725.527 358.521 725.503 356.419V325.19C725.503 320.086 726.781 315.863 729.338 312.522L817.539 201.455C819.309 199.297 820.932 197.873 822.407 197.183C823.882 196.498 825.897 196.154 828.454 196.152H872.999C875.103 196.177 877.115 197.023 878.603 198.509C880.091 199.996 880.938 202.005 880.963 204.107V317.236H906.332C908.436 317.261 910.448 318.107 911.936 319.593C913.425 321.08 914.272 323.088 914.297 325.19V356.419C914.272 358.521 913.425 360.53 911.937 362.017C910.448 363.503 908.436 364.349 906.332 364.373H880.963V394.423C880.938 396.525 880.091 398.534 878.603 400.021C877.115 401.507 875.103 402.353 872.999 402.378H834.354ZM827.864 317.236V263.029L784.796 317.236H827.864Z" fill="#6D64C4"/>
<path d="M374.785 609.139C372.681 609.114 370.669 608.268 369.181 606.782C367.692 605.296 366.845 603.287 366.821 601.185V571.134H273.898C271.794 571.11 269.782 570.264 268.294 568.778C266.805 567.291 265.958 565.282 265.934 563.18V531.951C265.934 526.847 267.213 522.624 269.769 519.283L357.97 408.217C359.74 406.058 361.363 404.634 362.838 403.944C364.313 403.259 366.329 402.915 368.886 402.913H413.429C415.534 402.937 417.546 403.783 419.034 405.27C420.522 406.757 421.369 408.766 421.393 410.868V523.997H446.763C448.868 524.021 450.88 524.867 452.368 526.354C453.856 527.84 454.703 529.849 454.728 531.951V563.18C454.703 565.282 453.857 567.291 452.368 568.778C450.88 570.264 448.868 571.11 446.763 571.134H421.393V601.185C421.369 603.287 420.522 605.296 419.034 606.782C417.546 608.269 415.534 609.114 413.429 609.139H374.785ZM368.295 523.997V469.789L325.227 523.997H368.295Z" stroke="#7F73FF" stroke-width="1.19242" stroke-linecap="round" stroke-linejoin="round"/>
<path d="M578.911 343.058C593.66 343.058 606.345 345.218 616.965 349.539C627.584 353.862 636.385 359.656 643.367 366.921C650.35 374.196 655.683 382.887 659.002 392.405C662.462 402.229 664.498 412.497 665.048 422.896C665.44 431.343 665.637 440.182 665.639 449.412C665.639 458.645 665.442 467.287 665.048 475.337C664.498 485.737 662.462 496.004 659.002 505.828C655.684 515.346 650.351 524.038 643.367 531.312C636.383 538.581 627.582 544.375 616.965 548.694C606.345 553.012 593.661 555.173 578.911 555.176C564.162 555.176 551.477 553.015 540.857 548.694C530.238 544.377 521.437 538.583 514.456 531.312C507.468 524.041 502.135 515.348 498.821 505.828C495.359 496.005 493.322 485.737 492.774 475.337C492.378 467.285 492.181 458.643 492.184 449.412C492.184 440.182 492.381 431.343 492.774 422.896C493.322 412.496 495.359 402.228 498.821 392.405C502.136 382.886 507.469 374.193 514.456 366.921C521.434 359.657 530.234 353.863 540.857 349.539C551.477 345.221 564.162 343.061 578.911 343.058ZM610.476 473.863C611.259 457.172 611.259 440.674 610.476 424.37C610.135 419.797 609.394 415.262 608.263 410.818C607.289 406.921 605.533 403.262 603.1 400.064C600.601 396.914 597.358 394.434 593.66 392.847C589.724 391.079 584.808 390.194 578.911 390.195C573.011 390.195 568.094 391.079 564.161 392.847C560.464 394.433 557.22 396.913 554.722 400.064C552.279 403.276 550.477 406.927 549.412 410.818C548.186 415.237 547.492 419.786 547.347 424.37C546.361 440.853 546.361 457.38 547.347 473.863C547.493 478.437 548.136 482.98 549.264 487.415C550.243 491.338 552.054 495.005 554.574 498.169C557.148 501.304 560.435 503.778 564.161 505.387C568.093 507.155 573.01 508.038 578.911 508.038C584.811 508.038 589.727 507.155 593.66 505.387C597.386 503.777 600.672 501.302 603.248 498.169C605.765 495.003 607.576 491.337 608.558 487.415C609.682 482.98 610.325 478.436 610.476 473.863V473.863Z" stroke="#7F73FF" stroke-width="1.19242" stroke-linecap="round" stroke-linejoin="round"/>
<path d="M810.065 413.105C807.96 413.081 805.948 412.235 804.46 410.749C802.971 409.262 802.124 407.253 802.1 405.151V375.101H709.177C707.073 375.077 705.061 374.231 703.573 372.745C702.084 371.258 701.237 369.249 701.213 367.147V335.918C701.213 330.813 702.492 326.591 705.048 323.25L793.25 212.183C795.019 210.024 796.642 208.6 798.117 207.911C799.591 207.226 801.607 206.882 804.164 206.88H848.708C850.813 206.905 852.824 207.751 854.313 209.237C855.801 210.723 856.648 212.732 856.673 214.834V327.964H882.042C884.147 327.988 886.158 328.834 887.647 330.321C889.135 331.807 889.982 333.816 890.007 335.918V367.147C889.982 369.249 889.135 371.258 887.647 372.744C886.158 374.231 884.147 375.076 882.042 375.101H856.673V405.151C856.648 407.253 855.801 409.262 854.313 410.748C852.824 412.235 850.813 413.081 848.708 413.105H810.065ZM803.574 327.964V273.756L760.506 327.964H803.574Z" stroke="#7F73FF" stroke-width="1.19242" stroke-linecap="round" stroke-linejoin="round"/>
<path d="M272.06 622.004H893.551" stroke="#7F73FF" stroke-width="1.19242" stroke-linecap="round" stroke-linejoin="round"/>
<path d="M386.862 603.134L381.491 619.417L369.316 619.085L373.339 605.528" fill="white"/>
<path d="M386.862 603.134L381.491 619.417L369.316 619.085L373.339 605.528" stroke="#7F73FF" stroke-width="1.19242" stroke-linecap="round" stroke-linejoin="round"/>
<path d="M432.799 356.916L425.402 357.533C427.2 372.625 420.781 383.773 412.365 391.741L420.522 404.563C435.163 385.232 432.799 356.916 432.799 356.916Z" fill="white" stroke="#7F73FF" stroke-width="1.19242" stroke-linecap="round" stroke-linejoin="round"/>
<path d="M381.953 408.667L388.793 421.787C403.962 420.103 413.952 413.237 420.522 404.563L412.365 391.741C399.495 403.924 381.953 408.667 381.953 408.667Z" fill="#6D64C4" stroke="#7F73FF" stroke-width="1.19242" stroke-linecap="round" stroke-linejoin="round"/>
<path d="M432.694 360.222L425.837 360.104C425.548 359.928 425.283 359.715 425.048 359.471C424.689 359.088 425.438 357.717 425.438 357.717C425.438 357.717 422.9 353.749 422.321 350.362C421.742 346.975 419.056 343.644 420.677 343.601C422.298 343.557 422.376 346.471 423.179 346.126C423.58 345.953 423.713 343.285 423.256 340.684C422.801 338.084 421.756 335.551 422.898 335.763C425.18 336.187 426.417 344.523 426.417 344.523C426.417 344.523 426.585 341.836 426.573 339.024C426.562 336.008 426.419 332.854 427.849 332.874C429.083 332.891 429.061 335.664 429.394 338.425C429.632 340.243 429.973 342.045 430.418 343.823C430.418 343.823 431.026 334.706 432.026 335.651C433.026 336.595 432.303 344.699 432.883 344.696C433.465 344.693 434.181 339.021 435.004 339.485C435.829 339.949 434.958 349.695 434.958 349.695C434.958 349.695 435.271 355.409 433.072 358.061C433.072 358.061 434.051 359.808 432.694 360.222Z" fill="#3B30AD"/>
<path d="M416.41 387.634L409.092 392.205L419.382 408.637L426.7 404.066L416.41 387.634Z" fill="#6D64C4" stroke="#7F73FF" stroke-width="1.19242" stroke-linecap="round" stroke-linejoin="round"/>
<path d="M321.581 292.347C321.581 296.703 319.848 300.882 316.763 303.962C313.679 307.043 309.496 308.774 305.133 308.775H227.213C222.85 308.775 218.667 307.044 215.582 303.963C212.497 300.882 210.764 296.704 210.763 292.347C210.763 287.99 212.497 283.811 215.582 280.73C218.666 277.649 222.85 275.918 227.213 275.918H305.133C309.496 275.919 313.679 277.65 316.764 280.731C319.848 283.812 321.581 287.99 321.581 292.347Z" fill="white" stroke="#7F73FF" stroke-width="1.19242" stroke-linecap="round" stroke-linejoin="round"/>
<path d="M300.139 295.689H229.614C226.249 295.687 222.985 294.547 220.352 292.455C217.72 290.363 215.874 287.442 215.117 284.168C213.895 286.433 213.283 288.977 213.34 291.549C213.397 294.122 214.121 296.635 215.442 298.845C216.763 301.054 218.635 302.883 220.875 304.154C223.116 305.424 225.648 306.092 228.224 306.093H298.75C300.991 306.099 303.205 305.598 305.225 304.628C307.245 303.657 309.019 302.243 310.414 300.49C311.808 298.737 312.787 296.692 313.278 294.508C313.768 292.323 313.756 290.056 313.244 287.877C311.969 290.239 310.078 292.213 307.771 293.588C305.463 294.964 302.826 295.69 300.139 295.689Z" fill="#6D64C4"/>
<path d="M356.213 298.398C356.214 302.429 355.419 306.421 353.875 310.145C352.331 313.87 350.067 317.254 347.213 320.105C344.359 322.955 340.97 325.216 337.241 326.759C333.511 328.301 329.514 329.095 325.478 329.095C321.442 329.095 317.445 328.301 313.715 326.759C309.986 325.216 306.598 322.955 303.744 320.105C300.889 317.254 298.626 313.87 297.081 310.145C295.537 306.421 294.743 302.429 294.744 298.398V286.294C294.743 282.263 295.538 278.271 297.082 274.547C298.626 270.822 300.89 267.438 303.744 264.588C306.598 261.737 309.987 259.476 313.716 257.934C317.445 256.391 321.442 255.597 325.478 255.598C329.514 255.597 333.511 256.391 337.24 257.934C340.97 259.476 344.358 261.737 347.212 264.588C350.066 267.438 352.33 270.822 353.875 274.547C355.419 278.271 356.214 282.263 356.213 286.294V298.398Z" fill="white" stroke="#7F73FF" stroke-width="1.19242" stroke-linecap="round" stroke-linejoin="round"/>
<path d="M334.685 312.619C331.112 312.619 327.573 311.917 324.272 310.551C320.97 309.185 317.971 307.184 315.444 304.66C312.917 302.137 310.913 299.141 309.546 295.843C308.178 292.546 307.475 289.012 307.476 285.443V274.727C307.473 271.205 308.158 267.716 309.492 264.455C305.797 266.942 302.772 270.298 300.681 274.227C298.59 278.156 297.498 282.538 297.501 286.988V297.704C297.501 304.003 299.692 310.106 303.699 314.971C307.707 319.835 313.282 323.158 319.471 324.371C325.661 325.584 332.08 324.612 337.631 321.621C343.182 318.631 347.52 313.807 349.904 307.975C345.411 311.01 340.109 312.628 334.685 312.619Z" fill="#6D64C4"/>
<path d="M456.644 315.692C456.644 320.234 455.749 324.732 454.008 328.928C452.268 333.124 449.717 336.937 446.501 340.149C443.285 343.361 439.467 345.908 435.265 347.646C431.063 349.384 426.56 350.278 422.012 350.278H360.542C355.994 350.278 351.49 349.383 347.289 347.645C343.087 345.907 339.269 343.36 336.053 340.148C332.838 336.937 330.287 333.124 328.547 328.928C326.806 324.731 325.911 320.234 325.911 315.692V268.999C325.911 264.458 326.807 259.96 328.547 255.764C330.287 251.568 332.838 247.755 336.054 244.544C339.27 241.332 343.087 238.784 347.289 237.046C351.491 235.308 355.994 234.414 360.542 234.414H422.012C426.56 234.414 431.063 235.308 435.265 237.046C439.467 238.784 443.285 241.331 446.501 244.543C449.717 247.754 452.268 251.567 454.008 255.764C455.748 259.96 456.644 264.457 456.644 268.999V315.692Z" fill="white" stroke="#7F73FF" stroke-width="1.19242" stroke-linecap="round" stroke-linejoin="round"/>
<path d="M433.656 329.843H376.522C372.295 329.843 368.109 329.012 364.204 327.397C360.298 325.781 356.75 323.413 353.761 320.428C350.772 317.443 348.401 313.899 346.783 309.999C345.166 306.099 344.333 301.918 344.334 297.697V254.298C344.331 250.262 345.092 246.263 346.577 242.51C341.284 245.199 336.839 249.298 333.735 254.354C330.631 259.41 328.988 265.225 328.988 271.156V314.555C328.988 318.777 329.82 322.957 331.438 326.857C333.055 330.757 335.426 334.301 338.415 337.286C341.404 340.271 344.953 342.639 348.858 344.255C352.763 345.87 356.949 346.701 361.176 346.701H418.31C424.771 346.701 431.082 344.759 436.422 341.129C441.763 337.498 445.886 332.346 448.256 326.344C443.735 328.649 438.731 329.848 433.656 329.843Z" fill="#6D64C4"/>
<path d="M461.997 211.5C457.07 211.463 452.177 212.327 447.561 214.049C447.498 214.048 447.435 214.042 447.372 214.042C444.553 214.042 441.852 215.791 439.356 218.987C437.123 221.075 435.65 223.49 435.173 226.09C428.676 240.108 424.355 264.987 424.355 293.347C424.355 337.146 434.66 372.652 447.372 372.652C448.6 372.64 449.807 372.325 450.885 371.734C454.507 372.714 458.245 373.204 461.997 373.192C476.909 373.192 489 365.835 489 356.763V227.93C489 218.857 476.909 211.5 461.997 211.5Z" fill="white" stroke="#7F73FF" stroke-width="1.19242" stroke-linecap="round" stroke-linejoin="round"/>
<path d="M408.45 313.696C408.45 314.232 408.237 314.746 407.858 315.124C407.478 315.503 406.964 315.716 406.428 315.716C405.893 315.714 405.38 315.501 405.003 315.122C404.625 314.744 404.413 314.231 404.413 313.696V263.547C404.415 263.013 404.627 262.502 405.005 262.125C405.382 261.748 405.894 261.535 406.428 261.534C406.963 261.534 407.476 261.746 407.856 262.123C408.235 262.5 408.448 263.012 408.45 263.547V313.696Z" fill="#6D64C4"/>
<path d="M393.872 313.696C393.872 314.232 393.659 314.746 393.28 315.124C392.9 315.503 392.386 315.716 391.85 315.716C391.315 315.714 390.802 315.501 390.424 315.122C390.047 314.744 389.835 314.231 389.835 313.696V263.547C389.836 263.013 390.049 262.502 390.427 262.125C390.804 261.748 391.316 261.535 391.85 261.534C392.385 261.534 392.898 261.746 393.277 262.123C393.656 262.5 393.87 263.012 393.872 263.547V313.696Z" fill="#6D64C4"/>
<path d="M501.08 293.347C501.08 337.146 490.775 372.652 478.063 372.652C465.35 372.652 455.046 337.146 455.046 293.347C455.046 249.547 465.35 214.041 478.063 214.041C490.775 214.041 501.08 249.547 501.08 293.347Z" fill="#7F73FF" stroke="#7F73FF" stroke-width="1.19242" stroke-miterlimit="10"/>
<path d="M472.701 305.914C472.701 306.727 472.377 307.506 471.802 308.081C471.226 308.656 470.445 308.979 469.631 308.979C469.228 308.979 468.829 308.9 468.457 308.746C468.085 308.592 467.746 308.366 467.461 308.081C467.176 307.797 466.95 307.459 466.796 307.087C466.642 306.715 466.562 306.316 466.562 305.914V279.094C466.562 278.692 466.642 278.293 466.796 277.921C466.95 277.55 467.176 277.212 467.461 276.927C467.746 276.642 468.085 276.417 468.457 276.263C468.829 276.109 469.228 276.029 469.631 276.029C470.445 276.029 471.226 276.352 471.802 276.927C472.377 277.502 472.701 278.282 472.701 279.094V305.914Z" fill="#3B30AD"/>
<path d="M489.964 295.569C489.964 296.382 489.64 297.162 489.065 297.737C488.489 298.312 487.709 298.634 486.895 298.635C486.081 298.634 485.3 298.311 484.725 297.737C484.149 297.162 483.826 296.382 483.826 295.569V268.75C483.826 267.937 484.149 267.157 484.725 266.582C485.3 266.008 486.081 265.685 486.895 265.685C487.709 265.685 488.489 266.008 489.065 266.582C489.64 267.157 489.964 267.937 489.964 268.75V295.569Z" fill="#3B30AD"/>
<path d="M425.801 596.046L423.403 609.935L410.167 612.042L413.142 598.441" fill="white"/>
<path d="M425.801 596.046L423.403 609.935L410.167 612.042L413.142 598.441" stroke="#7F73FF" stroke-width="1.19242" stroke-linecap="round" stroke-linejoin="round"/>
<path d="M365.389 401.891C365.389 401.891 345.432 404.88 347.029 424.213C347.571 430.768 358.803 487.394 358.803 487.394L411.191 482.414C411.191 482.414 397.12 410.261 388.141 404.282C379.16 398.303 365.389 401.891 365.389 401.891Z" fill="#3B30AD"/>
<path d="M358.803 487.393C358.803 487.393 361.332 503.392 366.985 518.485C375.504 541.227 382.802 552.527 380.755 569.385C377.691 594.639 368.063 608.881 368.063 608.881L390.219 612.424C390.219 612.424 404.029 566.065 401.984 559.424C398.392 528.332 395.078 480.242 395.078 480.242L358.803 487.393Z" fill="#3B30AD"/>
<path d="M407.598 474.538C407.598 474.538 434.035 513.061 435.233 540.267C436.209 562.441 427.431 602.367 427.431 602.367L408.926 601.783C408.926 601.783 415.539 550.994 411.447 538.734C399.473 517.209 381.523 490.97 381.523 490.97L407.598 474.538Z" fill="#3B30AD"/>
<path d="M360.001 410.111C360.001 410.111 373.471 406.075 378.561 419.827C383.649 433.58 379.149 443.25 370.97 444.725C353.901 447.803 341.739 412.204 360.001 410.111Z" fill="#6D64C4"/>
<path d="M392.78 422.229C393.238 423.656 387.242 427.302 387.242 427.302C386.313 424.889 385.189 422.557 383.882 420.326C382.814 418.576 381.597 416.922 380.244 415.381C377.962 413.25 374.968 410.261 371.614 408.78C370.397 408.216 369.13 407.766 367.829 407.434C365.148 406.748 364.977 404.039 367.709 403.572C369.06 403.163 370.469 402.976 371.881 403.017C373.308 403.059 374.725 403.273 376.101 403.653C377.543 403.945 378.948 404.403 380.286 405.016C381.598 405.633 382.853 406.364 384.037 407.202C385.321 407.988 390.219 414.246 392.78 422.229Z" fill="#6D64C4"/>
<path d="M365.88 377.862L363.84 391.03L354.603 382.559L351.322 376.018L355.012 372.537C355.012 372.537 368.955 361.274 371.211 358.714C373.467 356.155 380.846 370.473 374.49 376.412" fill="#3B30AD"/>
<path d="M362.296 388.735L363.444 404.879C363.444 404.879 369.206 407.794 372.499 407.346C374.446 407.088 376.22 406.096 377.457 404.572L372.124 388.835L362.296 388.735Z" fill="white" stroke="#7F73FF" stroke-width="1.19242" stroke-linecap="round" stroke-linejoin="round"/>
<path d="M373.243 373.347L363.364 377.242C363.364 377.242 364.393 381.734 364.179 382.255C364.177 382.256 361.356 383.958 361.354 383.959C359.983 384.909 359.85 387.087 361.058 388.827C362.265 390.566 364.355 391.206 365.726 390.256C366.038 390.036 366.294 389.746 366.474 389.41C369.317 392.283 371.362 393.597 375.119 393.597C382.245 393.597 373.243 373.347 373.243 373.347Z" fill="white" stroke="#7F73FF" stroke-width="0.794946" stroke-linecap="round" stroke-linejoin="round"/>
<path d="M399.515 356.488H393.827C394.489 369.283 387.781 381.108 380.091 390.447L390.176 398.818C399.878 378.331 399.515 356.488 399.515 356.488Z" fill="white" stroke="#7F73FF" stroke-width="1.19242" stroke-linecap="round" stroke-linejoin="round"/>
<path d="M358.151 410.588C356.803 412.18 355.635 413.915 354.666 415.761C352.815 419.24 352.815 424.033 355.81 425.827C365.389 432.405 374.37 421.662 380.162 414.676C381.36 413.223 382.477 411.757 383.527 410.209C384.578 408.662 385.562 407.15 386.483 405.539C387.162 404.426 387.802 403.466 388.409 402.332C389.035 401.169 389.619 399.996 390.176 398.819L380.091 390.447C379.95 390.616 361.198 407.272 358.151 410.588Z" fill="#6D64C4" stroke="#7F73FF" stroke-width="1.19242" stroke-linecap="round" stroke-linejoin="round"/>
<path d="M381.74 384.026L376.219 390.652L391.135 403.05L396.656 396.424L381.74 384.026Z" fill="#6D64C4" stroke="#7F73FF" stroke-width="1.19242" stroke-linecap="round" stroke-linejoin="round"/>
<path d="M405.652 468.652C405.652 468.652 373.671 477.478 356.483 475.36L357.738 490.715C357.738 490.715 390.951 482.559 406.499 474.439C406.774 474.295 406.513 473.566 406.513 473.566L405.652 468.652Z" fill="white" stroke="#7F73FF" stroke-width="1.19242" stroke-linecap="round" stroke-linejoin="round"/>
<path d="M420.477 619.934L419.279 618.44L407.466 617.646L406.457 620.881C406.457 620.881 440.733 624.768 441.331 622.226C441.523 621.414 441.713 620.939 441.65 620.53L420.477 619.934Z" fill="#6D64C4" stroke="#7F73FF" stroke-width="1.19242" stroke-linecap="round" stroke-linejoin="round"/>
<path d="M420.477 619.934L441.65 620.53C441.517 619.66 443.003 618.721 438.113 615.873C435.461 614.329 429.861 614.24 427.861 612.735C425.768 611.136 424.006 609.148 422.672 606.88C422.672 606.88 418.131 612.411 415.587 611.365C413.043 610.317 410.049 609.371 410.049 609.371L407.466 617.646L419.279 618.44L420.477 619.934Z" fill="#6D64C4" stroke="#7F73FF" stroke-width="1.19242" stroke-linecap="round" stroke-linejoin="round"/>
<path d="M379.069 628.759L377.93 627.219L366.157 625.968L365.023 629.161C365.023 629.161 399.122 634.375 399.818 631.858C400.042 631.053 400.25 630.586 400.204 630.175L379.069 628.759Z" fill="#6D64C4" stroke="#7F73FF" stroke-width="1.19242" stroke-linecap="round" stroke-linejoin="round"/>
<path d="M379.069 628.759L400.204 630.175C400.105 629.3 401.626 628.421 396.851 625.385C394.26 623.738 388.667 623.433 386.728 621.851C384.699 620.172 383.016 618.117 381.77 615.799C381.77 615.799 377.018 621.15 374.516 620.006C372.015 618.861 369.061 617.8 369.061 617.8L366.158 625.968L377.93 627.22L379.069 628.759Z" fill="#6D64C4" stroke="#7F73FF" stroke-width="1.19242" stroke-linecap="round" stroke-linejoin="round"/>
<path d="M400.377 359.064L393.408 358.754C393.12 358.566 392.856 358.343 392.624 358.088C392.27 357.69 393.068 356.316 393.068 356.316C393.068 356.316 390.597 352.211 390.102 348.751C389.607 345.291 386.967 341.83 388.617 341.83C390.268 341.83 390.268 344.797 391.093 344.467C391.505 344.303 391.714 341.594 391.322 338.936C390.93 336.28 389.938 333.675 391.093 333.922C393.402 334.416 394.429 342.926 394.429 342.926C394.429 342.926 394.674 340.199 394.74 337.34C394.813 334.273 394.753 331.062 396.207 331.122C397.461 331.173 397.363 333.992 397.625 336.809C397.816 338.663 398.113 340.505 398.516 342.325C398.516 342.325 399.388 333.072 400.377 334.06C401.367 335.048 400.408 343.268 400.999 343.281C401.589 343.293 402.475 337.547 403.301 338.042C404.126 338.535 402.971 348.421 402.971 348.421C402.971 348.421 403.13 354.241 400.821 356.876C400.821 356.876 401.768 358.679 400.377 359.064Z" fill="#3B30AD"/>
<path d="M391.14 435.887C391.875 437.796 391.83 439.59 391.039 439.894C390.248 440.198 389.011 438.896 388.275 436.987C387.54 435.078 387.586 433.283 388.378 432.979C389.167 432.676 390.404 433.978 391.14 435.887Z" fill="white"/>
<path d="M397.662 431.928C398.396 433.837 398.351 435.631 397.561 435.935C396.77 436.238 395.532 434.937 394.797 433.028C394.063 431.119 394.108 429.324 394.9 429.02C395.689 428.718 396.926 430.019 397.662 431.928Z" fill="white"/>
<path d="M355.948 473.602H368.735C369.753 473.602 370.729 474.005 371.449 474.724C372.168 475.442 372.572 476.417 372.572 477.433V503.23C372.572 504.247 372.168 505.221 371.449 505.94C370.729 506.658 369.754 507.062 368.736 507.062H355.948C354.93 507.062 353.954 506.658 353.235 505.94C352.516 505.221 352.111 504.247 352.111 503.23V477.433C352.111 476.417 352.516 475.442 353.235 474.724C353.955 474.005 354.93 473.602 355.948 473.602Z" fill="#E9DCF6" stroke="#7F73FF" stroke-width="1.19242" stroke-linecap="round" stroke-linejoin="round"/>
<path d="M893.943 529.202C893.857 528.047 893.769 526.958 893.692 525.929C893.612 524.899 893.602 523.932 893.553 523.04C893.511 522.149 893.466 521.326 893.471 520.584C893.455 519.608 893.443 518.789 893.444 518.101C895.145 516.432 907.343 503.501 897.315 485.128C897.315 485.128 878.788 498.521 893.11 518.093C893.005 518.769 892.889 519.586 892.778 520.547C892.59 522.033 892.451 523.845 892.313 525.93C892.267 526.97 892.223 528.081 892.177 529.249C892.106 530.423 892.285 531.647 892.337 532.93C892.409 533.928 892.466 534.971 892.542 536.036C891.856 535.134 890.951 533.948 890.039 532.754C889.582 532.156 889.124 531.552 888.691 530.995C888.524 530.792 888.365 530.595 888.208 530.402C890.98 504.945 872.524 501.353 872.524 501.353C872.978 528.195 883.861 530.522 887.22 530.598C887.464 530.901 887.726 531.219 888.004 531.558C888.432 532.116 888.891 532.712 889.34 533.305C890.252 534.497 891.159 535.687 891.84 536.583C891.94 536.687 891.981 536.821 892.092 536.897C892.197 536.979 892.299 537.054 892.391 537.129C892.493 537.203 892.563 537.256 892.646 537.321C892.781 538.573 892.923 539.855 893.062 541.178C893.146 541.909 893.208 542.65 893.314 543.397C893.43 544.14 893.55 544.894 893.666 545.656C893.91 547.18 894.157 548.738 894.407 550.319C894.717 551.912 895.012 553.476 895.373 555.095C895.545 555.86 895.727 556.634 895.904 557.405C895.802 557.201 895.689 557.002 895.565 556.81C895.348 556.448 895.127 556.083 894.903 555.714C894.464 554.982 894.021 554.244 893.606 553.555C893.153 552.887 892.73 552.265 892.368 551.728C892.289 551.598 892.202 551.473 892.108 551.353C891.997 551.249 891.888 551.157 891.792 551.062C891.699 550.979 891.622 550.925 891.538 550.854C890.996 546.898 887.654 531.282 868.387 527.749C868.387 527.749 867.155 550.525 891.345 551.751C891.361 551.792 891.378 551.829 891.39 551.872C891.466 552.003 891.551 552.128 891.644 552.246C892.002 552.771 892.413 553.382 892.861 554.036C893.265 554.715 893.706 555.437 894.141 556.169C894.357 556.53 894.577 556.892 894.793 557.249C895.006 557.594 895.198 557.951 895.37 558.318C895.724 559.032 896.049 559.695 896.333 560.26C896.388 560.402 896.458 560.537 896.542 560.664C896.598 560.733 896.652 560.796 896.708 560.864C897.411 563.826 898.124 566.811 898.651 569.821C898.982 571.474 899.176 573.142 899.404 574.795C899.51 575.624 899.549 576.46 899.625 577.283C899.686 578.112 899.778 578.938 899.774 579.763C899.776 579.951 899.78 580.13 899.782 580.32C899.726 580.208 899.672 580.095 899.608 579.981C899.341 579.46 899.047 578.953 898.727 578.464C898.425 577.931 898.025 577.442 897.662 576.911C897.263 576.414 896.857 575.901 896.41 575.425C895.977 575.01 895.571 574.559 895.101 574.183C895.216 574.144 895.324 574.121 895.438 574.084C895.438 574.084 889.145 555.277 868.754 558.785C868.754 558.785 873.548 580.295 894.078 574.485C894.191 574.579 894.303 574.667 894.413 574.759C894.887 575.156 895.335 575.581 895.757 576.032C896.183 576.484 896.569 576.976 896.955 577.45C897.302 577.956 897.685 578.425 897.974 578.938C898.292 579.43 898.576 579.919 898.822 580.397C899.086 580.868 899.289 581.331 899.492 581.754C899.604 581.964 899.647 582.189 899.763 582.372C899.781 582.398 899.794 582.427 899.81 582.453C899.815 583.196 899.812 583.933 899.759 584.668C899.723 585.475 899.695 586.276 899.66 587.074C899.591 587.871 899.495 588.663 899.416 589.443C899.338 590.228 899.255 591.002 899.174 591.772C899.054 592.539 898.932 593.297 898.809 594.045C898.558 595.545 898.351 597.014 898.009 598.422C897.692 599.835 897.392 601.211 897.099 602.546C897.013 602.857 896.931 603.163 896.844 603.47C896.772 603.171 896.691 602.87 896.592 602.573C896.206 601.37 895.649 600.229 894.94 599.182C894.864 599.086 894.83 598.955 894.732 598.883C894.636 598.803 894.542 598.736 894.457 598.67C894.338 598.584 894.242 598.524 894.142 598.457C893.96 596.371 892.042 581.087 875.119 579.349C875.119 579.349 874.033 599.379 893.773 598.705C893.815 598.822 893.856 598.939 893.905 599.081C893.94 599.178 893.975 599.285 894.012 599.395C894.051 599.499 894.151 599.573 894.206 599.68C894.868 600.656 895.387 601.722 895.748 602.844C895.945 603.438 896.086 604.049 896.169 604.67C896.215 604.952 896.244 605.238 896.257 605.524C896.258 605.567 896.259 605.602 896.257 605.643C896.193 605.883 896.131 606.122 896.067 606.358C895.898 606.965 895.734 607.567 895.571 608.153C895.4 608.73 895.203 609.29 895.072 609.854C894.793 610.979 894.529 612.042 894.278 613.045C893.805 615.06 893.286 616.785 892.87 618.213C892.047 621.074 891.607 622.726 891.607 622.726C891.607 622.726 892.307 621.176 893.495 618.439C894.086 617.064 894.823 615.406 895.546 613.452C895.808 612.786 896.081 612.077 896.366 611.349C896.429 611.318 896.483 611.293 896.555 611.258C896.653 611.209 896.762 611.156 896.875 611.099C896.989 611.051 897.054 610.928 897.164 610.849C897.364 610.65 897.58 610.468 897.811 610.306C898.059 610.138 898.326 609.959 898.598 609.775C898.875 609.59 899.145 609.384 899.443 609.205C899.75 609.056 900.065 608.893 900.378 608.732C900.681 608.56 900.998 608.414 901.326 608.294C901.649 608.168 901.971 608.05 902.269 607.938C902.567 607.827 902.872 607.737 903.182 607.667C903.475 607.598 903.745 607.501 904.001 607.465C904.128 607.455 904.253 607.433 904.376 607.401C904.433 607.37 904.483 607.347 904.542 607.32C908.028 608.245 924.167 611.442 934.878 594.631C934.878 594.631 914.42 585.036 904.134 606.537C904.038 606.553 903.938 606.585 903.831 606.594C903.556 606.636 903.27 606.733 902.957 606.806C902.63 606.881 902.309 606.977 901.994 607.092C901.667 607.213 901.329 607.34 900.986 607.473C900.641 607.603 900.306 607.757 899.983 607.935C899.651 608.103 899.324 608.273 898.998 608.442C898.681 608.625 898.393 608.841 898.103 609.032C897.817 609.227 897.538 609.418 897.274 609.599C897.148 609.678 897.032 609.768 896.925 609.87C897.257 608.915 897.478 607.879 897.781 606.832C898.116 605.593 898.465 604.306 898.831 602.97C899.123 601.614 899.434 600.218 899.75 598.785C900.099 597.353 900.312 595.851 900.566 594.322C900.687 593.561 900.812 592.787 900.938 592.009C900.983 591.606 901.025 591.194 901.067 590.786C901.115 590.769 901.155 590.75 901.205 590.734C901.289 590.697 901.321 590.601 901.397 590.547C901.917 590.028 902.612 589.337 903.299 588.647C903.993 587.955 904.683 587.262 905.202 586.739C905.243 586.69 905.296 586.656 905.335 586.614C909.772 585.971 924.734 582.432 928.314 563.712C928.314 563.712 905.435 562.306 904.104 586.585C903.669 587.021 903.172 587.522 902.674 588.015C902.157 588.529 901.645 589.042 901.199 589.485C901.278 588.732 901.369 587.974 901.432 587.201C901.467 586.383 901.501 585.557 901.536 584.731C901.655 583.072 901.577 581.393 901.551 579.694C901.552 578.848 901.456 578.002 901.398 577.15C901.319 576.302 901.282 575.442 901.172 574.591C900.997 573.327 900.826 572.057 900.619 570.795C900.643 570.656 900.659 570.516 900.667 570.376C900.762 569.582 900.798 568.655 900.974 567.659C901.133 566.666 901.281 565.605 901.494 564.548C901.876 562.437 902.35 560.338 902.713 558.763C902.766 558.578 902.809 558.39 902.842 558.2C902.847 558.098 902.854 557.999 902.857 557.901C905.076 556.8 921.31 547.972 914.173 528.111C914.173 528.111 891.687 541.949 902.223 557.452C902.216 557.471 902.208 557.49 902.199 557.508C902.127 557.662 902.057 557.823 901.978 557.996C901.908 558.168 901.906 558.368 901.847 558.563C901.477 560.146 901.003 562.254 900.618 564.387C900.401 565.449 900.252 566.528 900.093 567.535C900.084 567.607 900.079 567.678 900.068 567.75C899.52 564.971 898.861 562.243 898.227 559.552C897.833 557.928 897.474 556.317 897.115 554.736C896.76 553.154 896.458 551.529 896.154 549.999C895.908 548.439 895.665 546.898 895.429 545.394C895.308 544.642 895.194 543.897 895.073 543.162C894.972 542.425 894.911 541.692 894.828 540.972C894.69 539.678 894.557 538.425 894.425 537.198C894.471 536.844 894.54 536.493 894.631 536.147C894.729 535.695 894.851 535.249 894.997 534.81C895.131 534.365 895.289 533.928 895.471 533.5C895.628 533.073 895.843 532.673 896.021 532.274C896.38 531.562 896.783 530.873 897.229 530.211C897.315 530.059 897.44 529.946 897.509 529.799C897.576 529.65 897.644 529.505 897.7 529.375C897.703 529.366 897.709 529.36 897.711 529.349C901.244 528.254 912.576 523.586 909.566 509.551C909.566 509.551 893.326 513.361 896.657 529.457C896.608 529.546 896.553 529.631 896.491 529.711C896.024 530.405 895.601 531.127 895.225 531.874C895.036 532.296 894.815 532.711 894.648 533.164C894.483 533.558 894.34 533.962 894.211 534.374C894.18 533.851 894.152 533.335 894.118 532.83C894.018 531.564 894.013 530.354 893.943 529.202Z" fill="#7F73FF"/>
<path d="M255.792 445.908C255.792 446.455 255.63 446.991 255.325 447.446C255.02 447.902 254.587 448.257 254.08 448.466C253.574 448.676 253.016 448.731 252.478 448.624C251.94 448.517 251.446 448.253 251.059 447.866C250.671 447.479 250.407 446.985 250.3 446.448C250.193 445.911 250.248 445.354 250.457 444.848C250.667 444.342 251.023 443.91 251.479 443.605C251.935 443.301 252.471 443.139 253.019 443.139C253.755 443.139 254.46 443.43 254.98 443.95C255.5 444.469 255.792 445.173 255.792 445.908Z" fill="#6D64C4"/>
<path d="M271.566 445.908C271.566 446.455 271.404 446.991 271.099 447.446C270.795 447.902 270.361 448.257 269.855 448.466C269.348 448.676 268.791 448.731 268.253 448.624C267.715 448.517 267.221 448.253 266.833 447.866C266.445 447.479 266.181 446.985 266.074 446.448C265.967 445.911 266.022 445.354 266.232 444.848C266.442 444.342 266.797 443.91 267.253 443.605C267.709 443.301 268.245 443.139 268.794 443.139C269.529 443.139 270.234 443.43 270.754 443.95C271.274 444.469 271.566 445.173 271.566 445.908Z" fill="#6D64C4"/>
<path d="M287.342 445.908C287.342 446.456 287.179 446.991 286.874 447.446C286.57 447.902 286.137 448.257 285.63 448.466C285.123 448.676 284.565 448.731 284.027 448.624C283.489 448.517 282.995 448.253 282.608 447.866C282.22 447.478 281.956 446.985 281.849 446.447C281.742 445.91 281.797 445.353 282.007 444.847C282.218 444.341 282.573 443.909 283.029 443.605C283.486 443.301 284.022 443.138 284.57 443.139C284.934 443.139 285.295 443.21 285.631 443.35C285.967 443.489 286.273 443.693 286.53 443.95C286.788 444.207 286.992 444.512 287.131 444.848C287.27 445.184 287.342 445.544 287.342 445.908Z" fill="#6D64C4"/>
<path d="M303.118 445.908C303.118 446.455 302.955 446.991 302.65 447.446C302.346 447.902 301.913 448.257 301.406 448.466C300.899 448.676 300.342 448.731 299.804 448.624C299.266 448.517 298.772 448.253 298.384 447.866C297.997 447.479 297.732 446.985 297.625 446.448C297.518 445.911 297.573 445.354 297.783 444.848C297.993 444.342 298.349 443.91 298.805 443.605C299.261 443.301 299.797 443.139 300.345 443.139C300.709 443.139 301.07 443.21 301.406 443.349C301.743 443.488 302.048 443.692 302.306 443.949C302.563 444.207 302.768 444.512 302.907 444.848C303.046 445.184 303.118 445.544 303.118 445.908Z" fill="#6D64C4"/>
<path d="M318.894 445.908C318.894 446.455 318.732 446.991 318.427 447.446C318.122 447.902 317.689 448.257 317.183 448.466C316.676 448.676 316.118 448.731 315.581 448.624C315.043 448.517 314.549 448.253 314.161 447.866C313.773 447.479 313.509 446.985 313.402 446.448C313.295 445.911 313.35 445.354 313.56 444.848C313.77 444.342 314.125 443.909 314.581 443.605C315.037 443.301 315.573 443.139 316.122 443.139C316.857 443.139 317.562 443.431 318.082 443.95C318.602 444.469 318.894 445.173 318.894 445.908Z" fill="#6D64C4"/>
<path d="M334.669 445.908C334.669 446.456 334.507 446.991 334.202 447.446C333.897 447.902 333.464 448.257 332.957 448.466C332.45 448.676 331.893 448.731 331.355 448.624C330.817 448.517 330.323 448.253 329.935 447.866C329.547 447.478 329.283 446.985 329.176 446.447C329.07 445.91 329.125 445.353 329.335 444.847C329.545 444.341 329.901 443.909 330.357 443.605C330.813 443.301 331.349 443.138 331.898 443.139C332.633 443.139 333.338 443.431 333.857 443.95C334.377 444.469 334.669 445.174 334.669 445.908Z" fill="#6D64C4"/>
<path d="M255.792 463.139C255.792 463.687 255.63 464.222 255.325 464.678C255.021 465.134 254.588 465.489 254.081 465.699C253.575 465.908 253.017 465.963 252.479 465.857C251.941 465.75 251.447 465.486 251.059 465.099C250.671 464.712 250.407 464.218 250.3 463.681C250.193 463.144 250.248 462.587 250.457 462.081C250.667 461.575 251.023 461.142 251.479 460.838C251.935 460.534 252.471 460.371 253.019 460.371C253.754 460.372 254.459 460.663 254.979 461.182C255.499 461.701 255.791 462.405 255.792 463.139Z" fill="#6D64C4"/>
<path d="M271.567 463.139C271.567 463.687 271.405 464.222 271.1 464.678C270.796 465.134 270.363 465.489 269.856 465.699C269.349 465.908 268.792 465.963 268.254 465.857C267.716 465.75 267.222 465.486 266.834 465.099C266.446 464.712 266.181 464.218 266.074 463.681C265.967 463.144 266.022 462.587 266.232 462.081C266.442 461.575 266.797 461.142 267.253 460.838C267.709 460.534 268.246 460.371 268.794 460.371C269.529 460.372 270.234 460.663 270.754 461.182C271.274 461.701 271.566 462.405 271.567 463.139Z" fill="#6D64C4"/>
<path d="M287.342 463.139C287.342 463.687 287.18 464.222 286.875 464.678C286.57 465.134 286.137 465.489 285.631 465.699C285.124 465.908 284.566 465.963 284.028 465.857C283.49 465.75 282.996 465.486 282.608 465.099C282.22 464.711 281.956 464.218 281.849 463.68C281.742 463.143 281.797 462.586 282.007 462.08C282.217 461.574 282.573 461.141 283.029 460.837C283.486 460.533 284.022 460.371 284.57 460.371C285.305 460.372 286.01 460.664 286.529 461.182C287.049 461.701 287.341 462.405 287.342 463.139Z" fill="#6D64C4"/>
<path d="M303.118 463.139C303.118 463.687 302.956 464.222 302.651 464.678C302.347 465.133 301.914 465.489 301.407 465.698C300.9 465.908 300.343 465.963 299.805 465.856C299.267 465.75 298.773 465.486 298.385 465.099C297.997 464.712 297.733 464.218 297.626 463.681C297.518 463.144 297.573 462.587 297.783 462.081C297.993 461.575 298.348 461.142 298.804 460.838C299.26 460.534 299.797 460.371 300.345 460.371C301.08 460.371 301.785 460.663 302.305 461.182C302.825 461.701 303.117 462.405 303.118 463.139Z" fill="#6D64C4"/>
<path d="M318.894 463.139C318.895 463.687 318.732 464.222 318.428 464.678C318.123 465.133 317.69 465.489 317.183 465.698C316.677 465.908 316.119 465.963 315.581 465.856C315.043 465.75 314.549 465.486 314.161 465.099C313.773 464.712 313.509 464.218 313.402 463.681C313.295 463.144 313.35 462.587 313.56 462.081C313.77 461.575 314.125 461.142 314.581 460.838C315.037 460.533 315.573 460.371 316.122 460.371C316.857 460.372 317.561 460.663 318.081 461.182C318.601 461.701 318.893 462.405 318.894 463.139Z" fill="#6D64C4"/>
<path d="M334.669 463.139C334.669 463.687 334.507 464.222 334.202 464.678C333.897 465.134 333.464 465.489 332.958 465.699C332.451 465.908 331.893 465.963 331.355 465.856C330.817 465.75 330.323 465.486 329.935 465.098C329.547 464.711 329.283 464.217 329.176 463.68C329.069 463.143 329.124 462.586 329.334 462.08C329.545 461.574 329.9 461.141 330.356 460.837C330.813 460.533 331.349 460.371 331.898 460.371C332.632 460.372 333.337 460.664 333.856 461.183C334.376 461.702 334.668 462.405 334.669 463.139Z" fill="#6D64C4"/>
<path d="M255.792 480.373C255.792 480.92 255.629 481.456 255.324 481.911C255.02 482.366 254.586 482.721 254.08 482.931C253.573 483.14 253.015 483.195 252.478 483.088C251.94 482.981 251.446 482.717 251.058 482.33C250.67 481.942 250.406 481.449 250.3 480.912C250.193 480.374 250.248 479.818 250.458 479.312C250.668 478.806 251.023 478.373 251.479 478.069C251.935 477.765 252.471 477.602 253.019 477.603C253.384 477.603 253.744 477.674 254.081 477.813C254.417 477.953 254.723 478.157 254.98 478.414C255.238 478.671 255.442 478.977 255.581 479.313C255.721 479.649 255.792 480.009 255.792 480.373Z" fill="#6D64C4"/>
<path d="M271.567 480.373C271.567 480.92 271.404 481.456 271.099 481.911C270.794 482.366 270.361 482.721 269.854 482.931C269.348 483.14 268.79 483.195 268.252 483.088C267.714 482.981 267.22 482.717 266.833 482.33C266.445 481.942 266.181 481.449 266.074 480.912C265.967 480.374 266.022 479.818 266.232 479.312C266.442 478.806 266.798 478.373 267.254 478.069C267.71 477.765 268.246 477.602 268.794 477.603C269.158 477.603 269.519 477.674 269.855 477.813C270.192 477.953 270.498 478.157 270.755 478.414C271.013 478.671 271.217 478.977 271.356 479.313C271.495 479.649 271.567 480.009 271.567 480.373Z" fill="#6D64C4"/>
<path d="M287.342 480.373C287.342 480.921 287.179 481.456 286.874 481.911C286.569 482.367 286.136 482.721 285.629 482.931C285.122 483.14 284.565 483.195 284.027 483.088C283.489 482.981 282.995 482.717 282.607 482.329C282.22 481.942 281.956 481.448 281.849 480.911C281.742 480.373 281.797 479.817 282.008 479.311C282.218 478.805 282.573 478.372 283.03 478.068C283.486 477.764 284.022 477.602 284.57 477.603C284.935 477.603 285.295 477.674 285.631 477.814C285.968 477.953 286.273 478.157 286.531 478.414C286.788 478.671 286.992 478.977 287.131 479.313C287.271 479.649 287.342 480.009 287.342 480.373Z" fill="#6D64C4"/>
<path d="M303.118 480.373C303.118 480.92 302.955 481.456 302.65 481.911C302.345 482.366 301.912 482.721 301.405 482.93C300.899 483.14 300.341 483.195 299.803 483.088C299.266 482.981 298.772 482.717 298.384 482.329C297.996 481.942 297.732 481.449 297.625 480.912C297.518 480.374 297.573 479.818 297.783 479.312C297.993 478.806 298.349 478.373 298.805 478.069C299.261 477.765 299.797 477.603 300.345 477.603C300.709 477.602 301.07 477.674 301.407 477.813C301.743 477.952 302.049 478.156 302.306 478.414C302.564 478.671 302.768 478.976 302.907 479.313C303.047 479.649 303.118 480.009 303.118 480.373Z" fill="#6D64C4"/>
<path d="M318.894 480.373C318.894 480.92 318.731 481.456 318.426 481.911C318.122 482.366 317.689 482.721 317.182 482.93C316.675 483.14 316.118 483.195 315.58 483.088C315.042 482.981 314.548 482.717 314.16 482.329C313.773 481.942 313.509 481.449 313.402 480.911C313.295 480.374 313.35 479.817 313.56 479.312C313.77 478.806 314.125 478.373 314.581 478.069C315.037 477.765 315.573 477.602 316.122 477.603C316.486 477.603 316.847 477.674 317.183 477.813C317.52 477.953 317.825 478.157 318.083 478.414C318.34 478.671 318.544 478.977 318.684 479.313C318.823 479.649 318.894 480.009 318.894 480.373Z" fill="#6D64C4"/>
<path d="M334.669 480.373C334.669 480.921 334.506 481.456 334.201 481.911C333.896 482.367 333.463 482.721 332.956 482.931C332.45 483.14 331.892 483.195 331.354 483.088C330.816 482.981 330.322 482.717 329.935 482.329C329.547 481.942 329.283 481.448 329.176 480.911C329.07 480.373 329.125 479.817 329.335 479.311C329.545 478.805 329.901 478.372 330.357 478.068C330.813 477.764 331.349 477.602 331.898 477.603C332.262 477.603 332.622 477.674 332.959 477.814C333.295 477.953 333.601 478.157 333.858 478.414C334.115 478.672 334.319 478.977 334.459 479.313C334.598 479.649 334.669 480.009 334.669 480.373Z" fill="#6D64C4"/>
<path d="M255.792 497.605C255.792 498.152 255.63 498.688 255.325 499.143C255.02 499.599 254.587 499.954 254.081 500.164C253.574 500.373 253.017 500.428 252.479 500.321C251.941 500.215 251.447 499.951 251.059 499.564C250.671 499.176 250.407 498.683 250.3 498.146C250.193 497.608 250.248 497.052 250.457 496.545C250.667 496.039 251.023 495.607 251.479 495.303C251.935 494.998 252.471 494.836 253.019 494.836C253.384 494.836 253.744 494.907 254.081 495.047C254.417 495.186 254.723 495.39 254.98 495.647C255.238 495.904 255.442 496.209 255.581 496.545C255.72 496.881 255.792 497.241 255.792 497.605Z" fill="#6D64C4"/>
<path d="M271.566 497.605C271.567 498.152 271.404 498.688 271.099 499.143C270.795 499.599 270.362 499.954 269.855 500.164C269.348 500.373 268.791 500.428 268.253 500.321C267.715 500.215 267.221 499.951 266.833 499.564C266.445 499.176 266.181 498.683 266.074 498.146C265.967 497.608 266.022 497.052 266.232 496.545C266.442 496.039 266.797 495.607 267.253 495.303C267.709 494.998 268.245 494.836 268.794 494.836C269.158 494.836 269.518 494.907 269.855 495.046C270.191 495.186 270.497 495.39 270.754 495.647C271.012 495.904 271.216 496.209 271.355 496.545C271.495 496.881 271.566 497.241 271.566 497.605Z" fill="#6D64C4"/>
<path d="M287.342 497.605C287.342 498.152 287.179 498.688 286.875 499.144C286.57 499.599 286.137 499.954 285.63 500.164C285.123 500.373 284.566 500.428 284.028 500.321C283.49 500.214 282.996 499.95 282.608 499.563C282.22 499.176 281.956 498.682 281.849 498.145C281.742 497.607 281.797 497.051 282.007 496.545C282.218 496.038 282.573 495.606 283.029 495.302C283.486 494.998 284.022 494.836 284.57 494.836C284.934 494.836 285.295 494.908 285.631 495.047C285.968 495.186 286.273 495.39 286.53 495.647C286.788 495.904 286.992 496.209 287.131 496.545C287.27 496.881 287.342 497.241 287.342 497.605Z" fill="#6D64C4"/>
<path d="M303.118 497.605C303.118 498.152 302.955 498.688 302.651 499.143C302.346 499.599 301.913 499.954 301.406 500.163C300.9 500.373 300.342 500.428 299.804 500.321C299.266 500.214 298.772 499.951 298.384 499.563C297.997 499.176 297.732 498.683 297.625 498.145C297.518 497.608 297.573 497.051 297.783 496.545C297.993 496.039 298.348 495.607 298.804 495.303C299.261 494.998 299.797 494.836 300.345 494.836C300.709 494.836 301.07 494.907 301.406 495.046C301.743 495.185 302.048 495.389 302.306 495.646C302.563 495.904 302.768 496.209 302.907 496.545C303.046 496.881 303.118 497.241 303.118 497.605Z" fill="#6D64C4"/>
<path d="M318.894 497.605C318.894 498.152 318.732 498.688 318.427 499.143C318.123 499.599 317.69 499.954 317.183 500.163C316.676 500.373 316.119 500.428 315.581 500.321C315.043 500.214 314.549 499.951 314.161 499.563C313.773 499.176 313.509 498.683 313.402 498.145C313.295 497.608 313.35 497.051 313.56 496.545C313.77 496.039 314.125 495.607 314.581 495.303C315.037 494.998 315.573 494.836 316.122 494.836C316.486 494.836 316.846 494.907 317.183 495.047C317.519 495.186 317.825 495.39 318.082 495.647C318.34 495.904 318.544 496.209 318.683 496.545C318.823 496.881 318.894 497.241 318.894 497.605Z" fill="#6D64C4"/>
<path d="M334.669 497.605C334.669 498.152 334.507 498.688 334.202 499.144C333.897 499.599 333.464 499.954 332.957 500.164C332.451 500.373 331.893 500.428 331.355 500.321C330.817 500.214 330.323 499.95 329.935 499.563C329.547 499.176 329.283 498.682 329.177 498.145C329.07 497.607 329.125 497.051 329.335 496.545C329.545 496.038 329.901 495.606 330.357 495.302C330.813 494.998 331.349 494.836 331.898 494.836C332.633 494.836 333.338 495.128 333.858 495.647C334.377 496.166 334.669 496.871 334.669 497.605Z" fill="#6D64C4"/>
<path d="M664.369 298.942C664.37 299.345 664.25 299.739 664.026 300.074C663.802 300.41 663.483 300.671 663.11 300.825C662.737 300.98 662.327 301.02 661.931 300.941C661.535 300.863 661.171 300.669 660.886 300.384C660.6 300.099 660.406 299.735 660.327 299.34C660.248 298.945 660.289 298.535 660.443 298.162C660.598 297.79 660.86 297.472 661.195 297.248C661.531 297.024 661.925 296.904 662.329 296.904C662.87 296.904 663.389 297.119 663.772 297.501C664.154 297.883 664.369 298.402 664.369 298.942Z" fill="#7F73FF"/>
<path d="M675.979 298.942C675.979 299.345 675.859 299.739 675.635 300.074C675.411 300.409 675.092 300.671 674.719 300.825C674.346 300.979 673.936 301.02 673.54 300.941C673.144 300.862 672.781 300.668 672.495 300.383C672.21 300.098 672.016 299.735 671.937 299.34C671.858 298.944 671.899 298.535 672.053 298.162C672.207 297.79 672.469 297.472 672.805 297.248C673.14 297.024 673.535 296.904 673.938 296.904C674.479 296.904 674.998 297.119 675.381 297.501C675.764 297.883 675.979 298.402 675.979 298.942Z" fill="#7F73FF"/>
<path d="M687.589 298.942C687.589 299.345 687.469 299.739 687.245 300.075C687.02 300.41 686.702 300.671 686.329 300.826C685.956 300.98 685.545 301.02 685.149 300.942C684.753 300.863 684.39 300.669 684.104 300.384C683.819 300.098 683.624 299.735 683.546 299.34C683.467 298.944 683.508 298.534 683.662 298.162C683.817 297.789 684.079 297.471 684.415 297.247C684.75 297.023 685.145 296.904 685.549 296.904C686.09 296.904 686.609 297.119 686.991 297.501C687.374 297.883 687.589 298.402 687.589 298.942Z" fill="#7F73FF"/>
<path d="M699.199 298.942C699.199 299.345 699.079 299.739 698.855 300.075C698.631 300.41 698.312 300.671 697.939 300.825C697.566 300.98 697.156 301.02 696.76 300.941C696.364 300.863 696 300.669 695.715 300.383C695.429 300.098 695.235 299.735 695.156 299.34C695.078 298.944 695.118 298.534 695.273 298.162C695.427 297.79 695.689 297.471 696.025 297.247C696.36 297.024 696.755 296.904 697.159 296.904C697.427 296.904 697.692 296.957 697.939 297.059C698.187 297.162 698.412 297.312 698.601 297.501C698.791 297.69 698.941 297.915 699.043 298.162C699.146 298.409 699.199 298.674 699.199 298.942Z" fill="#7F73FF"/>
<path d="M710.81 298.942C710.81 299.345 710.69 299.739 710.466 300.074C710.242 300.41 709.923 300.671 709.551 300.825C709.178 300.98 708.767 301.02 708.371 300.941C707.976 300.863 707.612 300.669 707.326 300.384C707.041 300.099 706.847 299.736 706.768 299.34C706.689 298.945 706.729 298.535 706.884 298.163C707.038 297.79 707.3 297.472 707.635 297.248C707.971 297.024 708.365 296.904 708.769 296.904C709.31 296.904 709.829 297.119 710.212 297.501C710.595 297.883 710.81 298.402 710.81 298.942Z" fill="#7F73FF"/>
<path d="M722.419 298.942C722.419 299.345 722.3 299.74 722.075 300.075C721.851 300.41 721.532 300.672 721.159 300.826C720.786 300.98 720.376 301.021 719.98 300.942C719.584 300.864 719.22 300.669 718.934 300.384C718.649 300.099 718.455 299.736 718.376 299.34C718.297 298.945 718.338 298.535 718.492 298.162C718.647 297.79 718.909 297.471 719.245 297.247C719.581 297.023 719.975 296.904 720.379 296.904C720.92 296.905 721.439 297.12 721.821 297.502C722.204 297.884 722.419 298.402 722.419 298.942Z" fill="#7F73FF"/>
<path d="M664.369 311.623C664.37 312.026 664.25 312.42 664.026 312.756C663.802 313.091 663.483 313.352 663.11 313.507C662.738 313.661 662.327 313.702 661.931 313.623C661.535 313.545 661.171 313.351 660.886 313.066C660.6 312.78 660.406 312.417 660.327 312.022C660.248 311.626 660.289 311.217 660.443 310.844C660.598 310.472 660.859 310.153 661.195 309.929C661.531 309.705 661.925 309.586 662.329 309.586C662.87 309.586 663.389 309.801 663.771 310.183C664.154 310.565 664.369 311.083 664.369 311.623Z" fill="#7F73FF"/>
<path d="M675.979 311.623C675.979 312.026 675.86 312.42 675.635 312.755C675.411 313.091 675.093 313.352 674.72 313.506C674.347 313.661 673.937 313.701 673.541 313.623C673.145 313.544 672.781 313.35 672.496 313.065C672.21 312.78 672.016 312.417 671.937 312.022C671.858 311.626 671.898 311.217 672.053 310.844C672.207 310.472 672.469 310.153 672.805 309.929C673.14 309.705 673.535 309.586 673.938 309.586C674.479 309.586 674.998 309.801 675.381 310.183C675.763 310.565 675.978 311.083 675.979 311.623Z" fill="#7F73FF"/>
<path d="M687.589 311.623C687.589 312.026 687.469 312.42 687.245 312.756C687.021 313.091 686.702 313.353 686.329 313.507C685.956 313.662 685.546 313.702 685.15 313.624C684.754 313.545 684.39 313.351 684.104 313.066C683.819 312.78 683.624 312.417 683.546 312.022C683.467 311.626 683.508 311.216 683.662 310.844C683.817 310.471 684.079 310.153 684.415 309.929C684.75 309.705 685.145 309.586 685.549 309.586C686.09 309.586 686.608 309.801 686.991 310.183C687.373 310.565 687.588 311.083 687.589 311.623Z" fill="#7F73FF"/>
<path d="M699.199 311.623C699.199 312.026 699.079 312.42 698.855 312.756C698.631 313.091 698.312 313.352 697.94 313.507C697.567 313.661 697.156 313.702 696.76 313.623C696.364 313.545 696.001 313.35 695.715 313.065C695.43 312.78 695.235 312.417 695.156 312.022C695.078 311.626 695.118 311.216 695.273 310.844C695.427 310.471 695.689 310.153 696.025 309.929C696.36 309.705 696.755 309.586 697.159 309.586C697.7 309.586 698.218 309.801 698.601 310.183C698.983 310.565 699.198 311.083 699.199 311.623Z" fill="#7F73FF"/>
<path d="M710.81 311.623C710.81 312.026 710.691 312.42 710.467 312.755C710.243 313.091 709.924 313.352 709.551 313.507C709.178 313.661 708.768 313.702 708.372 313.623C707.976 313.545 707.612 313.351 707.327 313.066C707.041 312.781 706.847 312.418 706.768 312.022C706.689 311.627 706.729 311.217 706.884 310.845C707.038 310.472 707.299 310.154 707.635 309.93C707.971 309.706 708.365 309.586 708.769 309.586C709.31 309.586 709.829 309.801 710.211 310.183C710.594 310.565 710.809 311.083 710.81 311.623Z" fill="#7F73FF"/>
<path d="M722.419 311.623C722.419 312.026 722.3 312.421 722.076 312.756C721.852 313.091 721.533 313.353 721.16 313.507C720.787 313.662 720.376 313.702 719.98 313.624C719.584 313.545 719.22 313.351 718.935 313.066C718.649 312.781 718.455 312.418 718.376 312.022C718.297 311.626 718.338 311.216 718.492 310.844C718.647 310.471 718.909 310.153 719.245 309.929C719.58 309.705 719.975 309.586 720.379 309.586C720.92 309.586 721.438 309.801 721.821 310.183C722.203 310.565 722.418 311.083 722.419 311.623Z" fill="#7F73FF"/>
<path d="M664.369 324.306C664.369 324.709 664.249 325.103 664.025 325.438C663.801 325.773 663.482 326.035 663.109 326.189C662.736 326.343 662.326 326.383 661.93 326.305C661.534 326.226 661.171 326.032 660.885 325.747C660.6 325.462 660.406 325.098 660.327 324.703C660.248 324.308 660.289 323.898 660.443 323.525C660.598 323.153 660.859 322.835 661.195 322.611C661.531 322.387 661.925 322.267 662.329 322.268C662.87 322.268 663.389 322.483 663.772 322.865C664.154 323.247 664.369 323.765 664.369 324.306Z" fill="#7F73FF"/>
<path d="M675.979 324.306C675.979 324.709 675.859 325.103 675.635 325.438C675.41 325.773 675.092 326.034 674.719 326.188C674.346 326.343 673.936 326.383 673.54 326.304C673.144 326.226 672.78 326.031 672.495 325.746C672.21 325.461 672.015 325.098 671.937 324.703C671.858 324.308 671.899 323.898 672.053 323.525C672.208 323.153 672.469 322.835 672.805 322.611C673.14 322.387 673.535 322.268 673.938 322.268C674.48 322.268 674.999 322.482 675.381 322.865C675.764 323.247 675.979 323.765 675.979 324.306Z" fill="#7F73FF"/>
<path d="M687.589 324.306C687.589 324.709 687.469 325.103 687.244 325.438C687.02 325.774 686.701 326.035 686.328 326.189C685.955 326.343 685.545 326.384 685.149 326.305C684.753 326.226 684.389 326.032 684.104 325.747C683.819 325.462 683.624 325.098 683.546 324.703C683.467 324.307 683.508 323.897 683.662 323.525C683.817 323.153 684.079 322.834 684.415 322.61C684.75 322.387 685.145 322.267 685.549 322.268C685.817 322.268 686.082 322.32 686.33 322.423C686.577 322.525 686.802 322.676 686.991 322.865C687.181 323.054 687.331 323.279 687.434 323.526C687.536 323.773 687.589 324.038 687.589 324.306Z" fill="#7F73FF"/>
<path d="M699.199 324.306C699.199 324.709 699.079 325.103 698.855 325.438C698.63 325.773 698.312 326.035 697.939 326.189C697.566 326.343 697.155 326.383 696.759 326.305C696.364 326.226 696 326.032 695.715 325.747C695.429 325.461 695.235 325.098 695.156 324.703C695.078 324.307 695.118 323.898 695.273 323.525C695.427 323.153 695.689 322.835 696.025 322.611C696.36 322.387 696.755 322.267 697.159 322.268C697.427 322.268 697.692 322.32 697.94 322.423C698.187 322.525 698.412 322.675 698.602 322.865C698.791 323.054 698.941 323.279 699.044 323.526C699.146 323.773 699.199 324.038 699.199 324.306Z" fill="#7F73FF"/>
<path d="M710.81 324.306C710.81 324.709 710.69 325.103 710.466 325.438C710.242 325.773 709.923 326.034 709.55 326.189C709.177 326.343 708.767 326.383 708.371 326.305C707.975 326.226 707.612 326.032 707.326 325.747C707.041 325.462 706.846 325.099 706.768 324.704C706.689 324.308 706.729 323.898 706.884 323.526C707.038 323.154 707.3 322.835 707.635 322.611C707.971 322.387 708.365 322.268 708.769 322.268C709.31 322.268 709.829 322.482 710.212 322.865C710.595 323.247 710.81 323.765 710.81 324.306Z" fill="#7F73FF"/>
<path d="M722.419 324.306C722.419 324.709 722.299 325.103 722.075 325.439C721.851 325.774 721.532 326.035 721.159 326.189C720.786 326.344 720.375 326.384 719.979 326.305C719.583 326.227 719.22 326.032 718.934 325.747C718.649 325.462 718.454 325.099 718.376 324.703C718.297 324.308 718.338 323.898 718.492 323.525C718.647 323.153 718.909 322.834 719.245 322.611C719.581 322.387 719.975 322.267 720.379 322.268C720.92 322.268 721.439 322.483 721.821 322.865C722.204 323.247 722.419 323.765 722.419 324.306Z" fill="#7F73FF"/>
<path d="M664.369 336.988C664.369 337.391 664.25 337.785 664.025 338.121C663.801 338.456 663.482 338.717 663.109 338.871C662.737 339.026 662.326 339.066 661.93 338.987C661.534 338.909 661.171 338.714 660.885 338.429C660.6 338.144 660.406 337.781 660.327 337.386C660.248 336.99 660.289 336.581 660.443 336.208C660.598 335.836 660.859 335.517 661.195 335.293C661.531 335.07 661.925 334.95 662.329 334.95C662.597 334.95 662.862 335.003 663.11 335.105C663.357 335.208 663.582 335.358 663.772 335.547C663.961 335.736 664.112 335.961 664.214 336.208C664.317 336.455 664.369 336.72 664.369 336.988Z" fill="#7F73FF"/>
<path d="M675.979 336.988C675.979 337.391 675.859 337.785 675.635 338.12C675.411 338.455 675.092 338.717 674.719 338.871C674.346 339.025 673.936 339.066 673.54 338.987C673.144 338.908 672.781 338.714 672.495 338.429C672.21 338.144 672.016 337.781 671.937 337.386C671.858 336.99 671.899 336.581 672.053 336.208C672.208 335.836 672.469 335.517 672.805 335.294C673.14 335.07 673.535 334.95 673.938 334.95C674.206 334.95 674.472 335.003 674.719 335.105C674.967 335.208 675.192 335.358 675.381 335.547C675.571 335.736 675.721 335.961 675.824 336.208C675.926 336.455 675.979 336.72 675.979 336.988Z" fill="#7F73FF"/>
<path d="M687.589 336.988C687.589 337.391 687.469 337.786 687.245 338.121C687.02 338.456 686.702 338.717 686.329 338.872C685.956 339.026 685.545 339.066 685.149 338.988C684.753 338.909 684.389 338.715 684.104 338.429C683.819 338.144 683.624 337.781 683.546 337.385C683.467 336.99 683.508 336.58 683.662 336.208C683.817 335.835 684.079 335.517 684.415 335.293C684.75 335.069 685.145 334.95 685.549 334.95C685.817 334.95 686.082 335.003 686.33 335.105C686.577 335.208 686.802 335.358 686.992 335.547C687.181 335.736 687.331 335.961 687.434 336.208C687.536 336.456 687.589 336.721 687.589 336.988Z" fill="#7F73FF"/>
<path d="M699.199 336.988C699.199 337.391 699.079 337.785 698.855 338.121C698.631 338.456 698.312 338.717 697.939 338.871C697.566 339.026 697.156 339.066 696.76 338.987C696.364 338.909 696 338.714 695.715 338.429C695.429 338.144 695.235 337.781 695.156 337.386C695.078 336.99 695.118 336.58 695.273 336.208C695.427 335.835 695.689 335.517 696.025 335.293C696.36 335.069 696.755 334.95 697.159 334.95C697.427 334.95 697.692 335.003 697.94 335.105C698.187 335.207 698.412 335.358 698.602 335.547C698.791 335.736 698.941 335.961 699.044 336.208C699.146 336.455 699.199 336.72 699.199 336.988Z" fill="#7F73FF"/>
<path d="M710.81 336.988C710.81 337.391 710.69 337.785 710.466 338.12C710.242 338.456 709.923 338.717 709.55 338.871C709.177 339.025 708.767 339.066 708.371 338.987C707.975 338.909 707.612 338.715 707.326 338.43C707.041 338.145 706.846 337.782 706.768 337.386C706.689 336.991 706.729 336.581 706.884 336.209C707.038 335.836 707.3 335.518 707.635 335.294C707.971 335.07 708.365 334.95 708.769 334.95C709.037 334.95 709.302 335.003 709.55 335.105C709.798 335.207 710.023 335.357 710.212 335.547C710.402 335.736 710.552 335.961 710.655 336.208C710.757 336.455 710.81 336.72 710.81 336.988Z" fill="#7F73FF"/>
<path d="M722.419 336.988C722.419 337.391 722.3 337.786 722.075 338.121C721.851 338.456 721.532 338.718 721.159 338.872C720.786 339.026 720.376 339.067 719.98 338.988C719.584 338.909 719.22 338.715 718.934 338.43C718.649 338.145 718.455 337.781 718.376 337.386C718.297 336.99 718.338 336.58 718.492 336.208C718.647 335.835 718.909 335.517 719.245 335.293C719.581 335.069 719.975 334.95 720.379 334.95C720.92 334.95 721.439 335.165 721.822 335.547C722.204 335.929 722.419 336.448 722.419 336.988Z" fill="#7F73FF"/>
<path d="M489.675 610.71C489.675 610.71 474.15 532.91 488.288 538.17C502.427 543.431 504.367 603.512 497.991 612.095" fill="#7F73FF"/>
<path d="M489.675 610.71C489.675 610.71 474.15 532.91 488.288 538.17C502.427 543.431 504.367 603.512 497.991 612.095" stroke="#7F73FF" stroke-width="1.19242" stroke-miterlimit="10"/>
<path d="M488.169 613.574C488.169 613.574 485.405 581.806 470.192 583.462C454.978 585.122 477.107 611.087 480.978 613.574" fill="#6D64C4"/>
<path d="M488.169 613.574C488.169 613.574 485.405 581.806 470.192 583.462C454.978 585.122 477.107 611.087 480.978 613.574" stroke="#7F73FF" stroke-width="1.19242" stroke-linecap="round" stroke-linejoin="round"/>
<path d="M470.467 570.479C470.467 570.479 466.318 582.911 477.382 580.701C488.448 578.49 485.231 578.075 485.231 578.075" fill="#6D64C4"/>
<path d="M470.467 570.479C470.467 570.479 466.318 582.911 477.382 580.701C488.448 578.49 485.231 578.075 485.231 578.075" stroke="#7F73FF" stroke-width="1.19242" stroke-miterlimit="10"/>
<path d="M491.489 613.296C491.489 613.296 487.892 565.783 482.638 563.849C477.382 561.916 468.532 566.06 470.467 570.479C472.404 574.899 485.405 613.574 485.405 613.574" fill="#E9DCF6"/>
<path d="M491.489 613.296C491.489 613.296 487.892 565.783 482.638 563.849C477.382 561.916 468.532 566.06 470.467 570.479C472.404 574.899 485.405 613.574 485.405 613.574" stroke="#7F73FF" stroke-width="1.19242" stroke-linecap="round" stroke-linejoin="round"/>
<path d="M522.941 561.151C522.941 561.151 526.545 576.102 519.615 581.086C512.684 586.068 507.418 576.933 507.418 576.933L506.309 560.598" fill="#6D64C4"/>
<path d="M522.941 561.151C522.941 561.151 526.545 576.102 519.615 581.086C512.684 586.068 507.418 576.933 507.418 576.933L506.309 560.598" stroke="#7F73FF" stroke-width="1.19242" stroke-miterlimit="10"/>
<path d="M494.387 612.371C494.387 612.371 498.269 549.246 511.853 553.121C525.436 556.999 522.941 564.473 522.941 564.473C522.941 564.473 519.615 561.429 517.675 565.303C515.734 569.181 505.753 613.48 505.753 613.48" fill="#E9DCF6"/>
<path d="M494.387 612.371C494.387 612.371 498.269 549.246 511.853 553.121C525.436 556.999 522.941 564.473 522.941 564.473C522.941 564.473 519.615 561.429 517.675 565.303C515.734 569.181 505.753 613.48 505.753 613.48" stroke="#7F73FF" stroke-width="1.19242" stroke-linecap="round" stroke-linejoin="round"/>
<path d="M500.503 612.494C500.503 612.494 506.053 581.092 521.062 584.079C536.07 587.065 511.743 610.988 507.666 613.126" fill="#6D64C4"/>
<path d="M500.503 612.494C500.503 612.494 506.053 581.092 521.062 584.079C536.07 587.065 511.743 610.988 507.666 613.126" stroke="#7F73FF" stroke-width="1.19242" stroke-miterlimit="10"/>
<path d="M488.011 542.047C488.011 542.047 495.295 587.439 492.799 612.357" stroke="#7F73FF" stroke-width="0.794946" stroke-linecap="round" stroke-linejoin="round"/>
<path d="M477.476 566.412C477.476 566.412 486.901 599.358 487.734 610.71" stroke="#7F73FF" stroke-width="0.794946" stroke-linecap="round" stroke-linejoin="round"/>
<path d="M469.991 587.73C469.991 587.73 481.079 604.343 482.743 611.541" stroke="#7F73FF" stroke-width="0.794946" stroke-linecap="round" stroke-linejoin="round"/>
<path d="M512.407 557.552C512.407 557.552 501.04 591.605 497.991 610.157" stroke="#7F73FF" stroke-width="0.794946" stroke-linecap="round" stroke-linejoin="round"/>
<path d="M503.391 612.17L503.124 612.02C509.433 600.788 518.296 589.138 518.384 589.021L518.627 589.207C518.538 589.323 509.69 600.958 503.391 612.17Z" stroke="#7F73FF" stroke-width="0.794946" stroke-linecap="round" stroke-linejoin="round"/>
<path d="M518.507 610.99H472.671V621.232H518.507V610.99Z" fill="#7F73FF" stroke="#7F73FF" stroke-width="1.19242" stroke-miterlimit="10"/>
<path d="M881.006 462.137V456.081H876.152C875.757 454.092 874.973 452.202 873.843 450.517L877.276 447.089L872.988 442.806L869.556 446.234C867.869 445.106 865.976 444.322 863.985 443.928V439.082H857.921V443.928C855.929 444.322 854.036 445.106 852.349 446.234L848.917 442.806L844.628 447.089L848.061 450.517C846.932 452.202 846.147 454.093 845.752 456.081H840.898V462.137H845.752C846.147 464.125 846.932 466.016 848.061 467.701L844.628 471.129L848.917 475.412L852.349 471.984C854.036 473.112 855.929 473.896 857.921 474.291V479.136H863.985V474.291C865.976 473.896 867.869 473.112 869.556 471.984L872.988 475.412L877.276 471.129L873.843 467.701C874.973 466.016 875.757 464.126 876.152 462.137H881.006ZM860.953 467.693C859.253 467.693 857.591 467.19 856.178 466.247C854.764 465.304 853.662 463.963 853.011 462.395C852.361 460.826 852.19 459.1 852.522 457.435C852.853 455.77 853.672 454.241 854.874 453.04C856.076 451.84 857.607 451.022 859.274 450.691C860.942 450.359 862.67 450.529 864.24 451.179C865.811 451.829 867.153 452.929 868.098 454.34C869.042 455.752 869.546 457.411 869.546 459.109C869.546 461.385 868.641 463.568 867.029 465.178C865.418 466.788 863.232 467.692 860.953 467.693Z" fill="#6D64C4"/>
<path d="M686.025 302.861V298.614H682.622C682.345 297.22 681.795 295.894 681.003 294.713L683.41 292.309L680.403 289.306L677.996 291.709C676.814 290.918 675.486 290.369 674.09 290.092V286.694H669.838V290.092C668.441 290.369 667.114 290.918 665.931 291.709L663.524 289.306L660.517 292.309L662.925 294.713C662.132 295.894 661.582 297.22 661.305 298.614H657.902V302.861H661.305C661.582 304.255 662.132 305.581 662.925 306.762L660.517 309.166L663.524 312.169L665.931 309.766C667.114 310.556 668.441 311.106 669.838 311.383V314.781H674.09V311.383C675.486 311.106 676.813 310.556 677.996 309.766L680.403 312.169L683.41 309.166L681.003 306.762C681.795 305.581 682.345 304.255 682.622 302.861H686.025ZM671.964 306.756C670.772 306.756 669.607 306.403 668.616 305.742C667.625 305.081 666.852 304.141 666.396 303.041C665.94 301.941 665.82 300.731 666.053 299.564C666.285 298.396 666.859 297.324 667.702 296.482C668.545 295.64 669.618 295.067 670.788 294.834C671.957 294.602 673.168 294.721 674.27 295.177C675.371 295.632 676.312 296.404 676.974 297.393C677.637 298.383 677.99 299.547 677.99 300.737C677.99 302.333 677.355 303.864 676.225 304.993C675.095 306.122 673.562 306.756 671.964 306.756Z" fill="#7F73FF"/>
<path d="M687.332 579.465C687.333 580.885 687.053 582.29 686.509 583.602C685.965 584.913 685.168 586.105 684.163 587.108C683.158 588.112 681.965 588.908 680.652 589.451C679.339 589.994 677.931 590.273 676.51 590.272H598.59C597.169 590.273 595.762 589.993 594.448 589.45C593.135 588.908 591.942 588.111 590.938 587.108C589.933 586.104 589.136 584.913 588.592 583.601C588.049 582.29 587.769 580.884 587.77 579.465C587.769 578.046 588.049 576.64 588.592 575.329C589.136 574.017 589.932 572.825 590.937 571.822C591.942 570.818 593.135 570.022 594.448 569.478C595.761 568.935 597.169 568.656 598.59 568.656H676.51C677.931 568.656 679.339 568.935 680.652 569.478C681.965 570.021 683.159 570.817 684.164 571.821C685.169 572.825 685.966 574.017 686.509 575.328C687.053 576.64 687.333 578.046 687.332 579.465Z" fill="white" stroke="#7F73FF" stroke-width="1.19242" stroke-linecap="round" stroke-linejoin="round"/>
<path d="M687.332 517.209C687.333 518.629 687.053 520.034 686.509 521.346C685.966 522.657 685.168 523.849 684.163 524.853C683.158 525.856 681.965 526.652 680.652 527.195C679.339 527.738 677.931 528.018 676.51 528.017H598.59C597.169 528.018 595.761 527.738 594.448 527.195C593.135 526.652 591.942 525.856 590.937 524.852C589.933 523.849 589.136 522.657 588.592 521.346C588.049 520.034 587.769 518.629 587.77 517.209C587.769 515.79 588.049 514.384 588.592 513.073C589.136 511.762 589.933 510.57 590.938 509.566C591.942 508.563 593.135 507.767 594.448 507.224C595.761 506.681 597.169 506.402 598.59 506.402H676.51C677.931 506.402 679.339 506.681 680.652 507.224C681.965 507.767 683.158 508.563 684.163 509.566C685.168 510.57 685.966 511.761 686.509 513.073C687.053 514.384 687.333 515.79 687.332 517.209Z" fill="white" stroke="#7F73FF" stroke-width="1.19242" stroke-linecap="round" stroke-linejoin="round"/>
<path d="M640.224 520.529C640.225 521.211 640.09 521.886 639.829 522.515C639.568 523.145 639.186 523.717 638.703 524.199C638.221 524.681 637.648 525.063 637.017 525.324C636.387 525.585 635.711 525.719 635.029 525.719H597.62C596.938 525.719 596.262 525.585 595.631 525.324C595.001 525.064 594.428 524.681 593.945 524.199C593.463 523.717 593.08 523.145 592.819 522.515C592.559 521.886 592.424 521.211 592.425 520.529C592.425 519.848 592.559 519.173 592.82 518.543C593.081 517.914 593.463 517.342 593.946 516.86C594.428 516.378 595.001 515.996 595.632 515.735C596.262 515.475 596.938 515.341 597.62 515.341H635.029C635.711 515.341 636.387 515.475 637.017 515.735C637.648 515.996 638.22 516.378 638.703 516.86C639.185 517.342 639.568 517.914 639.829 518.543C640.09 519.173 640.224 519.848 640.224 520.529Z" fill="#6D64C4"/>
<path d="M642.014 582.088C642.014 582.769 641.88 583.444 641.619 584.074C641.358 584.704 640.975 585.276 640.493 585.758C640.01 586.24 639.438 586.622 638.807 586.883C638.177 587.143 637.501 587.277 636.819 587.277H599.409C598.727 587.277 598.051 587.143 597.421 586.883C596.79 586.622 596.217 586.24 595.735 585.758C595.252 585.276 594.87 584.704 594.609 584.074C594.348 583.444 594.214 582.769 594.214 582.088C594.214 581.406 594.348 580.732 594.609 580.102C594.87 579.472 595.253 578.9 595.735 578.418C596.218 577.936 596.79 577.554 597.421 577.294C598.051 577.033 598.727 576.899 599.409 576.899H636.819C637.501 576.899 638.177 577.033 638.807 577.294C639.437 577.554 640.01 577.937 640.493 578.418C640.975 578.9 641.358 579.472 641.619 580.102C641.88 580.732 642.014 581.406 642.014 582.088Z" fill="#6D64C4"/>
<path d="M909.992 542.015C909.992 542.015 1017.47 549.906 1074.12 515.436" stroke="#7F73FF" stroke-width="1.98736" stroke-linecap="round" stroke-linejoin="round"/>
<path d="M851.733 588.16L857.871 601.187L845.531 604.699L839.84 591.48" fill="white"/>
<path d="M851.733 588.16L857.871 601.187L845.531 604.699L839.84 591.48" stroke="#7F73FF" stroke-width="1.19242" stroke-linecap="round" stroke-linejoin="round"/>
<path d="M774.622 596.397L778.075 610.126L765.927 613.255L765.414 597.483" fill="white"/>
<path d="M774.622 596.397L778.075 610.126L765.927 613.255L765.414 597.483" stroke="#7F73FF" stroke-width="1.19242" stroke-linecap="round" stroke-linejoin="round"/>
<path d="M787.33 433.209C787.33 433.209 803.911 443.18 808.583 457.174C813.253 471.169 818.158 532.511 825.864 542.745C833.571 552.979 858.702 586.436 858.702 586.436L839.456 597.483C839.456 597.483 810.684 558.225 803.911 546.855C797.139 535.486 785.929 484.172 785.929 484.172C785.929 484.172 771.449 523.875 770.749 540.202C770.048 556.529 781.719 600.548 781.719 600.548L762.345 601.122C762.345 601.122 750.197 559.736 749.028 538.336C747.861 516.938 762.807 453.965 762.807 453.965" fill="#3B30AD"/>
<path d="M724.706 469.058C728.15 458.229 729.814 445.595 726.725 432.393C717.968 394.957 707.109 412.8 707.109 422.946C707.109 422.946 710.708 444.135 708.773 465.457C711.655 467.516 716.621 469.59 724.706 469.058Z" fill="#6D64C4" stroke="#7F73FF" stroke-width="1.19242" stroke-linecap="round" stroke-linejoin="round"/>
<path d="M708.772 465.458C707.571 478.684 704.243 491.962 696.598 500.266L706.056 502.715C706.056 502.715 718.384 488.932 724.706 469.058C716.621 469.59 711.655 467.517 708.772 465.458Z" fill="white" stroke="#7F73FF" stroke-width="1.19242" stroke-linecap="round" stroke-linejoin="round"/>
<path d="M705.005 422.596C705.005 422.596 708.508 402.304 729.878 405.103C751.247 407.903 787.329 433.093 787.329 433.093C787.329 433.093 774.718 458.983 764.209 459.332C753.699 459.682 705.005 439.04 705.005 423.996" fill="#3B30AD"/>
<path d="M698 501.14L693.97 508.313L685.563 515.31L704.305 516.534L702.552 510.936L704.656 502.54" fill="#6D64C4"/>
<path d="M698 501.14L693.97 508.313L685.563 515.31L704.305 516.534L702.552 510.936L704.656 502.54" stroke="#7F73FF" stroke-width="1.19242" stroke-linecap="round" stroke-linejoin="round"/>
<path d="M729.002 441.75C729.002 441.75 720.069 427.028 723.573 418.397C727.075 409.768 730.419 409.199 730.419 409.199C730.419 409.199 714.99 402.654 711.836 415.773C708.683 428.893 719.981 437.815 719.981 437.815L729.002 441.75Z" fill="#6D64C4"/>
<path d="M732.856 438.399C732.856 438.399 719.719 410.468 741.322 412.567C759.342 414.318 769.474 433.06 766.438 437.842C763.401 442.624 732.856 438.399 732.856 438.399Z" fill="#6D64C4"/>
<path d="M847.273 614.729L848.375 612.777L861.869 609.642L863.645 613.187C863.645 613.187 824.788 624.117 823.618 621.295C823.244 620.393 822.935 619.88 822.93 619.396L847.273 614.729Z" fill="#6D64C4" stroke="#7F73FF" stroke-width="1.19242" stroke-linecap="round" stroke-linejoin="round"/>
<path d="M847.273 614.729L822.93 619.395C822.919 618.365 821.026 617.562 826.137 613.353C828.91 611.069 835.362 609.915 837.388 607.799C839.504 605.56 841.164 602.933 842.279 600.062C842.279 600.062 848.565 605.598 851.305 603.911C854.048 602.224 857.328 600.569 857.328 600.569L861.869 609.641L848.375 612.777L847.273 614.729Z" fill="#6D64C4" stroke="#7F73FF" stroke-width="1.19242" stroke-linecap="round" stroke-linejoin="round"/>
<path d="M766.36 619.803L767.809 618.093L781.653 617.553L782.728 621.37C782.728 621.37 742.505 624.792 741.888 621.798C741.691 620.844 741.485 620.28 741.571 619.804L766.36 619.803Z" fill="#6D64C4" stroke="#7F73FF" stroke-width="1.19242" stroke-linecap="round" stroke-linejoin="round"/>
<path d="M766.36 619.803L741.571 619.804C741.755 618.79 740.048 617.644 745.862 614.472C749.014 612.753 755.569 612.833 757.959 611.137C760.459 609.336 762.585 607.069 764.22 604.459C764.22 604.459 769.351 611.078 772.362 609.938C775.372 608.797 778.904 607.786 778.904 607.786L781.653 617.552L767.809 618.093L766.36 619.803Z" fill="#6D64C4" stroke="#7F73FF" stroke-width="1.19242" stroke-linecap="round" stroke-linejoin="round"/>
<path d="M710.435 412.101L718.932 412.45C718.932 412.45 721.929 416.171 721.295 420.191C720.682 424.083 718.187 426.182 715.515 426.488C712.844 426.795 711.137 420.934 711.137 420.934" fill="white"/>
<path d="M710.435 412.101L718.932 412.45C718.932 412.45 721.929 416.171 721.295 420.191C720.682 424.083 718.187 426.182 715.515 426.488C712.844 426.795 711.137 420.934 711.137 420.934" stroke="#7F73FF" stroke-width="1.19242" stroke-linecap="round" stroke-linejoin="round"/>
<path d="M694.847 420.73C694.847 420.73 705.59 442.189 710.26 436.125C714.932 430.06 713.413 412.8 713.413 412.8C713.413 412.8 704.189 411.401 694.847 420.73Z" fill="white" stroke="#7F73FF" stroke-width="1.19242" stroke-linecap="round" stroke-linejoin="round"/>
<path d="M706.64 419.097L710.26 421.022C710.26 421.022 709.443 418.981 710.669 418.455C711.896 417.931 714.405 419.447 713.763 422.013L716.216 418.164L713.355 410.876" fill="#3B30AD"/>
<path d="M713.763 410.935C713.763 410.935 713.181 400.381 702.846 401.78C696.828 402.594 684.571 413.035 693.679 422.13C693.679 422.13 708.392 425.162 713.763 410.935Z" fill="#3B30AD"/>
<path d="M757.202 458.049C757.202 458.049 788.265 450.585 786.746 433.209L793.402 437.991C793.402 437.991 791.243 447.823 784.309 453.231C777.931 458.207 769.251 460.894 761.99 460.498L757.202 458.049Z" fill="white" stroke="#7F73FF" stroke-width="1.19242" stroke-linecap="round" stroke-linejoin="round"/>
<path d="M704.709 459.615L702.868 468.886L727.667 473.796L729.507 464.525L704.709 459.615Z" fill="#6D64C4" stroke="#7F73FF" stroke-width="1.19242" stroke-linecap="round" stroke-linejoin="round"/>
<path d="M668.437 468.713C663.805 468.678 659.206 469.49 654.868 471.11C654.808 471.109 654.749 471.102 654.688 471.102C652.039 471.102 649.501 472.747 647.155 475.752C645.056 477.713 643.67 479.984 643.222 482.428C637.116 495.605 633.054 518.99 633.054 545.648C633.054 586.818 642.741 620.192 654.688 620.192C655.812 620.192 664.713 620.7 668.437 620.7C682.454 620.7 693.819 613.785 693.819 605.257V484.157C693.819 475.628 682.454 468.713 668.437 468.713Z" fill="white" stroke="#7F73FF" stroke-width="1.19242" stroke-linecap="round" stroke-linejoin="round"/>
<path d="M705.173 545.648C705.173 586.817 695.487 620.192 683.538 620.192C671.589 620.192 661.902 586.817 661.902 545.648C661.902 504.477 671.589 471.102 683.538 471.102C695.487 471.102 705.173 504.477 705.173 545.648Z" fill="#6D64C4" stroke="#7F73FF" stroke-width="1.19242" stroke-miterlimit="10"/>
<path d="M801.905 544.946C801.906 540.588 803.639 536.41 806.724 533.329C809.81 530.248 813.994 528.517 818.357 528.518H896.275C900.638 528.517 904.823 530.248 907.908 533.329C910.993 536.41 912.726 540.588 912.727 544.946C912.726 549.303 910.993 553.482 907.908 556.562C904.823 559.643 900.638 561.374 896.275 561.374H818.357C813.994 561.374 809.81 559.643 806.724 556.562C803.639 553.482 801.906 549.303 801.905 544.946Z" fill="white" stroke="#7F73FF" stroke-width="1.19242" stroke-linecap="round" stroke-linejoin="round"/>
<path d="M902.784 532.368C902.52 535.939 900.914 539.279 898.288 541.717C895.662 544.155 892.209 545.51 888.624 545.512H821.309C818.466 545.516 815.688 544.664 813.338 543.068C813.311 543.415 813.284 543.762 813.284 544.117C813.284 547.881 814.782 551.492 817.447 554.153C820.112 556.815 823.728 558.31 827.497 558.31H894.811C897.852 558.311 900.813 557.337 903.259 555.532C905.704 553.727 907.506 551.186 908.398 548.282C909.291 545.379 909.227 542.266 908.216 539.401C907.205 536.537 905.301 534.072 902.784 532.368Z" fill="#6D64C4"/>
<path d="M767.274 538.894C767.274 534.862 768.068 530.871 769.613 527.146C771.157 523.422 773.421 520.037 776.276 517.187C779.13 514.336 782.518 512.075 786.247 510.533C789.977 508.99 793.974 508.196 798.01 508.196C802.047 508.196 806.043 508.99 809.773 510.532C813.502 512.075 816.89 514.336 819.744 517.187C822.598 520.037 824.862 523.422 826.406 527.146C827.951 530.871 828.745 534.862 828.745 538.894V550.997C828.745 555.028 827.951 559.02 826.407 562.745C824.863 566.469 822.599 569.854 819.745 572.704C816.891 575.555 813.502 577.816 809.773 579.359C806.044 580.901 802.047 581.695 798.01 581.695C793.974 581.695 789.976 580.901 786.247 579.359C782.518 577.816 779.129 575.555 776.275 572.704C773.421 569.854 771.157 566.469 769.613 562.745C768.068 559.02 767.274 555.028 767.274 550.997V538.894Z" fill="white" stroke="#7F73FF" stroke-width="1.19242" stroke-linecap="round" stroke-linejoin="round"/>
<path d="M810.798 562.793C807.155 562.793 803.547 562.077 800.18 560.685C796.814 559.292 793.755 557.251 791.179 554.678C788.602 552.105 786.559 549.05 785.164 545.688C783.77 542.326 783.053 538.722 783.054 535.083V524.158C783.049 520.468 783.785 516.815 785.217 513.414C780.983 515.84 777.466 519.339 775.02 523.558C772.574 527.776 771.287 532.565 771.289 537.44V548.366C771.289 554.764 773.507 560.964 777.564 565.915C781.622 570.866 787.27 574.263 793.55 575.528C799.829 576.794 806.354 575.85 812.016 572.858C817.679 569.865 822.13 565.008 824.615 559.111C820.413 561.529 815.648 562.799 810.798 562.793Z" fill="#6D64C4"/>
<path d="M762.946 487.014H701.476C696.583 487.01 691.745 488.046 687.283 490.053C675.644 515.108 670.273 571.046 687.286 599.839C691.747 601.845 696.584 602.881 701.476 602.877H762.946C767.494 602.878 771.997 601.983 776.199 600.246C780.401 598.508 784.219 595.96 787.435 592.749C790.651 589.537 793.202 585.725 794.942 581.529C796.682 577.332 797.578 572.835 797.578 568.293V521.599C797.578 517.057 796.682 512.56 794.942 508.363C793.201 504.167 790.65 500.354 787.435 497.143C784.219 493.931 780.401 491.384 776.199 489.646C771.997 487.908 767.494 487.013 762.946 487.014Z" fill="white" stroke="#7F73FF" stroke-width="1.19242" stroke-linecap="round" stroke-linejoin="round"/>
<path d="M784.871 581.168H729.631C725.234 581.171 720.888 580.241 716.879 578.439C704.184 556.954 705.364 518.665 712.114 493.396H703.543C699.146 493.393 694.798 494.324 690.789 496.127C680.329 518.643 675.502 568.912 690.791 594.787C694.8 596.589 699.147 597.519 703.543 597.516H758.784C764.411 597.518 769.934 595.996 774.764 593.111C779.594 590.226 783.55 586.087 786.21 581.135C785.765 581.154 785.32 581.168 784.871 581.168Z" fill="#6D64C4"/>
<path d="M749.723 465.197C751.08 457.138 751.615 439.128 748.994 430.293C741.804 406.058 731.168 421.042 731.168 429.994C731.168 429.994 732.351 447.017 731.561 465.89C737.621 466.376 743.718 466.143 749.723 465.197Z" fill="#6D64C4" stroke="#7F73FF" stroke-width="1.19242" stroke-linecap="round" stroke-linejoin="round"/>
<path d="M731.561 465.891C730.922 481.151 728.945 499.281 720.018 508.978L726.795 510.894C726.795 510.894 745.417 490.765 749.723 465.197C743.718 466.143 737.621 466.376 731.561 465.891Z" fill="white" stroke="#7F73FF" stroke-width="1.19242" stroke-linecap="round" stroke-linejoin="round"/>
<path d="M752.881 464.151H727.306V474.879H752.881V464.151Z" fill="#6D64C4" stroke="#7F73FF" stroke-width="1.19242" stroke-linecap="round" stroke-linejoin="round"/>
<path d="M728.144 508.711L720.794 505.857C720.41 505.919 720.035 506.031 719.68 506.189C719.131 506.44 719.329 508.225 719.329 508.225C719.329 508.225 714.9 511.343 712.807 514.697C710.715 518.051 706.403 520.427 708.109 521.177C709.817 521.93 711.172 518.862 711.874 519.578C712.227 519.937 711.206 522.832 709.586 525.403C707.967 527.973 705.752 530.215 707.059 530.485C709.672 531.027 714.622 522.692 714.622 522.692C714.622 522.692 713.629 525.625 712.392 528.61C711.066 531.816 709.538 535.111 711.068 535.711C712.389 536.229 713.574 533.269 715.133 530.474C716.177 528.644 717.326 526.874 718.574 525.175C718.574 525.175 715.25 535.142 716.724 534.571C718.199 534 720.961 525.062 721.578 525.318C722.195 525.573 720.487 531.922 721.566 531.786C722.645 531.65 725.965 520.901 725.965 520.901C725.965 520.901 728.788 514.953 727.603 511.174C727.603 511.174 729.406 509.741 728.144 508.711Z" fill="#3B30AD"/>
<path d="M809.189 448.859C809.461 449.283 809.647 449.756 809.735 450.251C809.824 450.747 809.814 451.255 809.706 451.746C809.598 452.238 809.394 452.703 809.106 453.116C808.818 453.529 808.452 453.881 808.027 454.152L799.304 459.73C798.88 460.001 798.406 460.186 797.91 460.275C797.414 460.363 796.906 460.353 796.413 460.245C795.921 460.138 795.455 459.934 795.042 459.646C794.628 459.359 794.276 458.992 794.004 458.569L782.628 440.822C782.356 440.398 782.171 439.925 782.082 439.43C781.993 438.934 782.003 438.427 782.111 437.935C782.219 437.444 782.423 436.978 782.711 436.565C782.999 436.153 783.366 435.801 783.79 435.529L792.513 429.951C792.938 429.68 793.411 429.495 793.907 429.406C794.403 429.318 794.912 429.328 795.404 429.436C795.896 429.543 796.362 429.747 796.776 430.035C797.189 430.322 797.541 430.689 797.813 431.112L809.189 448.859Z" fill="#6D64C4" stroke="#7F73FF" stroke-width="1.19242" stroke-linecap="round" stroke-linejoin="round"/>
<path d="M787.014 446.776C787.014 446.776 798.01 446.341 802.658 438.138L787.014 446.776Z" fill="#6D64C4"/>
<path d="M787.014 446.776C787.014 446.776 798.01 446.341 802.658 438.138" stroke="#7F73FF" stroke-width="1.19242" stroke-linecap="round" stroke-linejoin="round"/>
<path d="M782.399 380.277C782.399 381.868 782.085 383.444 781.475 384.914C780.866 386.384 779.972 387.72 778.845 388.846C777.718 389.971 776.381 390.863 774.909 391.472C773.437 392.081 771.859 392.395 770.265 392.395H729.82C726.602 392.395 723.516 391.118 721.24 388.845C718.965 386.573 717.687 383.491 717.687 380.277C717.687 377.063 718.965 373.981 721.24 371.708C723.516 369.436 726.602 368.159 729.82 368.159H770.265C771.859 368.159 773.437 368.473 774.909 369.082C776.381 369.69 777.718 370.583 778.845 371.708C779.972 372.834 780.866 374.169 781.475 375.64C782.085 377.11 782.399 378.686 782.399 380.277Z" fill="#3B30AD"/>
<path d="M732.068 380.276H717.687V392.344H732.068V380.276Z" fill="#3B30AD"/>
<path d="M324.396 358.809H265.569C255.823 358.809 247.921 367.801 247.921 378.893C247.921 389.985 255.823 398.977 265.569 398.977H324.396C324.921 398.977 325.44 398.946 325.954 398.895H342.044V378.893C342.044 367.801 334.143 358.809 324.396 358.809Z" fill="#7F73FF"/>
<path d="M740.156 379.877C740.156 380.232 740.051 380.58 739.853 380.875C739.656 381.17 739.375 381.4 739.046 381.536C738.718 381.672 738.357 381.708 738.008 381.638C737.659 381.569 737.339 381.398 737.087 381.147C736.836 380.896 736.665 380.576 736.595 380.228C736.526 379.879 736.562 379.518 736.698 379.19C736.834 378.862 737.064 378.582 737.36 378.385C737.656 378.187 738.003 378.082 738.359 378.082C738.595 378.082 738.829 378.128 739.047 378.219C739.265 378.309 739.463 378.441 739.63 378.608C739.797 378.775 739.929 378.972 740.02 379.19C740.11 379.408 740.156 379.642 740.156 379.877Z" fill="white"/>
<path d="M751.84 379.877C751.84 380.232 751.735 380.58 751.537 380.875C751.34 381.17 751.059 381.4 750.73 381.536C750.402 381.672 750.04 381.707 749.692 381.638C749.343 381.569 749.023 381.398 748.771 381.147C748.52 380.896 748.349 380.576 748.279 380.227C748.21 379.879 748.246 379.518 748.382 379.19C748.518 378.862 748.748 378.582 749.044 378.384C749.34 378.187 749.687 378.082 750.043 378.082C750.279 378.082 750.513 378.128 750.731 378.219C750.949 378.309 751.147 378.441 751.314 378.608C751.481 378.775 751.613 378.973 751.704 379.19C751.794 379.408 751.84 379.642 751.84 379.877Z" fill="white"/>
<path d="M763.524 379.877C763.524 380.232 763.419 380.579 763.221 380.875C763.024 381.17 762.743 381.4 762.415 381.536C762.086 381.672 761.725 381.707 761.376 381.638C761.027 381.568 760.707 381.397 760.456 381.146C760.204 380.895 760.033 380.575 759.964 380.227C759.895 379.879 759.93 379.518 760.066 379.19C760.202 378.862 760.433 378.582 760.729 378.384C761.024 378.187 761.372 378.082 761.727 378.082C761.963 378.082 762.197 378.129 762.415 378.219C762.633 378.309 762.831 378.441 762.998 378.608C763.165 378.775 763.297 378.973 763.388 379.19C763.478 379.408 763.524 379.642 763.524 379.877Z" fill="white"/>
<path d="M278.943 382.622H276.845L275.972 387.958H273.378L274.252 382.622H271.359V380.24H274.643L275.216 376.804H272.336V374.423H275.607L276.506 369.009H279.086L278.2 374.423H280.298L281.197 369.009H283.791L282.892 374.423H285.902V376.804H282.5L281.927 380.24H284.911V382.622H281.536L280.663 387.958H278.07L278.943 382.622ZM277.236 380.24H279.334L279.907 376.804H277.809L277.236 380.24Z" fill="white"/>
<path d="M296.919 382.622H294.821L293.947 387.958H291.354L292.227 382.622H289.334V380.24H292.618L293.192 376.804H290.312V374.423H293.583L294.482 369.009H297.062L296.176 374.423H298.274L299.173 369.009H301.766L300.867 374.423H303.878V376.804H300.476L299.903 380.24H302.887V382.622H299.512L298.639 387.958H296.046L296.919 382.622ZM295.211 380.24H297.31L297.883 376.804H295.785L295.211 380.24Z" fill="white"/>
<path d="M314.894 382.622H312.797L311.923 387.958H309.33L310.203 382.622H307.31V380.24H310.594L311.167 376.804H308.287V374.423H311.558L312.457 369.009H315.038L314.152 374.423H316.25L317.149 369.009H319.742L318.843 374.423H321.853V376.804H318.452L317.879 380.24H320.863V382.622H317.488L316.614 387.958H314.021L314.894 382.622ZM313.187 380.24H315.285L315.859 376.804H313.76L313.187 380.24Z" fill="white"/>
</g>
<defs>
<clipPath id="clip0_825_216">
<rect width="1185" height="852" fill="white"/>
</clipPath>
</defs>
</svg>
