<svg width="16" height="16" viewBox="0 0 16 16" fill="none" xmlns="http://www.w3.org/2000/svg">
<g clip-path="url(#clip0_1_114)">
<path d="M9.82778 14.9101L5.66667 13.4336L2.05 14.851C1.79074 14.956 1.55093 14.9266 1.33056 14.7628C1.11019 14.599 1 14.379 1 14.1029V3.07831C1 2.90769 1.04874 2.75676 1.14622 2.62551C1.2437 2.49427 1.37644 2.39583 1.54444 2.33021L5.16111 1.08994C5.32963 1.03744 5.49815 1.00778 5.66667 1.00096C5.83519 0.994133 6.0037 1.02379 6.17222 1.08994L10.3333 2.56645L13.95 1.149C14.2093 1.04401 14.4491 1.07367 14.6694 1.23799C14.8898 1.40231 15 1.62201 15 1.8971V12.9217C15 13.0923 14.9515 13.2432 14.8546 13.3745C14.7576 13.5057 14.6246 13.6042 14.4556 13.6698L10.8389 14.9101C10.6704 14.9626 10.5019 14.9922 10.3333 14.999C10.1648 15.0059 9.9963 14.9762 9.82778 14.9101ZM9.55556 13.1579V3.94452L6.44444 2.84206V12.0555L9.55556 13.1579ZM11.1111 13.1579L13.4444 12.3705V3.03893L11.1111 3.94452V13.1579ZM2.55556 12.9611L4.88889 12.0555V2.84206L2.55556 3.62954V12.9611Z" fill="#D5D5D8"/>
</g>
<defs>
<clipPath id="clip0_1_114">
<rect width="16" height="16" fill="white"/>
</clipPath>
</defs>
</svg>
