<svg width="24" height="24" viewBox="0 0 24 24" fill="none" xmlns="http://www.w3.org/2000/svg">
<path d="M5 22C4.45 22 3.979 21.804 3.587 21.412C3.195 21.02 2.99934 20.5493 3 20V6C3 5.45 3.196 4.979 3.588 4.587C3.98 4.195 4.45067 3.99933 5 4H6V2H8V4H16V2H18V4H19C19.55 4 20.021 4.196 20.413 4.588C20.805 4.98 21.0007 5.45067 21 6V12H19V10H5V20H12V22H5ZM22.125 17L20 14.875L20.725 14.15C20.9083 13.9667 21.1417 13.875 21.425 13.875C21.7083 13.875 21.9417 13.9667 22.125 14.15L22.85 14.875C23.0333 15.0583 23.125 15.2917 23.125 15.575C23.125 15.8583 23.0333 16.0917 22.85 16.275L22.125 17ZM14 23V20.875L19.3 15.575L21.425 17.7L16.125 23H14ZM5 8H19V6H5V8Z" fill="white"/>
</svg>
