<svg width="15" height="16" viewBox="0 0 15 16" fill="none" xmlns="http://www.w3.org/2000/svg">
<path d="M7.13106 0C7.35826 0.000251296 7.57678 0.0870037 7.74199 0.242532C7.90719 0.39806 8.00661 0.610625 8.01993 0.836795C8.03324 1.06297 7.95945 1.28567 7.81363 1.45941C7.6678 1.63314 7.46096 1.7448 7.23535 1.77156L7.13106 1.77778H2.67415C2.45582 1.77781 2.24509 1.85774 2.08194 2.00241C1.91878 2.14709 1.81455 2.34644 1.78901 2.56267L1.78277 2.66667V13.3333C1.78279 13.5511 1.86295 13.7612 2.00803 13.9239C2.15311 14.0866 2.35303 14.1905 2.56986 14.216L2.67415 14.2222H6.68537C6.91257 14.2225 7.13109 14.3092 7.2963 14.4648C7.4615 14.6203 7.56092 14.8328 7.57423 15.059C7.58755 15.2852 7.51376 15.5079 7.36793 15.6816C7.22211 15.8554 7.01527 15.967 6.78966 15.9938L6.68537 16H2.67415C1.99205 16 1.33572 15.7402 0.83945 15.2735C0.343176 14.8069 0.0444733 14.1688 0.00445702 13.4898L4.15424e-09 13.3333V2.66667C-3.79923e-05 1.98648 0.260574 1.33199 0.728513 0.837101C1.19645 0.342216 1.83634 0.0443489 2.51726 0.00444455L2.67415 0H7.13106ZM12.2182 4.85689L14.739 7.37156C14.9061 7.53825 15 7.7643 15 8C15 8.2357 14.9061 8.46175 14.739 8.62844L12.2182 11.1431C12.0509 11.3098 11.8241 11.4034 11.5877 11.4033C11.3512 11.4032 11.1245 11.3095 10.9573 11.1427C10.7902 10.9759 10.6963 10.7497 10.6964 10.5139C10.6965 10.2781 10.7905 10.052 10.9578 9.88533L11.957 8.88889H7.13106C6.89465 8.88889 6.66793 8.79524 6.50076 8.62854C6.33359 8.46184 6.23968 8.23575 6.23968 8C6.23968 7.76425 6.33359 7.53816 6.50076 7.37146C6.66793 7.20476 6.89465 7.11111 7.13106 7.11111H11.957L10.9578 6.11467C10.7905 5.94799 10.6965 5.72189 10.6964 5.48609C10.6963 5.2503 10.7902 5.02413 10.9573 4.85733C11.1245 4.69054 11.3512 4.59679 11.5877 4.59671C11.8241 4.59663 12.0509 4.69021 12.2182 4.85689Z" fill="white"/>
</svg>
