<svg width="342" height="150" viewBox="0 0 342 150" fill="none" xmlns="http://www.w3.org/2000/svg">
<path d="M153.113 20.6947C158.567 16.2049 166.414 16.1285 171.954 20.5113L230.813 67.077C238.804 73.3987 238.301 85.6769 229.821 91.325L176.194 127.044C171.609 130.097 165.72 130.392 160.853 127.812L96.8738 93.8937C87.4183 88.8809 86.1036 75.8628 94.3658 69.0606L153.113 20.6947Z" fill="url(#paint0_linear_584_191)"/>
<rect x="116" y="35" width="95" height="90" rx="10" fill="url(#paint1_linear_584_191)"/>
<g clip-path="url(#clip0_584_191)">
<path d="M163.605 54.9735C163.503 54.762 163.346 54.584 163.151 54.4596C162.955 54.3352 162.73 54.2693 162.5 54.2693C162.271 54.2693 162.045 54.3352 161.85 54.4596C161.655 54.584 161.497 54.762 161.395 54.9735L156.346 65.4792L145.056 67.1639C144.828 67.1978 144.614 67.2966 144.438 67.449C144.262 67.6014 144.131 67.8013 144.06 68.0262C143.989 68.251 143.981 68.4918 144.036 68.7213C144.091 68.9508 144.208 69.1599 144.373 69.3248L152.542 77.5024L150.613 89.0519C150.575 89.2846 150.6 89.5239 150.687 89.7426C150.774 89.9613 150.918 90.1508 151.104 90.2896C151.29 90.4285 151.51 90.5112 151.739 90.5284C151.969 90.5455 152.198 90.4966 152.402 90.3869L162.5 84.9327L172.599 90.3869C172.803 90.4966 173.032 90.5455 173.261 90.5284C173.491 90.5112 173.711 90.4285 173.897 90.2896C174.083 90.1508 174.227 89.9613 174.314 89.7426C174.4 89.5239 174.426 89.2846 174.387 89.0519L172.458 77.4999L180.628 69.3248C180.793 69.1599 180.909 68.9508 180.965 68.7213C181.02 68.4918 181.012 68.251 180.94 68.0262C180.869 67.8013 180.738 67.6014 180.562 67.449C180.386 67.2966 180.172 67.1978 179.945 67.1639L168.655 65.4792L163.605 54.9735Z" fill="url(#paint2_linear_584_191)"/>
</g>
<path d="M86 82.6955C86 69.8667 101.059 62.9579 110.784 71.3253L180.782 131.557C181.703 132.349 182.782 132.935 183.948 133.277V133.277C193.412 136.051 191.409 150 181.548 150H101C92.7157 150 86 143.284 86 135V82.6955Z" fill="url(#paint3_linear_584_191)"/>
<path d="M117.803 150C121.388 150 124.854 148.716 127.574 146.381L216.229 70.267C225.957 61.9154 241 68.827 241 81.648V135C241 143.284 234.284 150 226 150H86H117.803Z" fill="url(#paint4_linear_584_191)"/>
<path d="M20.625 75C20.6272 75.282 20.5415 75.5577 20.3798 75.7887C20.2181 76.0197 19.9884 76.1946 19.7227 76.2891L14.2708 78.2716L12.2891 83.7227C12.1914 83.9858 12.0156 84.2127 11.7851 84.373C11.5547 84.5333 11.2807 84.6192 11 84.6192C10.7193 84.6192 10.4454 84.5333 10.215 84.373C9.98452 84.2127 9.80865 83.9858 9.71097 83.7227L7.7284 78.2656L2.27738 76.2891C2.01424 76.1914 1.78729 76.0155 1.62702 75.7851C1.46676 75.5546 1.38086 75.2807 1.38086 75C1.38086 74.7193 1.46676 74.4453 1.62702 74.2149C1.78729 73.9845 2.01424 73.8086 2.27738 73.7109L7.73441 71.7284L9.71097 66.2773C9.80865 66.0142 9.98452 65.7873 10.215 65.627C10.4454 65.4667 10.7193 65.3808 11 65.3808C11.2807 65.3808 11.5547 65.4667 11.7851 65.627C12.0156 65.7873 12.1914 66.0142 12.2891 66.2773L14.2717 71.7344L19.7227 73.7109C19.9884 73.8054 20.2181 73.9803 20.3798 74.2113C20.5415 74.4423 20.6272 74.718 20.625 75Z" fill="white"/>
<g clip-path="url(#clip1_584_191)">
<path d="M290.442 113.133C290.499 113.409 290.468 113.696 290.355 113.954C290.241 114.212 290.049 114.428 289.807 114.572L284.843 117.575L283.957 123.307C283.912 123.584 283.784 123.841 283.589 124.043C283.394 124.245 283.142 124.382 282.866 124.436C282.591 124.491 282.306 124.46 282.048 124.347C281.791 124.235 281.575 124.046 281.428 123.807L278.424 118.838L272.693 117.957C272.416 117.912 272.159 117.784 271.957 117.589C271.755 117.394 271.618 117.142 271.564 116.866C271.509 116.591 271.54 116.306 271.653 116.048C271.765 115.791 271.954 115.575 272.193 115.428L277.162 112.424L278.043 106.693C278.088 106.416 278.216 106.159 278.411 105.957C278.606 105.756 278.858 105.618 279.134 105.564C279.409 105.509 279.694 105.54 279.952 105.653C280.209 105.765 280.425 105.954 280.572 106.193L283.576 111.162L289.307 112.043C289.586 112.084 289.845 112.211 290.048 112.406C290.252 112.602 290.39 112.855 290.442 113.133Z" fill="#3DB4FF"/>
</g>
<path d="M26.8751 13C26.8769 13.2307 26.8068 13.4563 26.6745 13.6453C26.5421 13.8343 26.3542 13.9774 26.1368 14.0547L21.6762 15.6768L20.0548 20.1367C19.9749 20.352 19.831 20.5377 19.6425 20.6688C19.4539 20.7999 19.2298 20.8702 19.0001 20.8702C18.7705 20.8702 18.5463 20.7999 18.3578 20.6688C18.1692 20.5377 18.0253 20.352 17.9454 20.1367L16.3233 15.6719L11.8634 14.0547C11.6481 13.9748 11.4624 13.8309 11.3313 13.6423C11.2002 13.4538 11.1299 13.2296 11.1299 13C11.1299 12.7703 11.2002 12.5462 11.3313 12.3577C11.4624 12.1691 11.6481 12.0252 11.8634 11.9453L16.3282 10.3232L17.9454 5.86328C18.0253 5.64798 18.1692 5.46229 18.3578 5.33117C18.5463 5.20004 18.7705 5.12976 19.0001 5.12976C19.2298 5.12976 19.4539 5.20004 19.6425 5.33117C19.831 5.46229 19.9749 5.64798 20.0548 5.86328L21.6769 10.3281L26.1368 11.9453C26.3542 12.0226 26.5421 12.1657 26.6745 12.3547C26.8068 12.5437 26.8769 12.7693 26.8751 13Z" fill="#FDA420"/>
<path d="M301.375 13C301.378 13.3333 301.276 13.659 301.085 13.9321C300.894 14.2051 300.623 14.4118 300.309 14.5234L293.865 16.8665L291.523 23.3086C291.408 23.6196 291.2 23.8878 290.928 24.0772C290.655 24.2666 290.332 24.3681 290 24.3681C289.668 24.3681 289.344 24.2666 289.072 24.0772C288.8 23.8878 288.592 23.6196 288.477 23.3086L286.133 16.8594L279.691 14.5234C279.38 14.408 279.112 14.2002 278.923 13.9278C278.733 13.6555 278.632 13.3317 278.632 13C278.632 12.6683 278.733 12.3445 278.923 12.0722C279.112 11.7998 279.38 11.592 279.691 11.4766L286.141 9.13352L288.477 2.69141C288.592 2.38042 288.8 2.11221 289.072 1.9228C289.344 1.7334 289.668 1.63188 290 1.63188C290.332 1.63188 290.655 1.7334 290.928 1.9228C291.2 2.11221 291.408 2.38042 291.523 2.69141L293.866 9.14062L300.309 11.4766C300.623 11.5882 300.894 11.7949 301.085 12.0679C301.276 12.341 301.378 12.6667 301.375 13Z" fill="white"/>
<path d="M51.9997 119C52.0013 119.205 51.9389 119.406 51.8213 119.574C51.7037 119.742 51.5367 119.869 51.3434 119.937L47.3784 121.379L45.9372 125.344C45.8661 125.535 45.7382 125.7 45.5706 125.817C45.4031 125.933 45.2038 125.996 44.9997 125.996C44.7955 125.996 44.5963 125.933 44.4287 125.817C44.2611 125.7 44.1332 125.535 44.0622 125.344L42.6203 121.375L38.6559 119.937C38.4645 119.866 38.2995 119.739 38.1829 119.571C38.0664 119.403 38.0039 119.204 38.0039 119C38.0039 118.796 38.0664 118.597 38.1829 118.429C38.2995 118.261 38.4645 118.134 38.6559 118.062L42.6247 116.621L44.0622 112.656C44.1332 112.465 44.2611 112.3 44.4287 112.183C44.5963 112.067 44.7955 112.004 44.9997 112.004C45.2038 112.004 45.4031 112.067 45.5706 112.183C45.7382 112.3 45.8661 112.465 45.9372 112.656L47.379 116.625L51.3434 118.062C51.5367 118.131 51.7037 118.258 51.8213 118.426C51.9389 118.594 52.0013 118.795 51.9997 119Z" fill="#A7D287"/>
<g clip-path="url(#clip2_584_191)">
<path d="M118.25 7C118.251 7.15381 118.204 7.30417 118.116 7.43018C118.028 7.5562 117.902 7.6516 117.758 7.70312L114.784 8.78453L113.703 11.7578C113.65 11.9013 113.554 12.0251 113.428 12.1125C113.302 12.2 113.153 12.2468 113 12.2468C112.847 12.2468 112.697 12.2 112.572 12.1125C112.446 12.0251 112.35 11.9013 112.297 11.7578L111.215 8.78125L108.242 7.70312C108.098 7.64985 107.975 7.55392 107.887 7.42823C107.8 7.30253 107.753 7.1531 107.753 7C107.753 6.8469 107.8 6.69746 107.887 6.57177C107.975 6.44608 108.098 6.35015 108.242 6.29687L111.219 5.21547L112.297 2.24218C112.35 2.09865 112.446 1.97486 112.572 1.88745C112.697 1.80003 112.847 1.75317 113 1.75317C113.153 1.75317 113.302 1.80003 113.428 1.88745C113.554 1.97486 113.65 2.09865 113.703 2.24218L114.784 5.21875L117.758 6.29687C117.902 6.3484 118.028 6.4438 118.116 6.56981C118.204 6.69582 118.251 6.84619 118.25 7Z" fill="#A7D287"/>
</g>
<g clip-path="url(#clip3_584_191)">
<path d="M341.062 78.5C341.064 78.6923 341.005 78.8802 340.895 79.0377C340.785 79.1952 340.628 79.3145 340.447 79.3789L336.73 80.7307L335.379 84.4473C335.312 84.6267 335.192 84.7814 335.035 84.8907C334.878 85 334.691 85.0585 334.5 85.0585C334.309 85.0585 334.122 85 333.965 84.8907C333.808 84.7814 333.688 84.6267 333.621 84.4473L332.269 80.7266L328.553 79.3789C328.373 79.3123 328.219 79.1924 328.109 79.0353C328 78.8782 327.941 78.6914 327.941 78.5C327.941 78.3086 328 78.1218 328.109 77.9647C328.219 77.8076 328.373 77.6877 328.553 77.6211L332.273 76.2693L333.621 72.5527C333.688 72.3733 333.808 72.2186 333.965 72.1093C334.122 72 334.309 71.9415 334.5 71.9415C334.691 71.9415 334.878 72 335.035 72.1093C335.192 72.2186 335.312 72.3733 335.379 72.5527L336.731 76.2734L340.447 77.6211C340.628 77.6855 340.785 77.8048 340.895 77.9623C341.005 78.1198 341.064 78.3077 341.062 78.5Z" fill="#CC6326"/>
</g>
<path d="M244.395 58.3655L287.905 13.198L289.301 14.6307L244.395 58.3655Z" fill="white"/>
<path d="M93.4934 49.5106L66.9996 27.4604L68.3661 26L93.4934 49.5106Z" fill="#FF4949"/>
<g clip-path="url(#clip4_584_191)">
<path d="M71.3775 26.6216C71.3505 26.7612 71.2807 26.8888 71.1778 26.9869C71.0748 27.0849 70.9439 27.1484 70.8032 27.1686L67.912 27.6052L66.3898 30.1011C66.3154 30.2214 66.2059 30.316 66.076 30.3722C65.9462 30.4285 65.8023 30.4436 65.6636 30.4157C65.5249 30.3877 65.3981 30.318 65.3002 30.2158C65.2023 30.1137 65.138 29.984 65.116 29.8443L64.68 26.9505L62.1835 25.4309C62.0632 25.3564 61.9686 25.2469 61.9124 25.1171C61.8562 24.9873 61.841 24.8433 61.869 24.7047C61.8969 24.566 61.9667 24.4392 62.0688 24.3413C62.1709 24.2434 62.3006 24.1791 62.4403 24.157L65.3341 23.721L66.8537 21.2246C66.9282 21.1043 67.0377 21.0097 67.1675 20.9534C67.2974 20.8972 67.4413 20.8821 67.58 20.91C67.7187 20.938 67.8455 21.0077 67.9434 21.1098C68.0413 21.212 68.1056 21.3416 68.1276 21.4814L68.5636 24.3752L71.0601 25.8948C71.1819 25.9679 71.278 26.0772 71.3349 26.2075C71.3918 26.3377 71.4067 26.4825 71.3775 26.6216Z" fill="#FF4949"/>
</g>
<defs>
<linearGradient id="paint0_linear_584_191" x1="162" y1="13" x2="162" y2="132" gradientUnits="userSpaceOnUse">
<stop stop-color="#C17A51"/>
<stop offset="1" stop-color="#855032"/>
</linearGradient>
<linearGradient id="paint1_linear_584_191" x1="163.5" y1="35" x2="163.5" y2="125" gradientUnits="userSpaceOnUse">
<stop stop-color="#FEA620"/>
<stop offset="1" stop-color="#DF8212"/>
</linearGradient>
<linearGradient id="paint2_linear_584_191" x1="162.5" y1="54.2693" x2="162.5" y2="90.5317" gradientUnits="userSpaceOnUse">
<stop stop-color="#FEF6D5"/>
<stop offset="1" stop-color="#FCE796"/>
</linearGradient>
<linearGradient id="paint3_linear_584_191" x1="86" y1="62.931" x2="170.016" y2="143.179" gradientUnits="userSpaceOnUse">
<stop stop-color="#B1D895"/>
<stop offset="1" stop-color="#85BD58"/>
</linearGradient>
<linearGradient id="paint4_linear_584_191" x1="164.692" y1="49.8632" x2="164.692" y2="150" gradientUnits="userSpaceOnUse">
<stop stop-color="#9CD168"/>
<stop offset="1" stop-color="#6CAF43"/>
</linearGradient>
<clipPath id="clip0_584_191">
<rect width="37" height="38" fill="white" transform="translate(144 53)"/>
</clipPath>
<clipPath id="clip1_584_191">
<rect width="22" height="22" fill="white" transform="translate(268.075 106.343) rotate(-11.1875)"/>
</clipPath>
<clipPath id="clip2_584_191">
<rect width="12" height="12" fill="white" transform="translate(107 1)"/>
</clipPath>
<clipPath id="clip3_584_191">
<rect width="15" height="15" fill="white" transform="translate(327 71)"/>
</clipPath>
<clipPath id="clip4_584_191">
<rect width="11.0889" height="11.0889" fill="white" transform="translate(62.2822 19.132) rotate(11.3982)"/>
</clipPath>
</defs>
</svg>
