<svg width="30" height="30" viewBox="0 0 30 30" fill="none" xmlns="http://www.w3.org/2000/svg">
<circle cx="15" cy="15" r="8" fill="#CE1126"/>
<path d="M15 2.49756C21.905 2.49756 27.5025 8.09506 27.5025 15.0001C27.5025 21.9038 21.905 27.5001 15 27.5001C8.095 27.5013 2.5 21.9038 2.5 15.0001C2.49875 8.09506 8.095 2.49756 15 2.49756ZM14.995 12.8101C14.6887 12.8105 14.3931 12.9234 14.1646 13.1273C13.936 13.3312 13.7902 13.612 13.755 13.9163L13.7462 14.0613L13.7513 20.9388L13.7587 21.0838C13.7937 21.3887 13.9396 21.6701 14.1686 21.8744C14.3976 22.0786 14.6937 22.1915 15.0006 22.1915C15.3075 22.1915 15.6037 22.0786 15.8327 21.8744C16.0617 21.6701 16.2076 21.3887 16.2425 21.0838L16.25 20.9376L16.245 14.0601L16.2363 13.9138C16.2001 13.6098 16.0536 13.3295 15.8246 13.1263C15.5956 12.9231 15.2999 12.811 14.9937 12.8113L14.995 12.8101ZM15.0013 8.12381C14.5864 8.12381 14.1884 8.28863 13.8951 8.582C13.6017 8.87538 13.4369 9.27329 13.4369 9.68818C13.4369 10.1031 13.6017 10.501 13.8951 10.7944C14.1884 11.0877 14.5864 11.2526 15.0013 11.2526C15.2066 11.2525 15.4099 11.2119 15.5996 11.1333C15.7893 11.0546 15.9617 10.9394 16.1068 10.7941C16.252 10.6488 16.3671 10.4764 16.4456 10.2867C16.5241 10.0969 16.5645 9.89354 16.5644 9.68818C16.5643 9.48283 16.5238 9.2795 16.4451 9.08981C16.3664 8.90012 16.2512 8.72778 16.1059 8.58263C15.9607 8.43748 15.7882 8.32236 15.5985 8.24385C15.4087 8.16534 15.2054 8.12498 15 8.12506L15.0013 8.12381Z" fill="#CE1126"/>
<path d="M10.8333 22.5C10.3749 22.5 9.98242 22.3367 9.65575 22.01C9.32909 21.6833 9.16603 21.2911 9.16659 20.8333V10H8.33325V8.33333H12.4999V7.5H17.4999V8.33333H21.6666V10H20.8333V20.8333C20.8333 21.2917 20.6699 21.6842 20.3433 22.0108C20.0166 22.3375 19.6244 22.5006 19.1666 22.5H10.8333ZM19.1666 10H10.8333V20.8333H19.1666V10ZM12.4999 19.1667H14.1666V11.6667H12.4999V19.1667ZM15.8333 19.1667H17.4999V11.6667H15.8333V19.1667Z" fill="white"/>
</svg>
