<svg width="27" height="27" viewBox="0 0 27 27" fill="none" xmlns="http://www.w3.org/2000/svg">
<path d="M13.5 17.5219C13.35 17.5219 13.2094 17.4986 13.0781 17.4521C12.9469 17.4056 12.825 17.3258 12.7125 17.2125L8.6625 13.1625C8.45625 12.9563 8.35313 12.6938 8.35313 12.375C8.35313 12.0563 8.45625 11.7938 8.6625 11.5875C8.86875 11.3813 9.13613 11.2736 9.46463 11.2646C9.79313 11.2556 10.0601 11.3539 10.2656 11.5594L12.375 13.6688V5.625C12.375 5.30625 12.483 5.03888 12.699 4.82288C12.915 4.60688 13.182 4.49925 13.5 4.5C13.8188 4.5 14.0861 4.608 14.3021 4.824C14.5181 5.04 14.6258 5.307 14.625 5.625V13.6688L16.7344 11.5594C16.9406 11.3531 17.208 11.2545 17.5365 11.2635C17.865 11.2725 18.132 11.3805 18.3375 11.5875C18.5438 11.7938 18.6469 12.0563 18.6469 12.375C18.6469 12.6938 18.5438 12.9563 18.3375 13.1625L14.2875 17.2125C14.175 17.325 14.0531 17.4049 13.9219 17.4521C13.7906 17.4994 13.65 17.5226 13.5 17.5219ZM6.75 22.5C6.13125 22.5 5.60138 22.2795 5.16038 21.8385C4.71938 21.3975 4.49925 20.868 4.5 20.25V18C4.5 17.6813 4.608 17.4139 4.824 17.1979C5.04 16.9819 5.307 16.8743 5.625 16.875C5.94375 16.875 6.21113 16.983 6.42713 17.199C6.64313 17.415 6.75075 17.682 6.75 18V20.25H20.25V18C20.25 17.6813 20.358 17.4139 20.574 17.1979C20.79 16.9819 21.057 16.8743 21.375 16.875C21.6938 16.875 21.9611 16.983 22.1771 17.199C22.3931 17.415 22.5008 17.682 22.5 18V20.25C22.5 20.8688 22.2795 21.3986 21.8385 21.8396C21.3975 22.2806 20.868 22.5008 20.25 22.5H6.75Z" fill="white"/>
</svg>
