<svg width="16" height="16" viewBox="0 0 16 16" fill="none" xmlns="http://www.w3.org/2000/svg">
<path d="M8.13106 0C8.35826 0.000251296 8.57678 0.0870037 8.74199 0.242532C8.90719 0.39806 9.00661 0.610625 9.01992 0.836795C9.03324 1.06297 8.95945 1.28567 8.81363 1.45941C8.6678 1.63314 8.46096 1.7448 8.23535 1.77156L8.13106 1.77778H3.67415C3.45582 1.77781 3.24509 1.85774 3.08194 2.00241C2.91878 2.14709 2.81455 2.34644 2.78901 2.56267L2.78277 2.66667V13.3333C2.78279 13.5511 2.86295 13.7612 3.00803 13.9239C3.15311 14.0866 3.35303 14.1905 3.56986 14.216L3.67415 14.2222H7.68537C7.91257 14.2225 8.13109 14.3092 8.2963 14.4648C8.4615 14.6203 8.56092 14.8328 8.57423 15.059C8.58755 15.2852 8.51376 15.5079 8.36793 15.6816C8.22211 15.8554 8.01527 15.967 7.78966 15.9938L7.68537 16H3.67415C2.99205 16 2.33572 15.7402 1.83945 15.2735C1.34318 14.8069 1.04447 14.1688 1.00446 13.4898L1 13.3333V2.66667C0.999962 1.98648 1.26057 1.33199 1.72851 0.837101C2.19645 0.342216 2.83634 0.0443489 3.51726 0.00444455L3.67415 0H8.13106ZM13.2182 4.85689L15.739 7.37156C15.9061 7.53825 16 7.7643 16 8C16 8.2357 15.9061 8.46175 15.739 8.62844L13.2182 11.1431C13.0509 11.3098 12.8241 11.4034 12.5877 11.4033C12.3512 11.4032 12.1245 11.3095 11.9573 11.1427C11.7902 10.9759 11.6963 10.7497 11.6964 10.5139C11.6965 10.2781 11.7905 10.052 11.9578 9.88533L12.957 8.88889H8.13106C7.89465 8.88889 7.66793 8.79524 7.50076 8.62854C7.33359 8.46184 7.23968 8.23575 7.23968 8C7.23968 7.76425 7.33359 7.53816 7.50076 7.37146C7.66793 7.20476 7.89465 7.11111 8.13106 7.11111H12.957L11.9578 6.11467C11.7905 5.94799 11.6965 5.72189 11.6964 5.48609C11.6963 5.2503 11.7902 5.02413 11.9573 4.85733C12.1245 4.69054 12.3512 4.59679 12.5877 4.59671C12.8241 4.59663 13.0509 4.69021 13.2182 4.85689Z" fill="#D5D5D8"/>
</svg>
