<svg width="260" height="320" viewBox="0 0 260 320" fill="none" xmlns="http://www.w3.org/2000/svg">
<path fill-rule="evenodd" clip-rule="evenodd" d="M202.488 194.825H107.471V296.194C107.471 299.587 110.22 302.337 113.612 302.337H233.365C236.756 302.337 239.506 299.587 239.506 296.194V231.858C239.506 211.405 222.932 194.825 202.488 194.825Z" fill="#DFDFDF"/>
<path fill-rule="evenodd" clip-rule="evenodd" d="M227.224 288.514H132.035V302.337H227.224V288.514Z" fill="#D1D1D1"/>
<path fill-rule="evenodd" clip-rule="evenodd" d="M104.293 303.873L98.2588 319.232H127.429L122.374 303.873H104.293Z" fill="#DFDFDF"/>
<path fill-rule="evenodd" clip-rule="evenodd" d="M204.087 302.337L198.053 319.232H227.224L222.168 302.337H204.087Z" fill="#F1F1F1"/>
<path fill-rule="evenodd" clip-rule="evenodd" d="M6.03436 303.873L5.72205e-06 319.232H29.1706L24.1155 303.873H6.03436Z" fill="#DFDFDF"/>
<path fill-rule="evenodd" clip-rule="evenodd" d="M128.074 83.1598L107.471 82.7058V205.577H164.276V120.183C164.276 100.049 148.196 83.6032 128.074 83.1598Z" fill="#DFDFDF"/>
<path fill-rule="evenodd" clip-rule="evenodd" d="M116.511 82.7058H33.5308C15.0123 82.7058 0 97.7238 0 116.25V204.429C0 205.911 1.20097 207.113 2.68245 207.113H153.529V119.738C153.529 99.2857 136.956 82.7058 116.511 82.7058Z" fill="#F2F2F2"/>
<path fill-rule="evenodd" clip-rule="evenodd" d="M21.4941 82.7058C9.62323 82.7058 -1.52588e-05 92.3328 -1.52588e-05 104.208V192.142C-1.52588e-05 193.624 1.20095 194.825 2.68244 194.825H42.9882V104.208C42.9882 92.3328 33.365 82.7058 21.4941 82.7058Z" fill="#DFDFDF"/>
<path fill-rule="evenodd" clip-rule="evenodd" d="M207.879 207.113H113.612V288.514H227.224V226.465C227.224 215.777 218.563 207.113 207.879 207.113Z" fill="#F2F2F2"/>
<path fill-rule="evenodd" clip-rule="evenodd" d="M108.681 71.4899C93.4319 67.9348 92.4277 46.9808 104.021 39.7122C92.0649 14.6212 119.713 -10.2909 138.652 5.07281C151.068 -0.247705 161.386 20.5141 149.833 36.639C154.677 64.3259 144.818 71.4827 127.047 71.7867L108.681 71.4899Z" fill="#33373E"/>
<path fill-rule="evenodd" clip-rule="evenodd" d="M108.87 66.4855C108.87 66.4855 116.288 64.7421 116.546 52.5741C116.803 40.406 116.622 36.2524 116.622 36.2524L132.961 35.9573C132.961 35.9573 133.14 49.5184 133.142 54.4235C133.149 67.5979 142.318 66.4855 142.318 66.4855C142.318 66.4855 140.412 77.1678 125.607 78.0012C114.047 78.653 108.87 66.4855 108.87 66.4855Z" fill="#EDC2C2"/>
<path fill-rule="evenodd" clip-rule="evenodd" d="M112.813 30.1763C105.525 29.8939 106.713 40.5763 114.285 40.5617C114.285 40.5617 118.683 55.7367 133.952 55.7367C146.352 55.7367 147.158 38.05 147.271 34.5218C147.392 30.7598 147.407 18.4006 147.407 18.4006L112.53 18.3844L112.813 30.1763Z" fill="#FFD7D7"/>
<path d="M131.008 45.5422C131.008 45.5422 134.645 48.6251 138.857 45.7383" stroke="#F77B7B" stroke-width="1.5" stroke-linecap="round"/>
<path d="M133.409 49.1123C134.54 49.635 135.629 49.673 136.602 49.1519" stroke="#F49494" stroke-linecap="round"/>
<path d="M113.556 35.9211C113.631 34.2075 113.109 32.8467 111.363 32.5732" stroke="#F77B7B" stroke-linecap="round"/>
<path fill-rule="evenodd" clip-rule="evenodd" d="M111.66 28.8564C111.66 28.8564 115.655 34.2232 116.465 34.2517C117.274 34.2803 117.557 27.2719 117.557 27.2719C122.458 26.8971 134.861 24.4245 137.901 18.6641C140.028 23.7467 144.092 26.0043 146.763 25.5708L147.269 36.3687L148.515 14.6603H110.683L111.66 28.8564Z" fill="#33373E"/>
<path fill-rule="evenodd" clip-rule="evenodd" d="M183.525 281.065C183.525 281.065 176.986 294.287 182.346 298.453C187.715 302.621 201.896 310.43 201.896 310.43L164.326 308.066L172.677 279.23L183.525 281.065Z" fill="#FFD7D7"/>
<path fill-rule="evenodd" clip-rule="evenodd" d="M167.96 293.648C169.814 293.865 167.834 300.114 171.849 300.589C175.855 301.064 177.802 295.143 182.348 297.02C186.895 298.897 203.475 308.601 204.128 312.568C204.789 316.535 198.612 317.702 190.14 316.806C181.668 315.91 180.106 312.893 173.746 314.108C167.394 315.323 162.636 313.387 162.845 308.74C163.055 304.094 166.106 293.431 167.96 293.648Z" fill="#2B2E35"/>
<path fill-rule="evenodd" clip-rule="evenodd" d="M184.422 297.983L183.768 298.965C183.297 299.671 183.488 300.624 184.194 301.095C184.227 301.117 184.262 301.138 184.297 301.158L195.103 307.195C195.549 307.444 196.09 307.455 196.546 307.223L198.151 306.408C195.418 304.427 193.184 302.938 190.714 301.476C188.819 300.354 186.72 299.197 184.422 297.983Z" fill="white" fill-opacity="0.540975"/>
<path fill-rule="evenodd" clip-rule="evenodd" d="M126.93 164.531C138.304 165.04 201.609 179.057 213.11 181.438C224.611 183.82 234.335 196.706 225.564 211.627C215.714 228.377 190.298 275.947 184.127 286.67C181.073 291.978 165.665 289.002 169.284 280.093C176.031 263.486 179.164 221.768 196.366 206.557C196.366 206.557 138.516 216.637 113.528 205.091C95.3663 196.698 99.4749 163.302 126.93 164.531Z" fill="#33373E"/>
<path fill-rule="evenodd" clip-rule="evenodd" d="M207.52 97.1974C207.52 97.1974 207.391 87.9324 210.628 83.0904C213.866 78.2485 213.994 73.1053 216.444 73.2737C218.894 73.442 216.468 85.3966 216.468 85.3966C216.468 85.3966 219.577 84.2077 221.81 82.7038C224.043 81.1999 230.815 73.786 232.398 75.0998C235.081 77.3383 230.759 89.9655 228.405 92.49C226.044 95.0152 213.143 103.319 213.143 103.319L207.52 97.1974Z" fill="#FFD7D7"/>
<path fill-rule="evenodd" clip-rule="evenodd" d="M137.623 91.6456C142.914 103.931 152.602 126.5 156.596 133.233C161.601 141.665 169.493 145.381 178.734 139.124C188.444 132.55 215.18 106.909 215.964 101.101C216.741 95.2928 210.197 88.324 204.275 91.932C198.354 95.54 173.751 116.038 173.751 116.038C173.751 116.038 163.821 90.5561 155.834 75.7947C148.916 63.0236 129.57 72.9688 137.623 91.6456Z" fill="#675CD7"/>
<path fill-rule="evenodd" clip-rule="evenodd" d="M173.853 116.051C175.631 122.089 176.728 124.932 177.144 124.583C177.559 124.233 177.4 120.601 176.667 113.685L173.853 116.051Z" fill="black" fill-opacity="0.302803"/>
<path d="M238.707 69.9196L225.797 65.7225C223.861 65.0931 221.782 66.1524 221.153 68.0885L210.482 100.953C209.853 102.889 210.912 104.968 212.848 105.598L225.758 109.795C227.694 110.424 229.773 109.365 230.401 107.429L241.073 74.5646C241.702 72.6285 240.642 70.5489 238.707 69.9196Z" fill="#7596FF"/>
<path d="M220.962 63.5712L240.882 70.0474L227.933 109.922L208.013 103.446L220.962 63.5712Z" fill="#93C2F9"/>
<path d="M236.859 70.3139L235.348 69.8227C235.04 69.7227 234.712 69.8614 234.564 70.1369L234.517 70.2464C234.405 70.593 234.033 70.7826 233.687 70.6701L226.402 68.3017C226.094 68.2016 225.91 67.8965 225.952 67.5865L225.979 67.4704C226.091 67.1238 225.902 66.7516 225.555 66.6391L224.052 66.1504C222.936 65.7874 221.74 66.3503 221.296 67.4162L221.232 67.5905L210.731 100.026C210.275 101.442 211.049 102.961 212.462 103.423L224.413 107.309C225.766 107.751 227.215 107.061 227.74 105.761L227.806 105.58L227.805 105.577L238.304 73.1491C238.686 71.9668 238.04 70.6978 236.859 70.3139Z" fill="#E6F3FF"/>
<path fill-rule="evenodd" clip-rule="evenodd" d="M84.747 76.8427C84.747 76.8427 97.4972 119.584 97.8748 127.675C98.2524 135.766 87.4465 159.546 89.2863 165.557C93.5283 179.447 147.686 185.428 149.756 166.743C150.721 158.028 148.712 150.207 151.026 139.94C153.332 129.672 162.6 114.413 157.343 100.068C152.087 85.7227 153.495 72.451 149.735 69.9425C145.975 67.434 137.186 64.7699 137.186 64.7699C132.912 71.0669 118.482 70.9752 111.597 64.3259C111.597 64.3259 94.4924 67.6477 84.747 76.8427Z" fill="#7367F0"/>
<path fill-rule="evenodd" clip-rule="evenodd" d="M96.1728 83.7651C104.672 97.2679 104.646 120.778 109.211 123.856C113.775 126.935 131.541 123.914 131.541 126.352C131.541 128.791 106.99 151.137 111.02 161.819C113.131 167.413 112.558 172.417 109.303 176.831L108.24 176.6C98.567 174.411 90.7901 170.481 89.2863 165.557C87.4465 159.546 99.4989 135.766 99.1213 127.675C98.8008 120.807 88.6666 88.9703 85.6108 79.5042C88.0987 75.1099 91.6188 76.5299 96.1728 83.7651Z" fill="black" fill-opacity="0.199355"/>
<path fill-rule="evenodd" clip-rule="evenodd" d="M110.665 119.589C110.665 119.589 121.405 110.073 124.692 108.969C127.98 107.865 147.234 106.538 147.113 109.033C146.975 111.707 136.633 111.553 135.562 112.868C134.49 114.183 134.247 123.171 130.196 124.181C126.153 125.19 114.034 126.93 114.034 126.93L110.665 119.589Z" fill="#FFD7D7"/>
<path fill-rule="evenodd" clip-rule="evenodd" d="M82.0944 79.2989C70.7798 95.2855 61.1197 119.637 57.4117 129.131C53.7037 138.625 57.4441 152.945 73.7492 150.133C90.0249 147.329 115.921 132.094 118.786 127.65C121.652 123.205 117.299 115.118 111.817 116.177C106.739 117.157 81.549 127.879 81.549 127.879C81.549 127.879 97.7546 99.1224 101.712 91.4133C108.322 78.5388 92.0606 65.2131 82.0944 79.2989Z" fill="#675CD7"/>
<path fill-rule="evenodd" clip-rule="evenodd" d="M81.8055 127.683C76.1469 130.497 73.6626 131.314 74.3528 130.134C75.043 128.954 78.6069 126.29 85.0445 122.143L81.8055 127.683Z" fill="black" fill-opacity="0.302803"/>
<path fill-rule="evenodd" clip-rule="evenodd" d="M223.031 281.596C223.031 281.596 222.834 297.158 235.643 302.976C248.444 308.794 257.564 308.444 256.403 312.942C255.242 317.439 221.923 317.258 218.812 313.74C216.16 310.748 210.393 282.883 208.805 285.013L223.031 281.596Z" fill="#FFD7D7"/>
<path fill-rule="evenodd" clip-rule="evenodd" d="M212.897 299.016C214.328 296.249 214.418 304.032 220.06 302.317C224.638 300.925 226.203 292.958 229.097 294.703C231.99 296.448 257.457 309.977 257.602 310.059C260.738 311.749 259.861 316.872 254.565 317.766C248.681 318.759 218.19 318.091 216.554 316.52C214.918 314.95 211.75 301.234 212.897 299.016Z" fill="#2B2E35"/>
<path fill-rule="evenodd" clip-rule="evenodd" d="M232.864 299.356C232.047 299.356 231.385 300.018 231.385 300.835C231.385 301.434 231.747 301.974 232.3 302.202L245.642 307.702C246.153 307.913 246.738 307.669 246.949 307.158C247.057 306.895 247.049 306.6 246.926 306.344C246.678 305.825 233.823 299.356 232.864 299.356Z" fill="white" fill-opacity="0.540975"/>
<path fill-rule="evenodd" clip-rule="evenodd" d="M90.0456 159.72C79.0219 183.027 81.256 198.682 96.7479 206.686C119.221 218.295 186.497 204.564 186.497 204.564C186.497 204.564 185.295 214.254 186.497 222.896C189.637 245.467 204.57 283.071 207.729 287.797C212.098 294.331 225.407 289.403 225.658 283.962C225.908 278.521 215.625 209.033 214.061 195.782C212.505 182.531 207.594 180.606 193.248 176.984C189.952 176.151 150.978 166.455 147.407 166.737C126.955 168.356 107.835 166.017 90.0456 159.72Z" fill="#42474F"/>
<path fill-rule="evenodd" clip-rule="evenodd" d="M108.172 203.078C130.421 205.573 189.325 200.429 191.69 202.767C193.949 204.998 193.572 243.828 198.639 266.302L197.868 264.18C193.103 250.931 188.156 234.817 186.497 222.896C185.295 214.254 186.497 204.564 186.497 204.564L183.785 205.09C170.996 207.495 116.524 216.902 96.7479 206.686C86.0325 201.15 81.6598 191.954 83.63 179.096C87.0225 193.629 95.2033 201.623 108.172 203.078Z" fill="#52565E"/>
<path fill-rule="evenodd" clip-rule="evenodd" d="M95.0173 194.825H-1.52588e-05V299.654C-1.52588e-05 301.136 1.20096 302.337 2.68245 302.337H132.035V231.858C132.035 211.405 115.462 194.825 95.0173 194.825Z" fill="#DFDFDF"/>
</svg>
