<svg width="14" height="14" viewBox="0 0 14 14" fill="none" xmlns="http://www.w3.org/2000/svg">
<path d="M8.82778 13.9101L4.66667 12.4336L1.05 13.851C0.790741 13.956 0.550926 13.9266 0.330556 13.7628C0.110185 13.599 0 13.379 0 13.1029V2.07831C0 1.90769 0.0487407 1.75676 0.146222 1.62551C0.243704 1.49427 0.376444 1.39583 0.544445 1.33021L4.16111 0.0899416C4.32963 0.0374435 4.49815 0.00778218 4.66667 0.00095743C4.83519 -0.00586732 5.0037 0.023794 5.17222 0.0899416L9.33333 1.56645L12.95 0.149002C13.2093 0.0440058 13.4491 0.0736673 13.6694 0.237986C13.8898 0.402305 14 0.62201 14 0.8971V11.9217C14 12.0923 13.9515 12.2432 13.8546 12.3745C13.7576 12.5057 13.6246 12.6042 13.4556 12.6698L9.83889 13.9101C9.67037 13.9626 9.50185 13.9922 9.33333 13.999C9.16482 14.0059 8.9963 13.9762 8.82778 13.9101ZM8.55556 12.1579V2.94452L5.44444 1.84206V11.0555L8.55556 12.1579ZM10.1111 12.1579L12.4444 11.3705V2.03893L10.1111 2.94452V12.1579ZM1.55556 11.9611L3.88889 11.0555V1.84206L1.55556 2.62954V11.9611Z" fill="white"/>
</svg>
