<svg width="35" height="25" viewBox="0 0 35 25" fill="none" xmlns="http://www.w3.org/2000/svg">
<rect x="0.5" y="0.5" width="34" height="24" rx="12" fill="#CE1126" stroke="#CE1126"/>
<path d="M13.125 20.375C12.6438 20.375 12.2316 20.2035 11.8886 19.8605C11.5456 19.5175 11.3744 19.1057 11.375 18.625V7.25H10.5V5.5H14.875V4.625H20.125V5.5H24.5V7.25H23.625V18.625C23.625 19.1063 23.4535 19.5184 23.1105 19.8614C22.7675 20.2044 22.3557 20.3756 21.875 20.375H13.125ZM21.875 7.25H13.125V18.625H21.875V7.25ZM14.875 16.875H16.625V9H14.875V16.875ZM18.375 16.875H20.125V9H18.375V16.875Z" fill="white"/>
</svg>
