<svg width="35" height="25" viewBox="0 0 35 25" fill="none" xmlns="http://www.w3.org/2000/svg">
<rect x="0.5" y="0.5" width="34" height="24" rx="12" fill="#7F73FF" stroke="#7F73FF"/>
<path d="M23.4863 9.73699L20.2307 6.51507L21.3031 5.4411C21.5968 5.14703 21.9576 5 22.3855 5C22.8135 5 23.174 5.14703 23.4671 5.4411L24.5396 6.51507C24.8332 6.80913 24.9864 7.16405 24.9992 7.57984C25.012 7.99562 24.8715 8.35028 24.5779 8.64384L23.4863 9.73699ZM11.766 19C11.549 19 11.3669 18.9264 11.2199 18.7791C11.0728 18.6318 10.9995 18.4497 11 18.2329V16.0658C11 15.9635 11.0192 15.8643 11.0575 15.7681C11.0958 15.672 11.1532 15.5858 11.2298 15.5096L19.1199 7.60822L22.3756 10.8685L14.4854 18.7699C14.4088 18.8466 14.3228 18.9041 14.2273 18.9425C14.1318 18.9808 14.0327 19 13.9301 19H11.766Z" fill="white"/>
</svg>
