<svg width="18" height="18" viewBox="0 0 18 18" fill="none" xmlns="http://www.w3.org/2000/svg">
<path d="M1.66675 14.5007C1.66675 13.5282 2.05306 12.5956 2.74069 11.9079C3.42832 11.2203 4.36095 10.834 5.33341 10.834H12.6667C13.6392 10.834 14.5718 11.2203 15.2595 11.9079C15.9471 12.5956 16.3334 13.5282 16.3334 14.5007C16.3334 14.9869 16.1403 15.4532 15.7964 15.797C15.4526 16.1408 14.9863 16.334 14.5001 16.334C14.5001 16.334 3.98631 16.334 3.50008 16.334C3.01385 16.334 2.54754 16.1408 2.20372 15.797C1.8599 15.4532 1.66675 14.9869 1.66675 14.5007Z" stroke="white" stroke-width="1.5" stroke-linejoin="round"/>
<path d="M9 7.16699C10.5188 7.16699 11.75 5.93578 11.75 4.41699C11.75 2.89821 10.5188 1.66699 9 1.66699C7.48122 1.66699 6.25 2.89821 6.25 4.41699C6.25 5.93578 7.48122 7.16699 9 7.16699Z" stroke="white" stroke-width="1.5"/>
</svg>
