<svg width="14" height="14" viewBox="0 0 14 14" fill="none" xmlns="http://www.w3.org/2000/svg">
<path d="M6.99992 8.33333C7.13177 8.33333 7.26067 8.29423 7.3703 8.22097C7.47993 8.14772 7.56538 8.0436 7.61584 7.92178C7.6663 7.79997 7.6795 7.66592 7.65378 7.5366C7.62805 7.40728 7.56456 7.28849 7.47132 7.19526C7.37809 7.10202 7.2593 7.03853 7.12998 7.0128C7.00066 6.98708 6.86661 7.00028 6.7448 7.05074C6.62298 7.1012 6.51886 7.18665 6.44561 7.29628C6.37235 7.40591 6.33325 7.53481 6.33325 7.66666C6.33325 7.84347 6.40349 8.01304 6.52851 8.13807C6.65354 8.26309 6.82311 8.33333 6.99992 8.33333ZM10.3333 8.33333C10.4651 8.33333 10.594 8.29423 10.7036 8.22097C10.8133 8.14772 10.8987 8.0436 10.9492 7.92178C10.9996 7.79997 11.0128 7.66592 10.9871 7.5366C10.9614 7.40728 10.8979 7.28849 10.8047 7.19526C10.7114 7.10202 10.5926 7.03853 10.4633 7.0128C10.334 6.98708 10.1999 7.00028 10.0781 7.05074C9.95631 7.1012 9.85219 7.18665 9.77894 7.29628C9.70568 7.40591 9.66659 7.53481 9.66659 7.66666C9.66659 7.84347 9.73682 8.01304 9.86185 8.13807C9.98687 8.26309 10.1564 8.33333 10.3333 8.33333ZM6.99992 11C7.13177 11 7.26067 10.9609 7.3703 10.8876C7.47993 10.8144 7.56538 10.7103 7.61584 10.5885C7.6663 10.4666 7.6795 10.3326 7.65378 10.2033C7.62805 10.0739 7.56456 9.95516 7.47132 9.86192C7.37809 9.76869 7.2593 9.7052 7.12998 9.67947C7.00066 9.65375 6.86661 9.66695 6.7448 9.71741C6.62298 9.76787 6.51886 9.85332 6.44561 9.96295C6.37235 10.0726 6.33325 10.2015 6.33325 10.3333C6.33325 10.5101 6.40349 10.6797 6.52851 10.8047C6.65354 10.9298 6.82311 11 6.99992 11ZM10.3333 11C10.4651 11 10.594 10.9609 10.7036 10.8876C10.8133 10.8144 10.8987 10.7103 10.9492 10.5885C10.9996 10.4666 11.0128 10.3326 10.9871 10.2033C10.9614 10.0739 10.8979 9.95516 10.8047 9.86192C10.7114 9.76869 10.5926 9.7052 10.4633 9.67947C10.334 9.65375 10.1999 9.66695 10.0781 9.71741C9.95631 9.76787 9.85219 9.85332 9.77894 9.96295C9.70568 10.0726 9.66659 10.2015 9.66659 10.3333C9.66659 10.5101 9.73682 10.6797 9.86185 10.8047C9.98687 10.9298 10.1564 11 10.3333 11ZM3.66659 8.33333C3.79844 8.33333 3.92733 8.29423 4.03697 8.22097C4.1466 8.14772 4.23205 8.0436 4.28251 7.92178C4.33296 7.79997 4.34617 7.66592 4.32044 7.5366C4.29472 7.40728 4.23122 7.28849 4.13799 7.19526C4.04475 7.10202 3.92597 7.03853 3.79665 7.0128C3.66732 6.98708 3.53328 7.00028 3.41146 7.05074C3.28965 7.1012 3.18553 7.18665 3.11227 7.29628C3.03902 7.40591 2.99992 7.53481 2.99992 7.66666C2.99992 7.84347 3.07016 8.01304 3.19518 8.13807C3.32021 8.26309 3.48977 8.33333 3.66659 8.33333ZM11.6666 1.66666H10.9999V0.999995C10.9999 0.823184 10.9297 0.653615 10.8047 0.52859C10.6796 0.403566 10.5101 0.333328 10.3333 0.333328C10.1564 0.333328 9.98687 0.403566 9.86185 0.52859C9.73682 0.653615 9.66659 0.823184 9.66659 0.999995V1.66666H4.33325V0.999995C4.33325 0.823184 4.26301 0.653615 4.13799 0.52859C4.01297 0.403566 3.8434 0.333328 3.66659 0.333328C3.48977 0.333328 3.32021 0.403566 3.19518 0.52859C3.07016 0.653615 2.99992 0.823184 2.99992 0.999995V1.66666H2.33325C1.80282 1.66666 1.29411 1.87738 0.919038 2.25245C0.543966 2.62752 0.333252 3.13623 0.333252 3.66666V11.6667C0.333252 12.1971 0.543966 12.7058 0.919038 13.0809C1.29411 13.4559 1.80282 13.6667 2.33325 13.6667H11.6666C12.197 13.6667 12.7057 13.4559 13.0808 13.0809C13.4559 12.7058 13.6666 12.1971 13.6666 11.6667V3.66666C13.6666 3.13623 13.4559 2.62752 13.0808 2.25245C12.7057 1.87738 12.197 1.66666 11.6666 1.66666ZM12.3333 11.6667C12.3333 11.8435 12.263 12.013 12.138 12.1381C12.013 12.2631 11.8434 12.3333 11.6666 12.3333H2.33325C2.15644 12.3333 1.98687 12.2631 1.86185 12.1381C1.73682 12.013 1.66659 11.8435 1.66659 11.6667V5.66666H12.3333V11.6667ZM12.3333 4.33333H1.66659V3.66666C1.66659 3.48985 1.73682 3.32028 1.86185 3.19526C1.98687 3.07023 2.15644 2.99999 2.33325 2.99999H11.6666C11.8434 2.99999 12.013 3.07023 12.138 3.19526C12.263 3.32028 12.3333 3.48985 12.3333 3.66666V4.33333ZM3.66659 11C3.79844 11 3.92733 10.9609 4.03697 10.8876C4.1466 10.8144 4.23205 10.7103 4.28251 10.5885C4.33296 10.4666 4.34617 10.3326 4.32044 10.2033C4.29472 10.0739 4.23122 9.95516 4.13799 9.86192C4.04475 9.76869 3.92597 9.7052 3.79665 9.67947C3.66732 9.65375 3.53328 9.66695 3.41146 9.71741C3.28965 9.76787 3.18553 9.85332 3.11227 9.96295C3.03902 10.0726 2.99992 10.2015 2.99992 10.3333C2.99992 10.5101 3.07016 10.6797 3.19518 10.8047C3.32021 10.9298 3.48977 11 3.66659 11Z" fill="white"/>
</svg>
