<svg width="24" height="23" viewBox="0 0 24 23" fill="none" xmlns="http://www.w3.org/2000/svg">
<g opacity="0.5">
<g clip-path="url(#clip0_69_993)">
<path d="M24 17.25C24 17.9278 23.719 18.5778 23.219 19.0571C22.7189 19.5363 22.0406 19.8056 21.3333 19.8056H2.66667C1.95942 19.8056 1.28115 19.5363 0.781049 19.0571C0.280952 18.5778 0 17.9278 0 17.25V14.6945H24V17.25Z" fill="#fff"/>
<path d="M0 8.30554H24V14.6944H0V8.30554Z" fill="#22408C"/>
<path d="M21.3333 3.19446H2.66667C1.95942 3.19446 1.28115 3.4637 0.781049 3.94296C0.280952 4.42222 0 5.07224 0 5.75001L0 8.30557H24V5.75001C24 5.07224 23.719 4.42222 23.219 3.94296C22.7189 3.4637 22.0406 3.19446 21.3333 3.19446Z" fill="#fff"/>
</g>
</g>
<defs>
<clipPath id="clip0_69_993">
<rect width="24" height="23" fill="white"/>
</clipPath>
</defs>
</svg>
