<svg width="24" height="23" viewBox="0 0 24 23" fill="none" xmlns="http://www.w3.org/2000/svg">
<g opacity="0.9" clip-path="url(#clip0_82_631)">
<path d="M0 5.75001V8.30557H24V5.75001C24 5.07224 23.719 4.42222 23.219 3.94296C22.7189 3.4637 22.0406 3.19446 21.3333 3.19446H2.66667C1.95942 3.19446 1.28115 3.4637 0.781049 3.94296C0.280952 4.42222 0 5.07224 0 5.75001Z" fill="#0099B5"/>
<path d="M24 17.25V14.6945H0V17.25C0 17.9278 0.280952 18.5778 0.781049 19.0571C1.28115 19.5363 1.95942 19.8056 2.66667 19.8056H21.3333C22.0406 19.8056 22.7189 19.5363 23.219 19.0571C23.719 18.5778 24 17.9278 24 17.25Z" fill="#1EB53A"/>
<path d="M0 8.30554H24V9.26388H0V8.30554ZM0 13.7361H24V14.6944H0V13.7361Z" fill="#CE1126"/>
<path d="M0 11.5V13.7361H24V9.26389H0V11.5Z" fill="#EEEEEE"/>
<path d="M2.79998 5.85222C2.80004 5.38119 2.97415 4.92541 3.29143 4.56567C3.60872 4.20594 4.04868 3.9655 4.53331 3.887C4.23497 3.83847 3.92917 3.8529 3.63726 3.9293C3.34534 4.0057 3.07433 4.14222 2.84314 4.32934C2.61195 4.51646 2.42615 4.74966 2.2987 5.01269C2.17125 5.27571 2.10522 5.56222 2.10522 5.85222C2.10522 6.14222 2.17125 6.42873 2.2987 6.69175C2.42615 6.95478 2.61195 7.18798 2.84314 7.3751C3.07433 7.56222 3.34534 7.69874 3.63726 7.77514C3.92917 7.85154 4.23497 7.86597 4.53331 7.81744C4.04868 7.73894 3.60872 7.4985 3.29143 7.13877C2.97415 6.77903 2.80004 6.32325 2.79998 5.85222ZM5.92198 7.32358L5.82865 7.04822L5.73531 7.32358H5.43265L5.67731 7.49416L5.58398 7.76953L5.82865 7.59894L6.07265 7.76953L5.97931 7.49416L6.22398 7.32358H5.92198ZM7.72331 7.32358L7.62998 7.04822L7.53665 7.32358H7.23465L7.47931 7.49416L7.38598 7.76953L7.62998 7.59894L7.87465 7.76953L7.78131 7.49416L8.02598 7.32358H7.72331ZM7.62998 5.45355L7.53665 5.72891H7.23465L7.47931 5.8995L7.38598 6.17486L7.62998 6.00428L7.87465 6.17486L7.78131 5.8995L8.02598 5.72891H7.72331L7.62998 5.45355ZM9.52531 7.32358L9.43198 7.04822L9.33865 7.32358H9.03665L9.28065 7.49416L9.18731 7.76953L9.43198 7.59894L9.67665 7.76953L9.58331 7.49416L9.82731 7.32358H9.52531ZM9.43198 5.45355L9.33865 5.72891H9.03665L9.28065 5.8995L9.18731 6.17486L9.43198 6.00428L9.67665 6.17486L9.58331 5.8995L9.82731 5.72891H9.52531L9.43198 5.45355ZM9.43198 3.85889L9.33865 4.13425H9.03665L9.28065 4.30483L9.18731 4.58019L9.43198 4.40961L9.67665 4.58019L9.58331 4.30483L9.82731 4.13425H9.52531L9.43198 3.85889ZM11.3273 7.32358L11.234 7.04822L11.1406 7.32358H10.838L11.0826 7.49416L10.9893 7.76953L11.234 7.59894L11.478 7.76953L11.3846 7.49416L11.6293 7.32358H11.3273ZM11.234 5.45355L11.1406 5.72891H10.838L11.0826 5.8995L10.9893 6.17486L11.234 6.00428L11.478 6.17486L11.3846 5.8995L11.6293 5.72891H11.3273L11.234 5.45355ZM11.234 3.85889L11.1406 4.13425H10.838L11.0826 4.30483L10.9893 4.58019L11.234 4.40961L11.478 4.58019L11.3846 4.30483L11.6293 4.13425H11.3273L11.234 3.85889ZM13.1286 7.32358L13.0353 7.04822L12.942 7.32358H12.64L12.8846 7.49416L12.7913 7.76953L13.0353 7.59894L13.28 7.76953L13.1866 7.49416L13.4313 7.32358H13.1286ZM13.0353 5.45355L12.942 5.72891H12.64L12.8846 5.8995L12.7913 6.17486L13.0353 6.00428L13.28 6.17486L13.1866 5.8995L13.4313 5.72891H13.1286L13.0353 5.45355ZM13.0353 3.85889L12.942 4.13425H12.64L12.8846 4.30483L12.7913 4.58019L13.0353 4.40961L13.28 4.58019L13.1866 4.30483L13.4313 4.13425H13.1286L13.0353 3.85889Z" fill="white"/>
</g>
<defs>
<clipPath id="clip0_82_631">
<rect width="24" height="23" fill="white"/>
</clipPath>
</defs>
</svg>
