<svg width="16" height="16" viewBox="0 0 16 16" fill="none" xmlns="http://www.w3.org/2000/svg">
<path d="M12.6 0H3.5C2.7279 0 2.1 0.647833 2.1 1.44444V2.88889H1.4C0.6279 2.88889 0 3.53672 0 4.33333V11.5556C0 12.3522 0.6279 13 1.4 13H5.6C6.3721 13 7 12.3522 7 11.5556H12.6C13.3721 11.5556 14 10.9077 14 10.1111V1.44444C14 0.647833 13.3721 0 12.6 0ZM5.5979 11.5556H1.4V4.33333H5.6L5.5979 11.5556ZM12.5979 10.1111H7V4.33333C7 3.53672 6.3721 2.88889 5.6 2.88889H3.5V1.44444H12.6L12.5979 10.1111Z" fill="#D5D5D8"/>
</svg>
