<svg width="41" height="41" viewBox="0 0 41 41" fill="none" xmlns="http://www.w3.org/2000/svg">
<g filter="url(#filter0_d_69_894)">
<rect x="8" y="8" width="26" height="25" rx="12.5" fill="white"/>
<path fill-rule="evenodd" clip-rule="evenodd" d="M7.2692 7.2692C5 9.5415 5 13.1933 5 20.5C5 27.8067 5 31.46 7.2692 33.7292C9.5415 36 13.1933 36 20.5 36C27.8067 36 31.46 36 33.7292 33.7292C36 31.4616 36 27.8067 36 20.5C36 13.1933 36 9.53995 33.7292 7.2692C31.4616 5 27.8067 5 20.5 5C13.1933 5 9.53995 5 7.2692 7.2692ZM10.3645 19.0802C10.6521 16.5899 11.8454 14.2924 13.7172 12.6249C15.5891 10.9575 18.0087 10.0365 20.5155 10.0375C23.5876 10.0375 26.3435 11.3937 28.2143 13.5358C28.4098 13.7691 28.5059 14.0696 28.4822 14.373C28.4585 14.6763 28.3169 14.9583 28.0876 15.1584C27.8583 15.3584 27.5597 15.4606 27.256 15.443C26.9522 15.4254 26.6675 15.2894 26.4628 15.0641C25.7226 14.2145 24.8086 13.5336 23.7825 13.0675C22.7565 12.6014 21.6424 12.361 20.5155 12.3625C18.6254 12.3612 16.7977 13.0384 15.3648 14.271C13.932 15.5036 12.9892 17.2096 12.7081 19.0786H13.2723C13.5024 19.0785 13.7274 19.1467 13.9187 19.2746C14.11 19.4024 14.2591 19.5841 14.3471 19.7967C14.435 20.0093 14.4579 20.2433 14.4129 20.4689C14.3678 20.6945 14.2568 20.9017 14.0939 21.0642L12.2819 22.873C12.0639 23.0907 11.7685 23.213 11.4604 23.213C11.1523 23.213 10.8569 23.0907 10.6389 22.873L8.8285 21.0642C8.66613 20.9016 8.55557 20.6946 8.5108 20.4692C8.46603 20.2438 8.48905 20.0103 8.57696 19.798C8.66486 19.5857 8.8137 19.4042 9.00468 19.2764C9.19567 19.1487 9.42023 19.0804 9.65 19.0802H10.3645ZM28.7166 18.1269C28.9345 17.9093 29.23 17.787 29.538 17.787C29.8461 17.787 30.1416 17.9093 30.3595 18.1269L32.1715 19.9358C32.3339 20.0984 32.4444 20.3054 32.4892 20.5308C32.534 20.7562 32.5109 20.9897 32.423 21.202C32.3351 21.4143 32.1863 21.5958 31.9953 21.7236C31.8043 21.8513 31.5798 21.9196 31.35 21.9198H30.637C30.3494 24.4103 29.1559 26.7081 27.2837 28.3756C25.4116 30.0431 22.9916 30.9638 20.4845 30.9625C19.0258 30.964 17.5838 30.6526 16.2557 30.0494C14.9276 29.4462 13.7443 28.5651 12.7856 27.4657C12.5828 27.2334 12.4805 26.9301 12.5013 26.6224C12.5221 26.3147 12.6642 26.0279 12.8965 25.825C13.1287 25.6222 13.4321 25.5199 13.7398 25.5406C14.0475 25.5614 14.3343 25.7036 14.5371 25.9359C15.2776 26.7857 16.1919 27.4667 17.2182 27.9328C18.2445 28.3989 19.3589 28.6392 20.486 28.6375C22.3758 28.6385 24.2032 27.9611 25.6357 26.7285C27.0683 25.4959 28.0108 23.7901 28.2918 21.9213H27.7292C27.4991 21.9215 27.2742 21.8533 27.0828 21.7254C26.8915 21.5976 26.7424 21.4159 26.6545 21.2033C26.5665 20.9907 26.5436 20.7567 26.5887 20.5311C26.6338 20.3055 26.7448 20.0983 26.9077 19.9358L28.7166 18.1269Z" fill="#7F73FF"/>
</g>
<defs>
<filter id="filter0_d_69_894" x="0" y="0" width="41" height="41" filterUnits="userSpaceOnUse" color-interpolation-filters="sRGB">
<feFlood flood-opacity="0" result="BackgroundImageFix"/>
<feColorMatrix in="SourceAlpha" type="matrix" values="0 0 0 0 0 0 0 0 0 0 0 0 0 0 0 0 0 0 127 0" result="hardAlpha"/>
<feOffset/>
<feGaussianBlur stdDeviation="2.5"/>
<feComposite in2="hardAlpha" operator="out"/>
<feColorMatrix type="matrix" values="0 0 0 0 0.498039 0 0 0 0 0.45098 0 0 0 0 1 0 0 0 0.5 0"/>
<feBlend mode="normal" in2="BackgroundImageFix" result="effect1_dropShadow_69_894"/>
<feBlend mode="normal" in="SourceGraphic" in2="effect1_dropShadow_69_894" result="shape"/>
</filter>
</defs>
</svg>
