<svg width="20" height="23" viewBox="0 0 20 23" fill="none" xmlns="http://www.w3.org/2000/svg">
<path d="M7.33329 17.3329H12.6666C13.4 17.3329 14 16.7329 14 15.9996V9.33289H16.12C17.3066 9.33289 17.9066 7.89289 17.0666 7.05289L10.9466 0.932894C10.8233 0.809289 10.6768 0.711226 10.5155 0.644317C10.3542 0.577409 10.1813 0.542969 10.0066 0.542969C9.832 0.542969 9.65909 0.577409 9.49779 0.644317C9.3365 0.711226 9.18998 0.809289 9.06663 0.932894L2.94663 7.05289C2.10663 7.89289 2.69329 9.33289 3.87996 9.33289H5.99996V15.9996C5.99996 16.7329 6.59996 17.3329 7.33329 17.3329ZM1.99996 19.9996H18C18.7333 19.9996 19.3333 20.5996 19.3333 21.3329C19.3333 22.0662 18.7333 22.6662 18 22.6662H1.99996C1.26663 22.6662 0.666626 22.0662 0.666626 21.3329C0.666626 20.5996 1.26663 19.9996 1.99996 19.9996Z" fill="white"/>
</svg>
