<svg width="18" height="18" viewBox="0 0 18 18" fill="none" xmlns="http://www.w3.org/2000/svg">
<path d="M9 9.91667C8.74028 9.91667 8.52242 9.82867 8.34642 9.65267C8.17042 9.47667 8.08272 9.25912 8.08333 9V1.66667C8.08333 1.40695 8.17133 1.18909 8.34733 1.01309C8.52333 0.837086 8.74089 0.749392 9 0.750003C9.25972 0.750003 9.47758 0.838003 9.65358 1.014C9.82958 1.19 9.91728 1.40756 9.91667 1.66667V9C9.91667 9.25973 9.82867 9.47759 9.65267 9.65359C9.47667 9.82959 9.25911 9.91728 9 9.91667ZM9 17.25C7.85417 17.25 6.78075 17.0321 5.77975 16.5964C4.77875 16.1607 3.90792 15.5728 3.16725 14.8328C2.42658 14.0915 1.83869 13.2206 1.40358 12.2203C0.968472 11.2199 0.750611 10.1464 0.75 9C0.75 7.94584 0.940972 6.9375 1.32292 5.975C1.70486 5.0125 2.25486 4.14167 2.97292 3.3625C3.14097 3.17917 3.35486 3.0875 3.61458 3.0875C3.87431 3.0875 4.09583 3.17917 4.27917 3.3625C4.44722 3.53056 4.52361 3.74078 4.50833 3.99317C4.49306 4.24556 4.40139 4.47075 4.23333 4.66875C3.69861 5.26459 3.29008 5.93314 3.00775 6.67442C2.72542 7.4157 2.58394 8.19089 2.58333 9C2.58333 10.7875 3.20606 12.304 4.4515 13.5494C5.69694 14.7949 7.21311 15.4173 9 15.4167C10.7875 15.4167 12.304 14.7939 13.5494 13.5485C14.7949 12.3031 15.4173 10.7869 15.4167 9C15.4167 8.19028 15.2715 7.40714 14.9812 6.65059C14.691 5.89403 14.2785 5.21814 13.7437 4.62292C13.5757 4.43959 13.4877 4.2257 13.4797 3.98125C13.4718 3.73681 13.5522 3.53056 13.7208 3.3625C13.9042 3.17917 14.1257 3.0875 14.3854 3.0875C14.6451 3.0875 14.859 3.17917 15.0271 3.3625C15.7451 4.14167 16.2951 5.0125 16.6771 5.975C17.059 6.9375 17.25 7.94584 17.25 9C17.25 10.1458 17.0321 11.2193 16.5964 12.2203C16.1607 13.2213 15.5728 14.0921 14.8328 14.8328C14.0915 15.5734 13.2206 16.1616 12.2203 16.5973C11.2199 17.0331 10.1464 17.2506 9 17.25Z" fill="white"/>
</svg>
