<svg width="18" height="20" viewBox="0 0 18 20" fill="none" xmlns="http://www.w3.org/2000/svg">
<path d="M10.7187 19.1663H7.28123C7.05207 19.1663 6.85346 19.09 6.6854 18.9372C6.51734 18.7844 6.41804 18.5934 6.38748 18.3643L6.11248 16.233C5.91387 16.1566 5.72657 16.065 5.55057 15.958C5.37457 15.8511 5.20284 15.7365 5.0354 15.6143L3.04165 16.4393C2.82776 16.5156 2.61387 16.5233 2.39998 16.4622C2.18609 16.4011 2.01804 16.2712 1.89582 16.0726L0.199984 13.1163C0.0777615 12.9177 0.0395671 12.7038 0.0854004 12.4747C0.131234 12.2455 0.245817 12.0622 0.42915 11.9247L2.1479 10.6184C2.13262 10.5115 2.12498 10.4082 2.12498 10.3086V9.69076C2.12498 9.59115 2.13262 9.48787 2.1479 9.38092L0.42915 8.07467C0.245817 7.93717 0.131234 7.75384 0.0854004 7.52467C0.0395671 7.29551 0.0777615 7.08162 0.199984 6.88301L1.89582 3.92676C2.00276 3.71287 2.16684 3.57904 2.38807 3.52526C2.60929 3.47148 2.82715 3.48309 3.04165 3.56009L5.0354 4.38509C5.20346 4.26287 5.37915 4.14829 5.56248 4.04134C5.74582 3.9344 5.92915 3.84273 6.11248 3.76634L6.38748 1.63509C6.41804 1.40592 6.51734 1.21495 6.6854 1.06217C6.85346 0.909397 7.05207 0.833008 7.28123 0.833008H10.7187C10.9479 0.833008 11.1465 0.909397 11.3146 1.06217C11.4826 1.21495 11.5819 1.40592 11.6125 1.63509L11.8875 3.76634C12.0861 3.84273 12.2734 3.9344 12.4494 4.04134C12.6254 4.14829 12.7971 4.26287 12.9646 4.38509L14.9583 3.56009C15.1722 3.4837 15.3861 3.47606 15.6 3.53717C15.8139 3.59829 15.9819 3.72815 16.1042 3.92676L17.8 6.88301C17.9222 7.08162 17.9604 7.29551 17.9146 7.52467C17.8687 7.75384 17.7542 7.93717 17.5708 8.07467L15.8521 9.38092C15.8673 9.48787 15.875 9.59115 15.875 9.69076V10.3086C15.875 10.4082 15.8597 10.5115 15.8292 10.6184L17.5479 11.9247C17.7312 12.0622 17.8458 12.2455 17.8917 12.4747C17.9375 12.7038 17.8993 12.9177 17.7771 13.1163L16.0812 16.0497C15.959 16.2483 15.787 16.3821 15.5652 16.4512C15.3433 16.5202 15.1258 16.5163 14.9125 16.4393L12.9646 15.6143C12.7965 15.7365 12.6208 15.8511 12.4375 15.958C12.2542 16.065 12.0708 16.1566 11.8875 16.233L11.6125 18.3643C11.5819 18.5934 11.4826 18.7844 11.3146 18.9372C11.1465 19.09 10.9479 19.1663 10.7187 19.1663ZM9.04582 13.208C9.93193 13.208 10.6882 12.8948 11.3146 12.2684C11.941 11.642 12.2542 10.8858 12.2542 9.99967C12.2542 9.11356 11.941 8.35731 11.3146 7.73092C10.6882 7.10454 9.93193 6.79134 9.04582 6.79134C8.14443 6.79134 7.38421 7.10454 6.76515 7.73092C6.14609 8.35731 5.83687 9.11356 5.83748 9.99967C5.83748 10.8858 6.14671 11.642 6.76515 12.2684C7.38359 12.8948 8.14382 13.208 9.04582 13.208Z" fill="white"/>
</svg>
