<svg width="366" height="314" viewBox="0 0 366 314" fill="none" xmlns="http://www.w3.org/2000/svg">
<path fill-rule="evenodd" clip-rule="evenodd" d="M249.041 198.922L234.649 312.68L242.194 312.58L256.586 199.987L249.041 198.922Z" fill="#C5C5C5"/>
<path fill-rule="evenodd" clip-rule="evenodd" d="M255.157 198.922L269.549 312.68L262.003 312.58L247.612 199.987L255.157 198.922Z" fill="#C3C3C3"/>
<path fill-rule="evenodd" clip-rule="evenodd" d="M299.031 198.922L313.423 312.68L305.877 312.58L291.486 199.987L299.031 198.922Z" fill="#C3C3C3"/>
<path fill-rule="evenodd" clip-rule="evenodd" d="M189.778 204.919C189.778 198.356 195.099 193.035 201.664 193.035H250.442C256.906 193.035 262.308 188.117 262.912 181.683L270.749 98.3231C271.354 91.8888 276.756 86.9713 283.22 86.9713H315.853C322.771 86.9713 328.378 92.5784 328.378 99.4952C328.378 99.8152 328.366 100.135 328.342 100.454L320.294 205.239C319.793 211.765 314.351 216.804 307.805 216.804H201.664C195.099 216.804 189.778 211.483 189.778 204.919Z" fill="#C5C5C5"/>
<path fill-rule="evenodd" clip-rule="evenodd" d="M315.534 86.9713C315.818 86.9713 316.1 86.9808 316.38 86.9994C316.4 87.2881 316.41 87.5797 316.41 87.8738C316.41 88.1947 316.397 88.5154 316.373 88.8354L308.33 193.257C307.828 199.782 302.387 204.819 295.842 204.819H189.983L189.78 204.817C189.778 204.74 189.778 204.664 189.778 204.587C189.778 198.04 195.086 192.733 201.633 192.733H250.27C256.732 192.733 262.133 187.818 262.74 181.385L270.571 98.3198C271.178 91.8869 276.579 86.9713 283.041 86.9713H315.534Z" fill="#B2B0B0"/>
<path fill-rule="evenodd" clip-rule="evenodd" d="M199.364 275.314C199.364 275.314 205.614 290.298 200.491 294.271C195.36 298.244 185.38 308.068 185.38 308.068L217.714 301.056L209.732 273.564L199.364 275.314Z" fill="url(#paint0_linear_69_114)"/>
<path fill-rule="evenodd" clip-rule="evenodd" d="M201.221 285.181C201.221 285.181 202.015 292.213 199.722 294.613C197.429 297.011 185.014 306.145 184.042 307.878C183.07 309.612 184.809 311.525 184.809 311.525C184.809 311.525 198.218 312.69 204.248 309.026C208.603 306.379 215.096 301.627 215.096 301.627L216.816 306.3L221.69 306.101C221.69 306.101 222.336 300.343 221.179 297.582C220.022 294.821 214.065 280.769 214.065 280.769C214.065 280.769 211.772 282.828 209.335 283.866C206.898 284.902 203.846 287.743 203.846 287.743L201.221 285.181Z" fill="#323740"/>
<path fill-rule="evenodd" clip-rule="evenodd" d="M253.455 164.216C242.584 164.701 182.081 178.064 171.088 180.334C160.096 182.605 150.802 194.89 159.185 209.115C168.599 225.084 192.891 270.434 198.788 280.658C201.708 285.718 216.434 282.881 212.975 274.388C206.526 258.555 203.532 218.783 187.091 204.282C187.091 204.282 242.382 213.891 266.265 202.884C283.623 194.883 279.696 163.044 253.455 164.216Z" fill="#42474F"/>
<path fill-rule="evenodd" clip-rule="evenodd" d="M177.622 94.0745C177.622 94.0745 177.745 85.2417 174.651 80.6256C171.557 76.0096 171.434 71.1063 169.093 71.2668C166.751 71.4273 169.07 82.8242 169.07 82.8242C169.07 82.8242 166.098 81.6908 163.964 80.257C161.83 78.8233 155.358 71.7552 153.845 73.0077C151.281 75.1418 155.411 87.18 157.661 89.5867C159.918 91.9942 172.248 99.9109 172.248 99.9109L202.449 130.749L208.119 115.083L177.622 94.0745Z" fill="#FFE0D1"/>
<path fill-rule="evenodd" clip-rule="evenodd" d="M244.427 91.1611C239.37 102.873 230.111 124.389 226.293 130.809C221.51 138.848 213.967 142.39 205.135 136.425C203.572 135.369 200.409 132.825 195.647 128.792L204.291 109.795C208.029 112.876 209.897 114.416 209.897 114.416C209.897 114.416 219.388 90.1225 227.022 76.0496C233.634 63.8742 252.124 73.3555 244.427 91.1611Z" fill="#FFB66F"/>
<path fill-rule="evenodd" clip-rule="evenodd" d="M209.799 114.428C208.1 120.184 207.052 122.895 206.655 122.562C206.257 122.229 206.409 118.765 207.11 112.172L209.799 114.428Z" fill="black" fill-opacity="0.159856"/>
<path fill-rule="evenodd" clip-rule="evenodd" d="M206.439 110.846L199.21 135.021L191.533 129.004L202.219 107.573L206.439 110.846Z" fill="#FFEDC2"/>
<path fill-rule="evenodd" clip-rule="evenodd" d="M253.592 9.4371C253.592 9.4371 257.39 3.17509 263.412 3.64553C269.434 4.11598 276.742 13.2918 276.359 23.458C275.99 33.6228 278.231 35.2219 282.551 41.1011C294.161 56.9188 276.22 75.435 276.22 75.435L252.378 75.4407L251.469 31.0987L253.592 9.4371Z" fill="#42474F"/>
<path fill-rule="evenodd" clip-rule="evenodd" d="M263.05 13.1017C279.296 24.1915 269.986 37.0601 268.359 40.0815C265.234 62.0674 271.679 63.1966 281.403 68.1098L278.021 74.1542L264.084 71.5308L252.328 14.2115L263.05 13.1017Z" fill="black" fill-opacity="0.199355"/>
<path fill-rule="evenodd" clip-rule="evenodd" d="M270.716 66.62C270.716 66.62 262.435 64.9579 262.189 53.3574C261.943 41.7569 263.307 37.7971 263.307 37.7971L247.691 37.5157C247.691 37.5157 247.521 50.4443 247.518 55.1206C247.511 66.4908 238.748 67.8097 238.748 67.8097C238.748 67.8097 240.569 76.804 254.72 77.5986C265.768 78.2199 270.716 66.62 270.716 66.62Z" fill="#F9C7B0"/>
<path fill-rule="evenodd" clip-rule="evenodd" d="M262.728 12.7237C263.296 6.03263 252.252 4.40524 250.208 9.57328C250.208 9.57328 249.646 14.179 253.241 15.9764C258.102 18.3977 262.728 12.7237 262.728 12.7237Z" fill="#FB9934"/>
<path fill-rule="evenodd" clip-rule="evenodd" d="M264.202 29.9582C270.96 28.2468 271.966 38.4447 264.885 39.9355C264.885 39.9355 263.782 54.9605 249.508 57.9939C237.916 60.4575 233.655 44.1243 232.85 40.8564C231.991 37.3722 229.527 25.8498 229.527 25.8498L262.129 18.9055L264.202 29.9582Z" fill="#FFE0D1"/>
<path fill-rule="evenodd" clip-rule="evenodd" d="M261.933 36.8615C260.705 36.7914 259.024 30.4254 259.024 30.4254C255.406 30.4749 254.628 29.822 251.091 26.0812C239.967 31.0376 232.218 33.4763 233.006 42.214C233.006 42.214 220.073 24.4 233.918 14.1492C246.097 5.14159 261.552 7.88837 266.315 18.087C269.684 25.2846 268.85 31.2736 268.85 31.2736C268.85 31.2736 266.486 28.8395 263.736 30.1574C260.985 31.4753 263.16 36.9317 261.933 36.8615Z" fill="#42474F"/>
<path d="M250.239 47.9025C250.239 47.9025 247.45 51.4997 242.94 49.6446" stroke="#F77B7B" stroke-width="1.5" stroke-linecap="round"/>
<path d="M248.702 51.7085C247.748 52.4207 246.737 52.6727 245.725 52.3799" stroke="#F49494" stroke-linecap="round"/>
<path d="M264.646 35.4628C264.237 33.8798 264.455 32.5071 266.033 31.9053" stroke="#F77B7B" stroke-linecap="round"/>
<path fill-rule="evenodd" clip-rule="evenodd" d="M242.013 66.2598C241.822 66.2506 235.144 69.1767 234.375 70.3047C229.366 77.6536 220.168 103.519 219.694 109.13C219.16 115.603 228.492 125.913 228.606 135.283C228.708 144.654 224.615 172.869 226.202 175.505C227.778 178.141 238.13 190.661 240.29 190.712C242.462 190.763 244.083 184.189 247.373 184.332C250.651 184.475 257.485 193.19 260.432 193.129C263.366 193.064 293.777 173.801 291.452 168.313C289.115 162.824 278.267 149.185 279.372 141.707C280.464 134.23 289.191 106.629 292.341 97.2346C295.479 87.8406 298.007 80.3573 292.151 76.315C286.295 72.2728 267.241 64.8788 267.241 64.8788L250.181 74.4209C250.181 74.4209 243.003 66.3075 242.013 66.2598Z" fill="#FF9F43"/>
<path fill-rule="evenodd" clip-rule="evenodd" d="M248.079 74.1556C242.962 91.1692 235.94 107.933 233.127 123.887L241.308 119.48L248.853 125.196C248.32 108.61 251.105 91.1949 252.386 74.1556H248.079Z" fill="#FFF6E1"/>
<path fill-rule="evenodd" clip-rule="evenodd" d="M277.964 87.2194L278.159 88.5952C280.451 105.681 277.738 126.413 273.037 129.576C268.239 132.805 249.561 129.636 249.561 132.193C249.561 134.75 275.372 158.184 271.135 169.387C268.805 175.546 269.585 181.024 273.475 185.82L274.605 185.061C283.421 179.082 292.78 171.449 291.452 168.313C289.115 162.824 278.267 149.185 279.372 141.707C280.42 134.529 288.505 108.805 291.937 98.4469L293.031 95.1629C294.301 91.3125 295.359 87.8245 295.615 84.815L294.826 84.3037C282.219 76.2232 276.599 77.1953 277.964 87.2194Z" fill="black" fill-opacity="0.159856"/>
<path fill-rule="evenodd" clip-rule="evenodd" d="M270.389 66.0836L267.241 64.8788L249.806 73.9271C249.806 73.9271 253.085 82.2683 258.89 78.1146C263.866 74.5627 261.766 71.4371 265.667 69.8248C269.554 68.2125 270.389 66.0836 270.389 66.0836Z" fill="#FFF6E1"/>
<path fill-rule="evenodd" clip-rule="evenodd" d="M249.806 73.9271C248.542 76.7338 245.973 78.3739 244.645 77.864C242.452 77.0219 243.394 73.6667 242.53 71.9717C241.911 70.7692 241.511 70.5877 240.969 69.4586C240.466 68.423 240.446 67.1799 240.574 66.8369L242.29 66.0575C243.861 67.5392 245.012 68.6729 245.743 69.4586C246.654 70.4378 248.009 71.9273 249.806 73.9271Z" fill="#FFF6E1"/>
<path fill-rule="evenodd" clip-rule="evenodd" d="M269 118.991C269 118.991 258.736 109.919 255.594 108.866C252.452 107.813 234.049 106.548 234.165 108.927C234.297 111.476 244.181 111.329 245.206 112.583C246.23 113.836 246.462 122.406 250.334 123.368C254.197 124.33 265.781 125.989 265.781 125.989L293.488 142.676L294.671 127.429L269 118.991Z" fill="#FFE0D1"/>
<path fill-rule="evenodd" clip-rule="evenodd" d="M296.307 80.58C307.121 95.8209 316.354 119.036 319.898 128.088C323.442 137.139 319.867 150.791 304.283 148.11C302.529 147.809 299.684 147.053 295.749 145.843L292.025 124.88C295.227 126.223 296.829 126.894 296.829 126.894C296.829 126.894 281.34 99.4788 277.558 92.1294C271.24 79.8554 286.782 67.1513 296.307 80.58Z" fill="#FFB66F"/>
<path fill-rule="evenodd" clip-rule="evenodd" d="M296.829 126.894C302.073 129.453 304.366 130.169 303.706 129.044C303.047 127.919 299.765 125.425 293.861 121.563L296.829 126.894Z" fill="black" fill-opacity="0.159856"/>
<path fill-rule="evenodd" clip-rule="evenodd" d="M296.078 125.926L298.651 148.593L288.477 145.364L290.013 123.15L296.078 125.926Z" fill="#FFEDC2"/>
<path fill-rule="evenodd" clip-rule="evenodd" d="M161.606 275.82C161.606 275.82 161.794 290.656 149.552 296.203C137.317 301.75 128.601 301.416 129.71 305.704C130.82 309.992 162.665 309.819 165.639 306.465C168.173 303.612 173.685 277.047 175.203 279.078L161.606 275.82Z" fill="url(#paint1_linear_69_114)"/>
<path fill-rule="evenodd" clip-rule="evenodd" d="M173.024 287.515C173.024 287.515 170.452 293.815 170.225 297.634C169.998 301.453 164.141 312.311 164.141 312.311L159.514 312.891L159.091 308.954C159.091 308.954 152.394 311.804 148.193 312.259C143.992 312.715 129.582 311.005 126.717 308.626C123.851 306.249 125.299 302.901 133.57 300.86C141.84 298.82 154.691 292.859 157.136 288.543C159.581 284.227 159.596 284.338 159.596 284.338L159.547 291.531C159.547 291.531 161.664 287.745 164.162 287.24C166.66 286.735 173.024 287.515 173.024 287.515Z" fill="#323740"/>
<path fill-rule="evenodd" clip-rule="evenodd" d="M286.325 159.63C300.038 180.263 298.697 195.188 282.302 204.404C261.3 216.21 196.523 202.382 196.523 202.382C196.523 202.382 197.672 211.62 196.523 219.858C193.522 241.377 179.25 277.227 176.231 281.732C172.055 287.961 159.335 283.263 159.095 278.076C158.856 272.889 168.684 206.642 170.179 194.01C171.666 181.376 176.36 179.541 190.072 176.088C193.222 175.294 230.472 166.05 233.884 166.319C253.431 167.863 270.911 165.633 286.325 159.63Z" fill="#42474F"/>
<path opacity="0.439941" fill-rule="evenodd" clip-rule="evenodd" d="M271.383 200.965C250.118 203.344 193.821 198.439 191.56 200.668C189.401 202.796 189.761 239.816 184.919 261.241C189.689 248.259 194.853 231.838 196.523 219.858C197.672 211.62 196.523 202.382 196.523 202.382L198.723 202.82C210.2 205.046 263.409 214.605 282.302 204.404C293.384 198.421 297.671 189.158 295.165 176.614C292.142 191.412 284.215 199.529 271.383 200.965Z" fill="white" fill-opacity="0.192499"/>
<path d="M162.583 202.081C160.66 202.525 158.441 200.031 157.628 196.509C156.815 192.988 157.715 189.773 159.638 189.329C161.562 188.885 163.78 191.38 164.593 194.902C165.406 198.423 164.506 201.637 162.583 202.081Z" fill="white" fill-opacity="0.192499"/>
<path d="M175.822 198.404C173.292 197.678 172.122 194.018 173.209 190.228C174.296 186.438 177.228 183.954 179.758 184.679C182.287 185.404 183.457 189.065 182.37 192.855C181.283 196.645 178.351 199.129 175.822 198.404Z" fill="white" fill-opacity="0.192499"/>
<path d="M125.136 71.4651L159.021 67.8672C160.123 67.7501 161.191 68.2987 161.737 69.2637L183.549 107.786C184.307 109.124 183.836 110.822 182.499 111.579C182.219 111.737 181.914 111.846 181.597 111.9L147.847 117.677C146.669 117.878 145.494 117.306 144.927 116.254L122.98 75.5533C122.251 74.2003 122.756 72.5123 124.109 71.7829C124.428 71.6113 124.777 71.5033 125.136 71.4651Z" fill="#7596FF"/>
<path fill-rule="evenodd" clip-rule="evenodd" d="M126.502 71.3542L159.546 66.166C160.718 65.982 161.879 66.5613 162.436 67.6089L183.403 107.038C184.125 108.395 183.61 110.08 182.253 110.802C181.979 110.947 181.683 111.046 181.378 111.094L148.333 116.282C147.161 116.466 146.001 115.886 145.444 114.839L124.476 75.4101C123.755 74.053 124.27 72.3678 125.627 71.6463C125.9 71.5009 126.196 71.4022 126.502 71.3542Z" fill="url(#paint2_linear_69_114)"/>
<path d="M125.809 73.9746L160.635 68.0751L182.081 108.402L147.421 113.643L125.809 73.9746Z" fill="white"/>
<path d="M135.24 67.4643L148.936 65.6136C149.657 65.5161 150.367 65.8607 150.736 66.4879L153.232 70.728C153.485 71.1581 153.341 71.712 152.911 71.9651C152.808 72.026 152.693 72.0657 152.574 72.0818L138.878 73.9325C138.157 74.03 137.447 73.6854 137.078 73.0582L134.582 68.8181C134.329 68.388 134.473 67.8341 134.903 67.581C135.006 67.52 135.121 67.4804 135.24 67.4643Z" fill="#7367F0"/>
<path fill-rule="evenodd" clip-rule="evenodd" d="M152.995 79.841C153.459 79.5945 154.035 79.7709 154.281 80.2349C154.51 80.6658 154.375 81.1932 153.984 81.4637L153.889 81.5214L138.389 84.117C137.925 84.3635 137.349 84.1871 137.102 83.7231C136.873 83.2922 137.009 82.7648 137.4 82.4943L137.495 82.4366L152.995 79.841Z" fill="#A7C3FF"/>
<path fill-rule="evenodd" clip-rule="evenodd" d="M157.463 88.2424C157.926 87.9959 158.502 88.1723 158.749 88.6363C158.978 89.0671 158.843 89.5945 158.451 89.865L158.356 89.9227L142.856 92.5183C142.393 92.7648 141.817 92.5885 141.57 92.1245C141.341 91.6936 141.476 91.1662 141.868 90.8957L141.963 90.838L157.463 88.2424Z" fill="#A7C3FF"/>
<path fill-rule="evenodd" clip-rule="evenodd" d="M161.93 96.6438C162.394 96.3973 162.97 96.5736 163.217 97.0376C163.446 97.4685 163.31 97.9959 162.919 98.2664L162.824 98.3241L147.324 100.92C146.86 101.166 146.284 100.99 146.038 100.526C145.809 100.095 145.944 99.5676 146.336 99.2971L146.43 99.2394L161.93 96.6438Z" fill="#A7C3FF"/>
<path fill-rule="evenodd" clip-rule="evenodd" d="M122.71 160.731H146.701V313.201H122.71V160.731Z" fill="#C5C5C5"/>
<path fill-rule="evenodd" clip-rule="evenodd" d="M122.71 154.741H137.105V313.201H122.71V154.741Z" fill="#DBDBDB"/>
<path fill-rule="evenodd" clip-rule="evenodd" d="M13.5556 160.731H132.316V206.462H37.5475V313.201H13.5556V160.731Z" fill="#C5C5C5"/>
<path fill-rule="evenodd" clip-rule="evenodd" d="M13.5556 160.731H27.9507V313.201H13.5556V160.731Z" fill="#DBDBDB"/>
<path fill-rule="evenodd" clip-rule="evenodd" d="M310.548 160.731H334.54V313.201H310.548V160.731Z" fill="#C5C5C5"/>
<path fill-rule="evenodd" clip-rule="evenodd" d="M201.394 160.731H320.154V217.339H225.386V313.201H201.394V160.731Z" fill="#C5C5C5"/>
<path fill-rule="evenodd" clip-rule="evenodd" d="M32.7396 154.741L215.65 154.741V217.228H32.7396V154.741Z" fill="#DBDBDB"/>
<path fill-rule="evenodd" clip-rule="evenodd" d="M197.795 160.731H212.19V217.228H197.795V160.731Z" fill="#C3C3C3"/>
<path fill-rule="evenodd" clip-rule="evenodd" d="M201.394 160.731H215.789V313.201H201.394V160.731Z" fill="#DBDBDB"/>
<path fill-rule="evenodd" clip-rule="evenodd" d="M215.236 154.741H338.759C343.722 154.741 347.745 158.764 347.745 163.726C347.745 168.688 343.722 172.711 338.759 172.711H215.236C210.273 172.711 206.25 168.688 206.25 163.726C206.25 158.764 210.273 154.741 215.236 154.741Z" fill="#C5C5C5"/>
<path fill-rule="evenodd" clip-rule="evenodd" d="M18.4838 158.335H201.394V176.305H18.4838V158.335Z" fill="#C3C3C3"/>
<path fill-rule="evenodd" clip-rule="evenodd" d="M9.71573 154.741H218.799C223.762 154.741 227.785 158.764 227.785 163.726C227.785 168.688 223.762 172.711 218.799 172.711H9.71573C4.75284 172.711 0.729614 168.688 0.729614 163.726C0.729614 158.764 4.75284 154.741 9.71573 154.741Z" fill="#DBDBDB"/>
<path fill-rule="evenodd" clip-rule="evenodd" d="M244.82 138.824H250.908C252.084 138.824 253.037 139.709 253.037 140.801V143.508C253.037 146.095 250.778 148.192 247.992 148.192H244.82C244.316 148.192 243.908 147.813 243.908 147.345C243.908 146.877 244.316 146.498 244.82 146.498H247.992C249.771 146.498 251.212 145.159 251.212 143.508V140.801C251.212 140.645 251.076 140.518 250.908 140.518H244.82C244.316 140.518 243.908 140.139 243.908 139.671C243.908 139.203 244.316 138.824 244.82 138.824Z" fill="#8C81FF"/>
<path fill-rule="evenodd" clip-rule="evenodd" d="M224.604 136.669C223.26 136.669 222.171 137.681 222.171 138.928V144.576C222.171 148.642 225.477 151.991 229.729 152.433L229.73 153.612H240.38L240.381 152.407C244.526 151.874 247.718 148.571 247.718 144.576V138.928C247.718 137.681 246.629 136.669 245.285 136.669H224.604Z" fill="#7367F0"/>
<path fill-rule="evenodd" clip-rule="evenodd" d="M247.606 152.482H223.189C222.877 152.482 222.624 152.735 222.624 153.047C222.624 153.364 222.871 153.627 223.188 153.646L232.168 154.201H238.555L247.607 153.646C247.924 153.627 248.171 153.364 248.171 153.047C248.171 152.735 247.918 152.482 247.606 152.482Z" fill="#8C81FF"/>
<path fill-rule="evenodd" clip-rule="evenodd" d="M86.9476 150.971H202.769C203.671 150.971 204.402 151.702 204.402 152.604C204.402 153.506 203.671 154.237 202.769 154.237H86.9476C86.0455 154.237 85.3142 153.506 85.3142 152.604C85.3142 151.702 86.0455 150.971 86.9476 150.971Z" fill="#8C81FF"/>
<path fill-rule="evenodd" clip-rule="evenodd" d="M165.395 150.971H202.769C203.671 150.971 204.402 151.702 204.402 152.604C204.402 153.506 203.671 154.237 202.769 154.237H165.395C164.493 154.237 163.762 153.506 163.762 152.604C163.762 151.702 164.493 150.971 165.395 150.971Z" fill="#7367F0"/>
<path fill-rule="evenodd" clip-rule="evenodd" d="M83.7025 101.655H156.373C158.417 101.655 160.143 103.171 160.406 105.198L165.769 146.522C166.058 148.749 164.487 150.789 162.26 151.078C162.086 151.1 161.911 151.111 161.736 151.111H89.0656C87.0219 151.111 85.2957 149.595 85.0327 147.569L79.6697 106.244C79.3807 104.017 80.9519 101.978 83.1792 101.689C83.3528 101.666 83.5276 101.655 83.7025 101.655Z" fill="#7367F0"/>
<path fill-rule="evenodd" clip-rule="evenodd" d="M83.7025 101.655H153.806C155.85 101.655 157.576 103.171 157.839 105.198L163.202 146.522C163.491 148.749 161.92 150.789 159.692 151.078C159.519 151.1 159.344 151.111 159.169 151.111H89.0656C87.0219 151.111 85.2957 149.595 85.0327 147.569L79.6697 106.244C79.3807 104.017 80.9519 101.978 83.1792 101.689C83.3528 101.666 83.5276 101.655 83.7025 101.655Z" fill="url(#paint3_linear_69_114)"/>
<path d="M123.445 131.585C125.687 129.895 126.016 126.549 124.178 124.11C122.341 121.672 119.033 121.065 116.79 122.755C114.547 124.445 114.218 127.792 116.056 130.23C117.894 132.668 121.202 133.275 123.445 131.585Z" fill="white"/>
<path fill-rule="evenodd" clip-rule="evenodd" d="M328.69 256.572C338.579 234.152 347.562 211.126 355.786 187.592C336.843 205.486 322.112 227.287 324.209 256.572H328.69Z" fill="#57E295"/>
<path fill-rule="evenodd" clip-rule="evenodd" d="M323.42 258.913C321.079 220.684 322.071 185.18 341.687 164.906C338.981 206.88 333.92 236.448 327.51 258.913H323.42Z" fill="#28C76F"/>
<path fill-rule="evenodd" clip-rule="evenodd" d="M322.52 254.932C311.56 228.218 300.548 220.56 291.444 193.138C321.237 208.621 323.104 221.406 328.952 254.932H322.52Z" fill="#57E295"/>
<path fill-rule="evenodd" clip-rule="evenodd" d="M316.621 254.932L296.961 228.218C306.456 230.93 322.327 235.323 322.327 254.932H316.621Z" fill="#28C76F"/>
<path fill-rule="evenodd" clip-rule="evenodd" d="M335.01 254.932H341.568C345.736 246.21 351.61 240.206 365.819 247.484C356.505 233.265 337.394 228.962 335.01 254.932Z" fill="#57E295"/>
<path fill-rule="evenodd" clip-rule="evenodd" d="M328.977 254.932H334.431C344.441 240.585 348.744 234.334 359.103 222.082C345.457 227.272 331.45 234.334 328.977 254.932Z" fill="#28C76F"/>
<path d="M315.266 252.861H342.818C343.867 252.861 344.718 253.71 344.718 254.756V259.966C351.685 268.727 355.169 277.489 355.169 286.251C355.169 294.743 352.194 303.235 346.244 311.727C345.889 312.235 345.307 312.537 344.687 312.537H313.397C312.776 312.537 312.195 312.235 311.839 311.727C305.889 303.235 302.915 294.743 302.915 286.251C302.915 277.655 306.268 269.058 312.975 260.462L313.365 259.966V254.756C313.365 253.71 314.216 252.861 315.266 252.861Z" fill="#7367F0"/>
<mask id="mask0_69_114" style="mask-type:luminance" maskUnits="userSpaceOnUse" x="302" y="252" width="54" height="61">
<path d="M315.266 252.861H342.818C343.867 252.861 344.718 253.71 344.718 254.756V259.966C351.685 268.727 355.169 277.489 355.169 286.251C355.169 294.743 352.194 303.235 346.244 311.727C345.889 312.235 345.307 312.537 344.687 312.537H313.397C312.776 312.537 312.195 312.235 311.839 311.727C305.889 303.235 302.915 294.743 302.915 286.251C302.915 277.655 306.268 269.058 312.975 260.462L313.365 259.966V254.756C313.365 253.71 314.216 252.861 315.266 252.861Z" fill="#857AF9"/>
</mask>
<g mask="url(#mask0_69_114)">
<path fill-rule="evenodd" clip-rule="evenodd" d="M296.264 251.221H320.966C309.14 278.667 332.468 294.921 320.966 322.263H296.264V251.221Z" fill="#857AF9"/>
</g>
<defs>
<linearGradient id="paint0_linear_69_114" x1="-1180.78" y1="-698.949" x2="-1429.11" y2="3413.31" gradientUnits="userSpaceOnUse">
<stop stop-color="#FDC6C6"/>
<stop offset="1" stop-color="#FAB2B2"/>
</linearGradient>
<linearGradient id="paint1_linear_69_114" x1="-1753.81" y1="563.658" x2="-1940.19" y2="2665.77" gradientUnits="userSpaceOnUse">
<stop stop-color="#FDC6C6"/>
<stop offset="1" stop-color="#FAB2B2"/>
</linearGradient>
<linearGradient id="paint2_linear_69_114" x1="852.522" y1="-3992.95" x2="5247.77" y2="4274.47" gradientUnits="userSpaceOnUse">
<stop stop-color="#7367F0"/>
<stop offset="1" stop-color="#8CA5FF"/>
</linearGradient>
<linearGradient id="paint3_linear_69_114" x1="5820.46" y1="-2524.84" x2="5820.46" y2="5047.32" gradientUnits="userSpaceOnUse">
<stop stop-color="#7367F0"/>
<stop offset="1" stop-color="#8CA5FF"/>
</linearGradient>
</defs>
</svg>
